<mxfile host="app.diagrams.net" modified="2024-03-14T06:36:22.277Z" agent="Mozilla/5.0 (Windows NT 10.0; Win64; x64) AppleWebKit/537.36 (KHTML, like Gecko) Chrome/122.0.0.0 Safari/537.36 Edg/122.0.0.0" etag="C3zTlHh0BvyCnl2pvgyX" version="23.1.5" type="github">
  <diagram name="第 1 页" id="LeWGONiEdLnsfNtWSLgV">
    <mxGraphModel dx="2023" dy="512" grid="1" gridSize="10" guides="1" tooltips="1" connect="1" arrows="1" fold="1" page="1" pageScale="1" pageWidth="850" pageHeight="1100" math="0" shadow="0">
      <root>
        <mxCell id="0" />
        <mxCell id="1" parent="0" />
        <mxCell id="PL6XIXsii-Dk_IEH5D_P-1" value="" style="shape=image;verticalLabelPosition=bottom;labelBackgroundColor=default;verticalAlign=top;aspect=fixed;imageAspect=0;image=data:image/png,iVBORw0KGgoAAAANSUhEUgAABNYAAAKaCAIAAAB9XUPFAAAAAXNSR0IArs4c6QAAAARnQU1BAACxjwv8YQUAAAAJcEhZcwAADsMAAA7DAcdvqGQAAP+lSURBVHhe7J0HgBXF/cfnleuNowsHIk2KQBSFA7GggAFbBAxqCCoB29+AiiUKaFTQaIIKSQTFSCQENRQrRUApghwoIiC9w9Hb9fba/7tvlnXZfffuvXfv3rXvx/XYmZ03O/Ob38z+fruzsxaPxyMIIYQQQgghhJCKx6r+SwghhBBCCCGEVDB0QQkhhBBCCCGERAi6oIQQQgghhBBCIgRdUEIIIYQQQgghEYIuKCGEEEIIIYSQCEEXlBBCCCGEEEJIhKALSgghhBBCCCEkQtAFJYQQQgghhBASIeiCEkIIIYQQQgiJEHRBCSGEEEIIIYRECLqghBBCCCGEEEIiBF1QQgghhBBCCCERgi4oIYQQQgghhJAIQReUEEIIIYQQQkiEoAtKCCGEEEIIISRC0AUlhBBCCCGEEBIh6IISQgghhBBCCIkQdEEJIYQQQgghhEQIi8fjUXfLwfo9J7s/O08NmHhtaPrTt1+uBsqix9j5GbtOqAEv6W0brZ04UA2Uzoerd98zeZkaOM/s0X3u7tVGDZSSJmQMmZuBWD7//sCOo+eOnM3XVyopLqpjs7pN6yZ0a91wSM/WFzdIUg8Ez6KNhxb/dAgnOnw6D2dRY4VA5s3qJyL/9DaN/BeyTNIenKnPWc+g9JZzx9ykBsoiNOGj9fE3LBUpE9le6/acOHImf/uRc2qsEO2bpjatl9C9daPbrmqBkqixIREuYY6esXrKwi1q4DxlKqTEcudUde88Af4wwhw8lTti2oql429Vw7UP9O45a/e+/0hvNUwIIYQQUiMIz1PQ/367S93zxdLNmeperQHuFnxpuOUT52+Yl7HP4FTnFjoQg/hnZmW0eGTW4ElfIb16LGCmLdkKf2bAKwvgiiA3g2MjnV4cgteHZK9/tlE9ECQoWGkuE1iy6bC6V2GgFvqKoNbqgbCib69lmzP1/idAEJE4hARIFkJjSSpamE/9Z626V/0Z9+H6TmM+htjVcC0D7vfwt5ejdxtUkRBCCCGkBhAeFxTelLrnC9iR6/ecVAM1HdiO8FLgL8FxUqPKAtJDelic+K0a5Rck6/vyFw9PX+XHn9GDZPB1UaoA89czb52/loUvHbJzGwKoCGod3jNKYQbeXkgWVGPpqWhhQj6jZ6xWA9UWjBXQVTj8EIgaVcv4cPXuq8d9MmP5DjVMCCGEEFKzCIMLumjjoTJ9oc+/P6Du1Wggik5jPg7c+dQDi7P/xAXIQQ2XDpKF8HQIpcIPg3Wcynw0F/lH3HCnw/UsVLZXCMKUjVUFhTll4ZZqfbsHLnT3Z+eF1oNqANoNkQDvLhFCCCGEVEfC4IL+65vt6l7pzPf7/KdmAH9myJtLyvPoZvuRc8jBvxcKGz3kuXn44YhpK9RAALz+2cYyqwP/LYTngeXk6Vlry3/ScrYXhAkvVA0EQMSEWX0fhH64erf5BddaxRtfbgrhhgghhBBCSPUiDC6o+dlOn85p6t55YK8H8nyvorm7VxvPnIdL2+TKN3oQY0ij3/QruMBzGDlthU8fo2ndhLEDuy587mbth9hHDOLVFDqQw5gPvivND0G8z+l5g9JbTh157YG3h8r817066LWh6ebqABi4gb/KaH4oZ25ZMH1Z2fcgSmP26D6aWMwbjqJqalIdkNLH3+1RAyHhp70MwkRjQZg+GwtaHbi/FwFhSjJ2nYjk7GhCCCGEEEKCorwu6LQlWw12fFJc1HsPXa8GdMxZu1fdq4mMmfmdz7lzcDUz3xk24e5u/S9vrkYJgX3EIB5H1SgdcGxenPODGrgQ+Cdmrwl+2twxNz3Ur6O2sm631g2fvv3ytRMH+vTf/L+RqAEnzfxA5olburRvmqoGzlNxj7jh5KNqowZ0UsM6Plm/X90LCZ/tharB4TQIE40FYaKxfBZjxvIdpd0v0BNhYU6YtyGQUhFCCCGEEBJ5yuuCmv2Zfl2awXw3P+GJwOqplcWHq3f7XJDptaHpcDXVgC9wFGnUgA44Nj6fVa7bY3xHDk6mn89pTBrWMykuSg2cJ8CGMD+Oa1o3Af7YwO5GtxY+c4W+fzj5/l7mWmw9fFbdCx6f7YXaLRp7s/5OgQEUw3zLILfQEchzywgLE6Uq7S4GIYQQQgghlUu5XFCfz3b6dFKcz74mF/TI2fzAp4BWL973NTl21IBOgXwNFWl8Pl7z+awyr8j4CNTnBFGNixskDU5vpQbOA/8kkEnR5sdx/bo0w9/brmohg3r8f5Wn/HRsVlfdO4/5aXDg+JTt9IeuL/MDrRPu7mYW+L9XlL1yaeSFWdpdjIpj2pKtgyd91WPsfMudU/UbYvq+/MXrn22MzINZ6DZOJ0/d4bGPhr+9PJLrM6GOqCnkgFNrEkge9h6EMHrG6uq7UhQaV6sR6jLuw/WltSaqD/mnPThTqz5+CIFU0OeUCCGEEFIdsXg8HnU3eGBtPDMrQw14SYqLypk5AjswUFo8MktGagwK4OP7sG8M62Gmt220duJANVA6MLjvmbxMDZwnqG/uh3ZqmJXdn52nBs4DRyXznWFqIABgsZnnhR54e6jBKTKXsH3T1G1v3aUGfBGaWHxWauFz6kNC2JTbL1wSKZD6lqeBzBUHnjkPq3vB4FMz+3ROWzr+VjXgF+j8lIVbmtVP7Na6YVJsdMdmqT0vbezfd60IYcKfKXPlntJ0A16BuneeoLqJGXgXE+ZtCGQR11EDOk2+v5caOI9PxfCJvpyGWsiu6nOJKU2ePk/kR4uCFRQcsymLNvu/OYIxcNKwngaFCaQ1JVppK6Iu5jxle5nHeWAezMtUAzTEX3/fozyaRgghhJCaQbmegprfx5PPdgBsrFoyF3fF1iPqno77rm+n7gWGz5c2zSvumF8dhPcyeNJXfp4vweCDYWrYyrQCzQ/iYD5qk1TN00dhd1aF5aYCwec6RoNMNSoN+V4ovB2Y5hPu7gZJlvnstLKECd2AU6QGKgy4T4F/ohaOFlxuP+paHpCtzyWOfa7LFV5w6h6Bfct0Xsa+q8d9Ul06C4BfavY/QbfWDdU9L8PfXl6mGuAoXFykVMOEEEIIqa2E7oKu33PS/GBKzsKVmOfiwj57vcat1elzcp3PCZZ++PWvfLyCaM7ZYPZJYNR2GvNxeKe6mV+V1G4uAJ+1C+TbPKEB+9785qfZGw+QHUey1D0dmkNYEURGmHBr1T0dUxZt9qmf4QIqF+xnVOAYj5n5nRoIK3e9tdSnB/iHG9qrexVG/4kLzINhacAT87PqdZUC8nzw3ZVqQEdSXJT+LQN4lT5X6vYJUga+jjQhhBBCaiShu6Cff39A3TsP7JKH+nVUA0IM6dla3dNR/o/vVzXMN/4hB5++oh98ukDmnCFen54GLEX4OQ9PX2XxvqkFC+/D1btDtnEXbTxkPvWdPX55pxS1M3uAFfeIGx6L2bUI+dGWYdYrQF3KfJIZMhETZrP6ieaXiiG3sR+uUwMVwIR5G9S9YICuQj/VQJiAB+jTCYRsK/T+AkB3MyuVf5C+WqwXBXfRp1evf8N82pKtgfufkikLt4RdAQghhBBSjQjdBTWvwqJ/tgN8zsVdFo6P71cpzIavee2cQDD7VD5N6r/+voe6Vwr4FSy8eyYva/HILLij4z5cH+xzMPMjOP3EUYl5+ihM1TA+hgUwUpEhqmB+igj0NzuCwvxANSUhWt2rACIpzCdu6WK+QxHUl2CDwuxdJ8VFvTY0feGFn8CFY4x4NcV5AvwyUPkxyza8oHOZnwOjvqj1ulcHQQIH3h4KmZglALetQh9QVyj6eyjm2xCBVH/KouAenhNCCCGkJhGiC+rz2Y5+Fq7EPBcXlP/j+7WZu3u18fkdF5/AHZ04f0P3Z+fBkQvcDzE/gjPcXAA+p4+G4FfAVbacXznTsOHQw9NX+fTDYeAG+5xZw+dTnYojksK8uEGSzzsUT/1nbUXc98nKL1b3znN/73ZP33653sHG/uT7e73zwHVwQtLbNkKCsQO7zvZ+yVZNoXtdGfFqlA55SG5lvsMMoBtwe2R6OMAj+1TsLFzznQLU9OPH+6HWUkXRKJAJYuRRPdpLwkgsC4zCyxgNCE0ekpsaG1lQI4w5WhnQTFoTv/7ZRvOFwGf1DV4o+jUfhBJCCCG1lhBd0Dlr96p754GFYX4w5XMublg+vl+bgUk3deS1BpPOPzD44NHBES3TFYFJbXbS9A89JD6nj0bmEfeg9JYwcNVA1SbywoSTZp56ACfhjS83qYGKZFvmOZ9lRqlyZo5YO3Hg+4/0lms4qQfCDVw46IY2rRqekrZfQczNMI6EcLMNT7kBYsxLjvl8vF8FeeeB6/Rvfuqbz/xiRWnVR7waOE/NeymDEEIIIQESogsayLMdAPvPbBBvD8fH92s58Pa3TBoCgztYR7T/xAX+HZtlW4x2oXniqMTnFEef682GEVS5zO/6VB0qRZjvPXS9WSumLNwS9k5XJyFG3TsP3OZOYz6WXwGN/KKvqPUTt3RRAxEBdTTfYvjdNW3VvQvp0ykNrZ/ethF0WD4KXjPhDvVYFQYF9nPLYN1u4yQF8x0WiVksPic4EEIIIaQ2EIoLOm3J1kBm4Up8zsUN4T03YgDu/eT7e+XMHDF15LWD0luaXwL0Cfx/eKFqwAS8U//Lt+rxOX3038t3qnthBbWD4b7u1UHV5fknqCxhQjFG9e+sBnSEfRlS+NJmrYNLBkf0mVkZA15ZkDzsPW1xLPVwRdK9TaOKfuZpwHw3B25waVPEH+rXMdjP+VQFbrzM98AO1u85afbAfd5hAWaxBLuGEyGEEEJqDKG4oOZnOzC8Slsexudc3IpbPbX6kp1fou4FCSQ/d8xNsG7hob02NL1MdxSWX2mfxvH52K20xxo+p4+G/RE3VAs+NmoHw700475qUonChIfjc3WrsH8SadygruqeL+Cf4KRycSzLnVP7vvxFhd576pBmFGBFY3aiQluKrCrTsVmpUt17PFvd06F/nduwqSl0RP5ROSGEEEKqAkG7oAdP5QY4C1ficy7ukTB9fL8qYPYczGuuBoLZnDV7Ef6BG/P07Zfr3dHScijt8don6/ere+eBN1vaYw3gc/qo+Ws9fpg9uo9+mRPz+3JwYx6eviqMT/DM7XX4dJ66F1YiL0w9zw++Ut3TMWHeBv/TsIPloX4dA18ca9nmTDRl2oMzuQ4NkZhXtCKEEEJIbSBoF/Tj7/aYJ1/Ny9hnuOGt32B6qul0hPDxff9kF/h4ilhxC59odDA9JYB8gnWwfRrl/h9m+ke6o2snDvTpIZjdXbB+z0nz21lHzuYbWlO/TZzv47OQ5q/1BAgaC/7z1JHXqmEdUxZuGTzpKzVQPprWM0oVdQzcMYOU4EQNf3u5/yaudGHC1zUvAAPNDPvnKKFmC5+72XybqTQghHsmL6uIx6HpbUL8VCzxQwSGUEIIIYTUNoJ2QcO1jGFpc3HNky0DnKHq062KAO2a+JioZl4x2D8+pWoQBdwkeKqvf7Zx9IzVPcbOhyM07sP16rHSgYcwyvSlB2B2ekN+4GagnI+4S3uwNi9jX1i80O6tfTgqgRcYUkIFZyzfMeCVBX580aogzBfuvNJ8FwMlV/fCB9zdpeNvlV+AhC9qXgzJzNOzKuQ7MYQQQgghpOoTnAsKq9HnI80QyA344/uV5VsGiM+FZOZm7A3cwkZK86cdgOE12qvHfXLP5GXPzMqYsnBLxq4TcE7W7QloSckAnw6F8WM5wXrgBuA2m5/gAXihgXjd/innRzj1UtJ8UfMbm1VBmBc3SPL/rmZ4wenQcPBFc2aOWPjczWMHdh2U3tI87VmC7l/RiyeXk0A8f3PtzI++9cj1mQZP+kou0VSeOzVBUUEnMi+JDLR59YFsfMRKCCGE1E6Cc0GnLwvn7Fmfdr9PmzWQl8e2ZRo91dLM3/DSrXVD8yuXQc14REqkVwPn6dM5zbBgZnvTaivLNmcGslyNzynKBmCkhtHV9+lRB8X7j/T22XwT528opz3ts70gyUB0DGl8vrJreF5ddYT5UL+OgU+RDSP9L28+4e5uc8fctO2tu+TTUfWADjjw6l6lUpo6BXILyeeStqVliK6Kbg4fdV7GPrlE04BXFoR3QnJ56hICPl9sDmREIoQQQkgtJzgXNIzPdgDsfrNt5NOqm7Joi7pXCrB7zI9nzW/9VRCj+vuY6Tpj+Y5AFiBFGp9zI4ebHgP6/LzN2A/XqXul88FKH4sPGZ4/lPO5pYHAH3H74d+P3uBzSueYD75T90LFZ3u9PLeMpXpw9Kn/rFUDOu7odom6d54qJcyJd3cPZGZsCKDTwScf9+H64W8v7zF2fvKw93y68fLpaLBra0WM0hrdvO63Gfhg5qnOpb3l/t9vd6l7Onx6cSFTnrqEhrlZfVaTEEIIIURPEC4oLE7zs51B6S0Nc6tK23xOrTRPxvNp1WXsOuHnPUAYXvf94xs1oMOnz1YRwJ3z+azpmVkZsM5LswsRj6NIo4Z1IDfzFLUhPVubfQk43v7fkMRR8+RAc2nNr+aiFQwtWNrmcwGh8lu93Vo39Pl9SyhhORfIhWzNpjOy7T9xgZ9HWDhqfnAHKcG/UgPnqVLChBh9dr1yAu3t/uy8eyYvmzh/w4zlO6BjcJX9uPEhf3MojLRqnKLu6fB5g+b1zzaav+nqE/Ni4Pih+d4T9Md8pwnd0Ocdt0CoiLqEgPmroVMWbvHZifq+/EXagzPld2JRpEAmHRBCCCGkphKEC+rzUUyfToG6eT6/iOjz6yDmL3MAWFFyAR69fYN9GDSdxnxs9o3hrfn8JGkF8d5D15s9ZwC78+pxn8hXv9Qo73xOxCDe5/NP5IPc1IAOWKulvSHpUzKIQbxP69PwiBUta3au/Hxox8BD/TqafWOctzRvJHB8ft8SlGbmBs5Hj/U1lxlaNOCVBXDaIRCt8Gis4W8v7/PS52YdA3/9fQ917zxVUJiT7+8V9knp0EZzP4WIoNVwMOBxyRgUGwKB42GWXoBFkrcbkI8+29CAN26WLZxneEeaOmEHCuDzxpBP0F7qng78HMXWSouSQ3/Mk+3NMx3MoHhy6EBu+hehK6IuITCyT3tzMdCJ9NVHMVCqZZsz0S9QQnReFOmeycv83zsjhBBCSA3G4vF41N2ygD9jsK1hfOTMHKEGAsCcA1j36iDDq3Sgw2Mf+bT4A2fswK5wYNRAYMBQhoWkBrzA/1k7caAaKAtYWkPeXGI2NIMCIv348X6lTc+DId5/4oJySsZcKdiCZk914XM3Bz5L0GcOrw1N1z8hhCUNu1MNnGf26D7+lySBIevTfA+qaXxS/vYaNaATvDs1cJ7ICBMmPkx5NeDFv0B8Cl+jzFbwSWlNEwhN6yZkvjNMDZwH6t3ikVlqwBf6clrunCp3NAKphfSF1EDw+DyFuS0CwWd7wV1/ePoqNeALz5yH1b0KqItPJdGf0SdwjH1+T6hMfI78hBBCCKkNBPoUFPZ6eZ7tSHym9/n5itLeAwyQQektg/U/yw98DHiPPp+FBgh+68f/BBc3SJp0b8/ySKZ909SPHuurBs7jc+Jo4C4T8PkwPCzf74GR6nM6bsauE/qHQiEg2ytkYULHzP4nqJrChLMR9um4aJrQVtyFzKeX8pzff/fJ2B3QEtB+COTBo0aAugE1gD+pBgIDOZu7IbiiZQN1rxTkE1FJRdQlBDDS+nwNwT+vDU2n/0kIIYTUWgJ1QX2usRH4LFyJ77m4vj6+D+tk2fO3hTZ7EKb23DE3qYHIAk9jzYQ7QjDIAH6F35bpqyBByJKBobxo7M2G189e/2yj+UFWsDcXfE4fXRbYgr1lUup03EWby5k/hLll0pBg/QcwdmBXnzpWlYX5wp1Xht0Pefr2y32udusHlOH1oT1K03Ofk/DDSOCuOEoSuNMOfzLwXg8JfPx4P0M3lGDcC1wbK6guIfDeQ9cHNeih+5jfoCaEEEJI7SFQF9T8bAeGlM/3oPwAu9P8lONIKR/fhzW27a27Rg3oFLjdDOtt9ug+7z/SWw1XBrAsl46/FcUI3CZDSqTHr3xapWakZGD6+39kpAcpkX7txIHmU/h8vObzZoF/An/EHQKT7+9lVgM4e/JFwfIAgUAsU0deG6BXD2t+3auDSnvGXpWFiZrC91MD4QO+xMLnbg7QcUKyZc/f5mfceOKWLn6yMk/ECAGMDxhV1IAvoGlIENRtLNnr4VmVOVhBf7ZMGuLnTtPzg6/0068Pn8lT97xURF1CIPDqo2oY6yI/RYUQQgghVQrbn//8Z3W3dKYt2Tp/3X41cJ5br2zx2+DX+/n58NmfDpxWA+eJtttuv8r4ZQsJbLVn77iicZ34hilxsdG2pNjo07lF6jEv8BxaX5QysHvLF+686i+/S+/UvJ56IHj+9c32zDMX2Lhp9RJH3NheDQQDijHsukvv793uotT4lPhobNkFJSVOt3rYa4t3b9PovusvnXh3d1QwhGJf3e6iJ27tgkzqJcVaLBazZHCKdk1T7766DfKHi4X06gEdB0/ljnrf6MXBTPS5Lqt/zuYVL/jxoBo4z+mcov/79WVy/+dDZ81fgoVFHkjdUaT8Iue324+p4fOgvaAbV7Yq74w+5IByasL0eBT/Vj2ma6z3Hrr+gT4dSvMQIinMxT8dWrf7goeigegqqvnVpsMGJQcBtkJptLkoBacecMXFjVLiY6JsMXabXhXRQ391SX3o4d+G9XzhTn/+FaiTEIOs4mPs2D+VUyi7DBybK1o2QB9/uN9l2s/N390NvBYYVWRpHS63Jg3kjFZ+sG+Hf4649q6rlZckzUL2f4obOjVFX0Ph0d+FR2hC0Mo/Zfg1j9/SBXWU8T6BMHGWhJgoc9kgQ4wqhp+HsS4+e+iff3uVulcWqP49vdrIEU9ffYAe1Ldzs6dv/9WM/7uhPJpGCCGEkJpBEMsREUIIIYQQQggh5SGIj7IQQgghhBBCCCHlgS4oIYQQQgghhJAIQReUEEIIIYQQQkiEoAtKCCGEEEIIISRCBLockeXOqeoeIYQQEj48cx5W9wghhBBSC+BTUEIIIYQQQgghEYIuKCGEEEIIIYSQCEEXlBBCCCGEEEJIhKALSgghhBBCCCEkQgS6HBEhhBBCCCGEEFJO+BSUEEIIIYQQQkiEoAtKCCGEEEIIISRCBDERd/SM1VMWbhk1oNPk+3upUb4o7Qui6W0b3dHtkqdvv1wNC9Fj7PyMXSfUwHmS4qK6t2k0qHvLh/p1VKO8fLh69z2TlyGTtRMHqlE6AixbmcjCB/WRuoOnckdMW7F0/K1quFIxFEYKrfxiKZMQ5FaJSG1RAzqa1k2AgkFFu7VuKGOkAOW+nvZNU5HyhTuvvLhBkhrlRar07NF97u7VRo3SUR4pJQ97L7fQMSi95dwxN6lR5cZ/aSUVJyv/fTaQslUF0KalDUo+Qa3T2zSq6Eot2nhozAffbT9yDvtjB3adcHc3Ge8H/wNsaUxbsjXzTH4g+ZcJxq5OYz4e1b8zcgutMD4xi2L428vnZuxFb8K1JmfmCJksWMZ9uH7Kos1bJg0xaHWZVOJQadC9YFW3oilTMoGMCaWNQtKuGN67nfbbCI9XZpWWP5H7GqXZP2UipecfyFYWoyJMgtIKgCqXx/ADfhQjjANFaERmPC8TfV82KGplXUllMQI/b6U3pX/CcqXzP4ZoVFBX8i/hAMsWdirqKSjqqd8wrENSz8zKGDzpKzXFeeSIr22IWbY58+Hpq8wpqyZ3vbUUBVYDlU2VKkwVRzpR+i2nsGRexr4+L30Os1VN5AVdWp8MGguLdsbyHbCYDSkriNc/2wiLGTtLNh2GpS4jI0k1klVVRo7yaqAiGfLmEoj9/t7tcEW57aoWamy4wSUNA3VuUYkaLh8jpq1IjosOizerxyAKuI7QxrS6iQiOG9RVTRQ8KCdKizKr4SpPxHSvKmAYhbChsXBlhAWGsVRN5KXSx6tw2T/6TGQ+pUVWKIYzonY11fADtapP1WbCe6ULEH3vwFZTu1JFuaDws/XbtrfuWvjczRjuYbaiOdVEXsYP7qpPmTNzxOzRfWRK9HA1EQmJu3u18cx5OMJ3NaoLg9Jb6hVP6h4i4ey9NPcHNZGXjs3q6pNBmQ+8PVSmhIEbAZ9wqfe2AoxmnPHj7/bIyEhSjWQVYdC/UE01UDXAAAtp41L0/iO90fe1x9RVGZQZV83y+IQ+MYvi65+VroSLDoL628kh8Nff90CZDZczUhUwjELYMt8Z9trQdByaMG+DfhSq9PEqXPaPPhNsfiIrFMMZafhFhip4GcIAi1JV+vPh6ou+d2CrqV0pcu+C9r+8+eD0VtjJ2G18cGwAWvvx4/2wM2Xhlppns5KqzKRhPfHXPLfBwMUNkuaOualP5zRYKi/OucAHCzvr95yEpdu+aervrmmL4L+X75TxlU4VlBWppkxZtKVp3YRgJx9WLrhOocwouRomVZunb78coyhGoe92HlejfFHp41UNs39o+BESFmpkV4rockTwy9W9soCscQ3AzvRl22VM+ekxdr7lzqlB3bTGT7DBB+j78hf4Lba0B2dqM3mQFWKkCS6PyniAQ/qfDJ70lV4PZEkWbTyEQ9jp8NhH8ij+Dn97uYz0+UOAwiAyedh7SIC/WgKfhZGR+hshSIygdgqUZNqSreoxL/6rXB78106eztw6qCNSqoGyBIuqIR41khJGAnOG/gnqza4nbumCv3Mz9spgBfHfb3fh78DuLbu1bggTavuRc+ZKVVyr+aHSZVVaX9Dwry04inj8HffhehyVyZAG2aopvECM6KFaJtBhfSaIhOTVwIVnlEXSpvMhRs7aumfyMuzLRkRW+v6IE6Ew3uT+0BcJO/oOjsIgf+xgKMBRfdkMoJtomaCc2QU+ZhmhMFoaVAdV06qjnQiVwlGtDKhRmYOYAYgCpb3v+nZqWIdWSClMfdPIzq6vO9BHGkQhNzlC6psA+JEnQD6INw/XAGVGhlo+oaHXGbO4cBTx+OtfS/ETRMq+gGRILEUhy4Yds+5JsC8riA1V0x8qDT9aAeR5pRrI8uAvIg06gJ9otUYB9DlUHCkJ0epeWURmbC+NirB/DEDnNXVCQ5jVCU2mJUADGeyEoKhEw09qo0+TIJBeb+gO+kjs+OxThquSoXcgGeJxLvQOmcA84MtDKJ4a9g6DMrEa9iK7j2w47KBsMj5Y8ENs+v4Iacgyazogu7BMrxHIOKCJRZ4FpdXOgpz1ddSDfJDAXCOcEfGl/Ur+BEdRGOyjFWS8/xaR5TTUTh+JPEu70mE/XH0kQCLZldB2WmNBbpChXm7hIqIuqOwtSbEBXQa6t1bmNK/bU4a7X9EcPp3X56XPj5zJHzWg0/292+UUljwzK0NqYavGKYhsWjcB+9jB5v2FMrRBZdftPjEovSUi26elzsvY13/iAsM1eMibS5rVV15JwnUR1jyOdhrz8YzlO5AekTgX0uCHd721VKYH0AAUBpHd2zRCGvzVci6tMHqQDInRkZLjouUpth4+a54y7qfKIVNm7fp6e8u8dftkUIIunetdg0cGAxTs07PWogpIAPFCLGpsYMgRM8B+jk6OlChhRfRMDdQRf+Ubfff1vlSJuVBKkopoNf9Urqz89AWZwKAtUAYkML/i9fLcDVMWbU5vq2SCv0iDbLVMYA1AjNjBUZkJdBhnkUcNQF1xxu2Z6puH/bo0Q27o5nLck/ljR5ZHaqbsj7JTYEOrTZy/ASdVsisF9FYUCSnlWbCDHGAKyDLf0e0S2V8wFOAogt4fGcEp0PFlJtjgR6HXqMfOg2sqCoMdWba0uonLNmdqsxO1E6mia6NUDYfKHMTMSH2+ul1jGdSQoxOGR2Ql2xdNI4UZCAZRyE2OkPomMMgTMZCnYUgEhuFaRsoy++yPARLgmOZfS6XYEdmxWV2ZCRoOrSCPAvkr7OgrDiBhnB07iMSh7UfOIahZjT7xrxUaqMKSTYcHp7dCGlxuIFK9DqCnDHhlgVbr7PwS5KAeqzBQQtQXO3USYmSMHyIztvuhQu0f6AZ0XlMntKBBneS4pNkJuLigJ0JXZYJgqXTDz2wS+B9FA0GKDjv6PmW4KuESACWHbhu0CPKfm7EXp0aC5HjjBfTOHsqTLv1AJ/cN2ijnRoXlPQsIB4XMK3KgzHIcQBAiQjlRQjmMQz56cyLAcUBP4CYKeh8GalyVDKP9/HX70CuH9Gythk2ggyNPWWZoL2LMLYJyYvAJXJlLu9KFt48ESMS6kn9jJoxEyAVFuaFqUCko0Mg+7dVYv3Rsloq/6BUyWH7WThwYwtz0I2fzIf1tb901+f5e7z/SWz7dRmPgLzo/IjGoYR872LCDmk6YtwHVRMq5Y25C5NLxt742NB29eszM75BAQ76FggT4i+CLc37AEDN2YFekRyTOlfnOMEM/HPPBd0iD3GQa/IVyIOc3vtzkszAGUAAkhkpp1dkyaQhGMVRHb3b4qXLIlFm7p2+/HEKD1SLTS6RtJyegBi5YsGbCHUgAwQY1QKPXwdTDDkQkY8oEjYi/WfnFMhh20C5ojj6d02RF5OCLtjAP9BXRan6odFn56Qs4Cm3BpQjasuz526S2QBmQGD8xvLyaeTZP0yikgaiRRnvhVvGmmqZKqcoEuA7h2ql1ST0frFTmSEP3IH8kRp4oEmJ+3HcKfxEjG3FQ95ZyH40r+6OsAjb8FmVGJJL5BFc4tCnKoJ0F/UgaDbLi6EfIHzsYCnDU5+uOKDzqhd4nM8GGHdgQ6mEvaF/0TUhDqzt2cCJNONqJ5Mgjx9VABjEzOIq/MDtkUENmBZkjK2SIfSXmw3Xq4bIwiEJucoTUmgDVhDzRxJo8ZTURaTAmDMO1RJZZlj8EAh/T/GspEhtkJVVdHgWINOiejNf/CpljH5HyzXOflKkVejSRYsegA6g1/mo1QiYYu+ShCgKW6IhpK1BO9B2zpvmkosd2/4Td/tEDOSx87maDOmnuDXoxNBDNKltZjg/oIxhR/fRinyB9pRt+ElRBVhbKX+YoGgj4lblPGa5KkLC8EI+8cN0ypHnngetwaiQwD9Hy9od+VNH21+xQ55CjJ+LvQO/4Vn5gPMBD08YB2aNhjME+RCGxyVporR/UOKARlIkiJ8V8/v0BGQTQTzQQcvAz/QoFwDUXVZDFRgwkj8ipI6/VWkS+UWl4J9wPpV3pwtVHAiTCXcm/MRNGKsoFlU9vta37s/OmLNwC2Y0b1DWo+XtVAf0YIUcH9CU1bAJ9BhoPs1J/nUMO0tPTK73hAQXsWvw1LAgpDaa9x7PxV/ZA5KMvj5wvhDPKoB9wahQApoDsmRK0hVSs93W3zEFQVQ6EMmsHMLigInJsBSiwcnf2vPcVuGD9D1IaUEiDlj48fRUkjCuTlGpVQDrh8hExQL0w6mHH5+SKsLeaRlWTVZl9QWoRRhupPBKpLRjENWMLQFv0GiVvHOrlButff1HBdRr2ij5bA/rMMXbnzBzh/xVHVETTXrQv0uMUMmhGvgmMbPUaLl/KhVcpg2Uip3aj42uZYEeOAxqZZ/KhP8MvvL+A0QN//ShVIN3cAOqODKFIalgHTqfPCvuIwZig7+zlRPav8YMvuCpJeRpeui7teTJKjvKHVqSgxrTStBTJ5MCul5XMRA2UjuFXcqoFFFIGzQSuFff1vlSvXe3TlMJIHZC31TCO6WskZR4u0McN49WAVxZAc1DU5wdfqSaqxRiEL68vWrvPzdiLVta3iDY+aFfn0jCIvYoYfgaTICyjqBl5VcKAYLgQD05vBYXXiw56KD2Z0kCB8RN5KUEHR7byVq/2RGvZFuU+URhXO9dfx2WPRrE1+UhtkZMIQGhXB2CQDDIpLb2s2nzdBJM5a5VZ8X+4oQzvSz6xkEDmcqjRX4Jli2DgLc9k7/L0kQCpCl0pWGMmBCrKBUU/1G9wJMYO7Lrs+dv0KlhdMJib8uZoacgxAno/esZq/SaNM/1CCM3qXfDYYe6YmzxzHoaxiyv0uA/XD397eY8Lv/mz5dAZ/O3bRfVGJNBF/ErvVZaGPLU0BfTIweXImQsGgqCqHAhl1g7IwUWb1SZvp2neV+CClUNhmSCZQUsxyk8deS0cgIj1cP9I4xKDjn7mSZ9OikD+vcLHlTLsraZR1WRVZl+Q5lSn5vW8R34BJcdfvXFv0BZ541AD1cS1CqN/h8c+gtL6v7rce50yTRrOeZr3jb7XP9uoP5EZWCHSJW7xyCx0ByizfsT3CeoFfTA0NCqOfFBO/6fTkB61YfyR44AGPBNcb3pe2hgdFhVB2VDCMu2zQLq5AT9rw8jG0iNj/C8nExTrvOs6ZOw+oY0n2OSTEM0ilxjEZSC0IoU8pum1VCYzy8rQO3wi7w5o+LmxIglcKwzi6qC77si1NAw1kjqsBsoN+ggEot9ghr42NH3NhDsMel47MQhf31gYgjCSJMdFoxfodVL6PIZOYcYg9ipi+BnqG5ZR1Iz2iFIvN2xSaHrRGfqdGXmVlxnKiwIMIchTjlcAgyoqVWaHDRxzv4CI1L3zQDhyJ7SrAwjcREFKKA+Epl0Tl2w6jCqX2X/1p5Ayb9fEOLDINEfP+fOW/VDOPhIg+n6ELcJdKVhjJmRCd0Ghc3ofHUH1gBfYpvpt6fhbobVBdZith5WGNIwdVR/51Buew5SFW/RbaTd7NNDAkCGM3XsmL9Pe5NFXv8wcAkFvCkikCxGublMaZdYOYHBBjPaU49/Ld2IQ1PpbyIItDRglBi2F9xLsPR55X1B7tyq8SCccgx1cFK2jYVBAJGodrpttElxLtFPIDTHqsaonqwAbvbTLauDajmqO8r5AiJ9AaSH85GHvwbNSD18IBAK3HHYMigdFfWZWBhqu78tf+Bm7F429GbJFqWBSQJkHvLLAzyINEp+XbbnOSlCOkOE2vBwH9KCaKD86LCqCsmXnlxgm65oJpJsHjvmHIWdVGtKo0gYTbZNHK5owjmlhl0xphKAVPpGvVOkJfK0giWG8ggmoHvD2EcN4Ndc749Gs5H6o0LG9TCrL/pETj6GBeoXEBi2VCfxjEHuVNfzCNYrqkd+NlCO5fvN/D84n8solb1HJO4YYriFGjFfwf7ChgfpV8Nx1/4RrHPCDfPwgH37K55k+l6wrE8NtZZASrzR0yEZvOfuIRlX2oUIwZkIjossRBYX8gFuAEt+Wqcg6jLdRy8ns0X08cx42b35mX/SfuABDVZ/OaWj4hc/djMRQO/3dsrAMylJQeqRKVbToyqydRA4xcL0w7GKAMA+yIQi24oCThksC2iUQLZU384KSs5wvhJ8Y7odJTSjPIiiRJyhZAWn/9bzUuESNJMC+oN1A1ZAuR1CtMNn7phCUduzArlBg5ADPalwp69Zi4N721l3rXh302tB06Vsu25w54sIXgfTAJoZxnOP9kBd8XRQMIz6Ge3PJNbTZUHpgAeBvaeLyif4WgxlYGKgmyoOKyE6HepX5YC3Abh4gEIW6dx5zTFjQhhHDph6uYMIyppkH9oogNK3wSZnfFahcwjtehUBQ9k/YwVVGr4rahu6spqgwgqq4NLKDGs8l4RpFzWAYNwhNbriOqCkCANcFjKK4dmAfIyqaAzvyrs2aHccX/6RcHeSqRZVCGMcBPzytWx+kPBOPpZLokcu/h6A2eiqxjwRIOX2oYI2Z0AjdBYWgK07uuACg46HO2hREeT1GpLwnpAdOlJyfcEXLBjKmEpHtbb6+pj04s8NjH5kLL4HFCY8Lzb90/K1oeO3pjRwTJXJW4dJNilbpkTmrgdKRA+t2k6Uijd2m9SrwpmMgtZPIIWbp5kz5Grp+3n9ogq1Q5CcB0TllEMhC+nQO5WWjg+mGXGlIoaELYBRA59Jv85/6NRJgOAhjrdG/9N0ZW3i9erOs5AXV541Dzf4r7alFmX1BjqRyvq4eDCD4G+DDEDSBnH+LfSjthLu7QYHhXCEoB3cDPcbOl2eHGuDyCd9yy6QhCEpLwszr3u8iyKfZkDZsFLS1fOdHaosZ1AuSMbQ7BkCpKgHWS2rp4TN5MigxPFSXn6NYNPZmVETTBOnAl0bg3VyPH4Nvm8l0kM0nf+JzVUD/JTQjbTuDNw7xWrxfqlDDARCa2RqWMa20gd3cO8pPCFphRnZ8w90E6LBs3MAxjFdBmfhlEt7xKljM9k/EkM0KD83wuAODVbKvL3OEF58Vl53U59wQOQ63a1pHBgMkkFE0MdbHSu/+hzKpIeZuO3jSV9o4HzjyfW/UGqWSA4VsmnV7TqBro5zaABt5wjIOBIL2TiwcUfjkUg6BI82AHUeNY6NsoyapitEbwnUkXH0Etpx+BENQPRAOzF1JFhuRZhVFRQw+VLDGTMhUxaegkN2D767EDqwx/Zgurwf3/eMbvQQhO7keIMapYBW0IpAvQ89YvgPdRsaAcR+uR0dKSYj2X0L5CpCGHH3UgNcIRo9CjH4sxj5yDsSBhCQhQCTGgKhGeaUnFyc0vFleEfivnQTykTf/5q9TlqnUD7LlEWzYgdwgRtnD9e/xy0LCTDE8JYNKo+TYkUurBcIc7/wT+SViA6isvCrLdWWqOKXJCgMijDapkEijxnovD3KtXb39Z6DMvgAXCH+h2wZtwU8gugAv3h3SUjPP5uFyqy9epvetaXltM4P80dZqoKzZGc3qJaLAcuk5DekZlvYT+VUejIH6Iskbk9J3DQSppfolAbEzxdfs0xPZheqe18OUlod/AunmejAuQQ2gHmpYh6F9ZWeHVsiLgpxepb8WBFhCPXKRIeibXp5y0V3zOws+QclD9j3CMqZpA7t+zClT7OUhBK3QIzs+Bkl9TzGval5ZQBPCPl4FRWn2T8RARWBQ6VtEjg+KleX1siqI0iouOynGK73CACi8bKZgHfVARlHZ/fW3h8rsU1JDUCT9qIUOAlXHqBisxyhvx8uZUJrYcfGCq4BiVO4sXEk5x4FAkA8h5DrDgdtOGjAD5FBjaBEMuVAbua5saNeRyuojAVJaV5JjVIA+FNRM3+MqaKqpXf238sDwLe84SrYePgtZYAfCMtzXnDSs57bD5yCX7s/OgyBwkc7OL5GDAoIfPdZXJisNuPUYHWaP7iNvBoQLebes78tfYMxCgdGErw1Nf2ZWxoBXFqAK6ABoOfhU0Hg/a/FpJnXagzOllizdlImgjJRpwKR7ew55cwkyhwLJyyF6F3KeeHd3mcBQGBmpIQWIn3R47KO+XZQphehp+IszhkUmhrnsElw/nvYuz1hm7SR9vS4o4uUXAjRCE2xYgE7qq6ZpHU798eP99D1cK+TE+cp3/OQLJ5pK45BBzpY7p+Kvx9eUPzkISlfKDKQKZUZThvfef/kJXFZg+kPXQ59RC2zSqT58Og9ajR00sf+q+e8LWkMgDa7WSIBk0l4JXFtQ2lH9O6MpO435eHB6K/xWO4vPdkHOUM57Ji+bt05ZoVT2L8TLhfKAvOGKEQ+WDdwPKMP7y3dAh7V+IQuJflFau6MrIQ3KcPW4T1AvlAT7KBV+ojeX/aMJR6sXMjG4jojHdbrPS5/LBLKvGTqs/L6ivLeC6y6qE3g314OmRwFw4TdYafih1r6aZLRFCHE6RZK7TkDfUCMIYcmmw2l1E/2fy4AmT00UWpkDkSfKjL9SdQEu2Gh97Pjs0WbCNaZBJqg7FPXrnzOlKFAj2SnUFCbdQzIZHxSBaEUgyI6v9RTZuMhQjpORJGLjVWkEbv/4uViEF81OkB0Z5YF2oZrYD4udIAm84lonhcI89Z+1cmI/FAZ/fTZTmQQyiqKPQNXhVCBe65gGVTf3Kakh6NGfrN+vDUpIE8Iqpvi5djpN7IiUFZfrFVUW4RoHygRXBAgf2eIspV0T/aO1yNLNmbCK0SJoa8RrLRLIdcR8pYtMHwmQwLuSLDaqVqYPVaYxEy4q/yko6o/m17bkuOg+ndPgKM4dc5Oa4jzQmEVjlTeyMPrLX+EvBAehID7YHh4uMGahDOiBGK3kTTUMcCg/agEFReQ67we4lz1/m//bYKgCksEQxE+g6x2apS587mbZ3tqH2pAD8kEyqDuS4a/MGT1HJjAXRo8UIPLUztK9TaOpI681izo09O2obeiWOBRI7SSQHoYb7Ji/fRSaYMsPup++RtA6aCAKv2XSEPOpZSFRMGiyTI9IqdI4JNOUyeufbcRJ0ZRayxqQUoJs9bf3qgJByUrq8/2926GmMj1qhPSwy8vUyTL7gmwIaLjUFhiLOJHPYvhhwt3d0EE6NqsLpUUmKKHhLHqQM7QabS2LhCEbZ0cZtGsnVBpHIRMcld/XWur9nClUBTHYcD1AEJ1FpvcJJAP54CeySNjBkLjtrbuCGgClcHChlZm0T0uVX2nTkOswaWdBDOQgCwYnzZtEqa98aIAEshcH3s31yNvb8rG/nr5dlHdKIXPkhssqckb++mrK0+EQEiDZqP6dxw++4L5VIEh5aqJA4WUTBCJPWeYQbs9ryIYo55iGosq+oIkCcjM8JzHrXggEohWBIDuvVmuovexl6uEIErHxqjRwRu3s2CBbiAUqEa6LcghodgL20Tpoa5SqPHX0SVAVl50UCdA9ZXqYxSH0FA2ZoabJ2DGMohjhMSRqKnrkTD7KZnjd0dynpIZoPRG/lZeAwC/9euTpoGAyCOQTtpD9sXARrnEgEOT6IPB1ZTBYtBbB0IqiSjsBVyV9i5R5HUEmhitdZPpIgATelWSxA/GhUGX/xky4sHg8HnWXkCoAPOdOYz6G/VQpnZkQEnl6jJ1/+HRe5jvD1HA1Ie3Bmc3qJ+rf4Vm/52T3Z+dF4FFVmUCksDDWvTqotNtYhBBSxRk9YzVcII5jNZWquyIuqZ288eWm3JDm/RNCqimj+neqgo/0/YPSoswouRr2gsg+5z9lHDGSh73X4bGP9NNeFm08BP+zaVi/HEgIIZEEY9qM5TvSq8Y6L6Qi4FNQUiXAWHPXW0vlxHSMOOFdHIwQUsXp+/IX2zPPVaMHoWkPzmyfpiz/q4a9g1j/iQsm3dsztMmBISO/kQCHU77YBsd4yabDuYWO2eFe+IAQQiLAuA/Xf/1z5lbva40cx2owdEFJVSF52HsYbuB/fvRYX/2sdEJIjUfOwB/Vv/OEu7upUVUYWEhTFm3eMmlIFRmpXv9s4yfr92ecX6MFvugfbmgfYU+YEELCAgbYifM3YCgbN6hraG/SkmoBXVBCCCGEEEIIIRGC74ISQgghhBBCCIkQdEEJIYQQQgghhEQIuqCEEEIIIYQQQiJEEO+CWu6cir+jBnSafH8vGaNHHvX/PTT5hR81oKNp3YT0to2evv1ybeXl0lIi2Y2XpZnXq5DfQCtt4axAylYm5a++gYOnckdMW6FfUDECfLh69z2Tl5VWC5/4l20VRLaFGSjPHd0u0b/aLqumBs6TFBfVvU2jQd1bGj7CK0VX2mq9UmODEmzYMwwN/6pbQcWoFOWvFKYt2Zp5Jr+ylthZtPHQnLV733+ktxqOCFVqxAi2MP57ZbgIl/6//tlGdM8jZ/Oxv/C5m2vq+kOVosaSQPRH6owa0CEvJcN7t9N+W1rK9k1ToXIv3HmlYXUr/8Nvtbs0E0KInqCfgmJAxPVADYSEdDj1W05hybyMfX1e+tyQsyElghhwJ87fYPgGWiQpf/U17npr6bLNmWqAhBu95mDDNR7K88ysjMGTvlJTnEde/rUNMWiXh6evMqck4aKWKD8sTihSblGJGo44A15ZsP3IOTVAqgxh0X9ciTCg4eoJFwVbDV7/tlqoMRxO/XUEW3JcNFoZPqfhg7eGlLgAoXYzlu/oNObjcFkXhBBS9QllIu6YD75T90JiUHrLtRMH6recmSMQmVvoeGnuD2oiL4aUme8MW/fqIDle4xKuJoo45aw+iQx6zcG27a27Fj53M6798zL2wTFQE3kZP7irPiW0cfboPjLl6Bmr1USEEFKVWPyT4q7c37vd5Pt7VfRcCVImHZvV1V9HsMFieW1oOg5NmLdBf9PckBLXpgNvD5Um0JA3l1TW7XVCCIkwQbug0gMMu2k+aVhP/M0wzYo00K11w0Vjb5aPQ6ct2arGRpAKqj6JAP0vbz44vRV2MnaXoWZ392rz8eP9sDNl4RYaBIQQQkLg6dsvh80A3/K7ncfVKF9c3CBp7pib+nROQ8oX51xwI54QQmoqQbugk+5VfMUwzkeVBP6Bb6S87/p22Jm3bp+MKT8frt5tuXNqj7Hz1XDpBF799XtODp70VfKw95Az/vZ9+QvtJ/J00t/GDrbhby/HX/10HTjY8odq2AsyQSRylkE/pwDwkxGPfFAv7KQ9ONPw9E+CHHC0/JNOcSJZPLnhpNo9ApRKxsigxrgP1yNeqzWcPZQZ5TTnIJGRSC+rHEKZk+Ki1L2ygL8KgwA705dtlzGVjr65sUHaBvmUKUCAttCaCQnKVGMNLWf8xb7mmctGRIwMahh0VcOs/FokMpEdAXVEtt7k/vQKyB/iL9JrFYeU9Oc1iKXDYx9pmUsQiQTIFoewj7MbcpBA8WQCmYmhyigY4iFPeSIkwCbf+8JwgRiziCT4oWwIrZrY0XdVP8LBIe1XOC+KrbUL0iMSOxA1dnAKGR+IkhgGFn22Ev+iKBNzlZGJVEWtbDivOdsyz4tyaiVHPuaqyd+qgfP4jNRT5nn1CXBetJRBYhqyNQ36LwlKqkgDvcKOXruwA8EiHykBiMKbVun1mliw+cxc039saBfoAHY0tZHFxl/8UGsgVBOH9O0om1X+RGLQJaQ0JEA88kTO2tmRCYLyKA4hBjsGNTYDgaM8mmJjx6C3+C02lEffZSAr9XCFkZIQre6VxRO3dMHfuRl7ZZAQQmo2QbugMM1HDeiEnfDOR5WXnAA9hKvbNcbfdWU9y6oIAqw+rrJ9Xvp8Xsa+7m0aIX2/Ls1Q2iFvLpFX31aNUxDZtG4C9rGD7c4eytM5vdUr93MLHfoL9rLNme2bpspFm8ynwNEBrywwXFOfnrX28Ok8JGhWPxHnVWPPg4s0chiU3nLumJvUqJCAofDw9FXbM8/d37sdzgXnDRYDYmSzQmjywbW+gmD+un1o8SE9W2MftkL/iQtgTiXHRSMH5INiIwdDdbYePvvMrAxUFgmQUo0NGFmApNiAfti9tfJe6Lo9laBmZlByNPeSTYdRdykfaBTkoxnZgQgQiaEh+CFaHGmy80ugk+oxv8xYvgM5p7dVNA35Yx/nkoduu6oF/kKLZFCCwkAbkV5bYEzDrPwyHuAsML9QctQxOV4ZCvzrlcbLczdMWbRZFg9/URjISrM+pVjap6XK0+UUlkycv0FazxoQL7KFsYgE6FAyB726oqfI9+5kSbCDPGE0621cAHmioyEBsrqv96WQMyLVgrVR1MknsiFQTSTDT9BA8F0N7pNZOGhZJNNaE+dFsbXXyXA6RGIHosbOHd0uwb5ZSdChUHHUDkclhoFFSgO/0moaoCj8A+VElfOKHMgB5d9+5ByCyBnVlL0baZAtFECmB2WeF+2F6mslR4ujaqigPBoyhvMiBufVSwy6hATYwVFsaAjUQusgBkrT/2ClijTQK+wYtMs8QqKzoNdrQweknXk2zyBb2dEQj19hgypCB9RjOtDRZAMhH2SOfRRba0eUBN0TQa3M5ouU/jqosXST8sJk03qKoqJ4yARB2cd9qrEZnBFNj/LIbo4qIBLnNbywA61DeY6cyZdpIGTISi+HsIOCSQ2skxAjY/yACyUuiIaLPiGE1FRCeRd08v29wjsfFcYWrm3YkVeOMsFIjb8YqWWw/Nzdq41nzsNrA1sCMZDqw0FF8V4bmr50/K1IDwdPTuwcOW0F/sIuRyQsFexjB5u89uDSq/zYi7a/Zoc6gUeapAO7K0YtQFY4xdSR12qnkO86Gl47AWsm3IEEqJ3BH4D1gIs0Lvnl9D9xOhg0MBFwovcf6Y1zoUjyHRjtSbV8cP359wdkEOAqCxnCKJEPwF+c8wOCKMy2t+5CDsgHuUHOMBH0ngCqDOsBBUaCoBZIRCZoL0gVIhrZp70a65eOzVLxF9aVDFYu//12F+r++tAeqLuUzzsPXId4CE0mCESA0A38hSrKTJAS8peH/INTQ7u0X8EVxLnkszgoFYJHzubrzSb56NinvWhWfhkPcBZUCiXHiZ6+/fJA9EoC01mrFPQc5UFWH3+3B4dgyKKoGFhkN8GG3KADmtwkUAyIDr/VzoIctA4OZw89BRa2VpLMd4YhPTJ548tNMo1EvuUli4EqDPL2VlllP6tWIp+0uonIHMlQC9QFJXx61lp9RzYIB22KlkWyZc/fplVcFlu+UY/TIRI7EDV25ELQY2Z+J6WhKcmWSUOgJKid5tUbxi78RY/Tahq4KPwDhYFbImWF8iMHnBRuEsqDbLHJAVNT3UDOizTIZOzArlrJpUDk0dDAqIvzQkTaeSE6nBeROJ1Mo3g+TVOlSLGhUign3Bv9wKXhU/9DkCrSyPHcoF2or2GElNdWrYPgL3QGMTij8gOvkGVH04SPYkAh5VE9KA/ykSWc/9SvEYNMoE6azsuup0069X8d1EC2+jRoQUTKPu5Tjc1g9NM3PUoIAaJG6Nf6VoDWYcTTlF8WRpND2MGQOMJ7mUbLSqOlTDCA4G9WfrEMEkJIDSYUFxSUZzoufiWnwWjbw9NX4SKEYVpORKn6+K++dK5QHf31ElegwemtcAk0PNzQwKVRs+NheiIH6ZBrT+GWbVFWUJQPnZAJEsNG0X84RJ4CFzz93FHNxzMQLv8TwODAxR5Z6U/UrJ5iwaCQMiiLPV/nOcxZq0w3+sMNqjc4N2Mv7Gn5SrAEucGWwo5BYr+7pq265xeDjnV/dh7aC6cYN6irT4FUC/TmFIwzz5yHpX0GyhQgfAypM3pjSJ/eD4ZfTby7O/5qrdnXO2NZNqhEPt8uzV4sDWiRZkmDQPRKAiXXF08+vtanQW/S3DnkljNzBMxlGZTgRPqOgJLr7dd/L9+JvxC1viRSdHA/ZFBS2lOaMvn3ozdomaMuqBE6svSiJQbhyDaFMks/RIJiwxdCsX2OS5AAujzygfGtRumU5H1vReTYhUz0bSeHZZQHfwMXRZnoR3uUCn8xfOmFgL/aM8xAzitrp//+jRSIGggJ6QiNH3zBoCHPK4skyTybp++b0C64QPqm8U8YpQr0I6RUe4MLJAumdRCpS1AD7ezYkVphAB6mlo9WO307dkhTpL31sHJ/J/DrIFpNn0bOcjL0cf/A4cdfw6ePpJ+/93i2DEoMhcEwFdSJ/IB+Z7joDHhlwbLNmajd84OvVBMRQgg5T4guKMZueasyhOm4GJFxWdJv8LWmjrwWl239Bbgq47/62nPL0TNW6zdcjxEp/5rp00mx4+VvpQUJyx7CWXd+vjGucBCdvPDLTNo1MVpX8ujRc79cU/ETdU8HzBp561eetJzAMoa9BfsJTg4MC9S078tfPPWftephLygYzBcUWzOOl2w6jLJJgwaRMHCT46Lf+HKTXmLS6zZITDN9/KNXMGw4O5ps2fO36U2QagTMSlhLaDj5PtW4D9frTd5ABCgXYTLoA3pcIDa6QeYIIh+tXSBSlE17hQkFwyE4UTIYONJk1AhErySGSsnH1xJkIr2yFo/M6jF2PjLRNFAPNETdO48sv7RfUR1U0CAEKTqIXf+sUnrIwYLyGzKXHVNvHBuEI4XfqXk9GdSQFdEXSUM+m2rvdRL0yD545Ixyri2HzuBv3y4XDAuoqWfOw9JxDVwUZSLPqwc5q3vnkX4vKPO88imuQUrA3LJBIYdf9B2tT2GTTyZlEwBcv1CG7s/O6/DYR8PfXq53rgIkjFIF+nyQyba37sK1FWoPEaHwgyd9hXKqh73IilzfsakMSgxfRZZID9MATqHunUd+hSjw66Ch1cyKUSZzx9wEFcXIgzpibEQroLOj16uHdRiELJ86hgW0oLzWaNug9JavDU1fM+GOEGpECCE1nhBdUDDh7m4YZHEhwUVFjToPLgOG24HSPpBgXMYVUb/BuPF5wSsNaUQa7M4I46f68gKM69+UhVv0m88rooa8SslnntK7gPWM6yVMENQXG+xRg1mvN7UlKfHKyz/6q7tPkCdcMuwYJvuFzOveBTDumbzs4emrUNPtmefMtqD+WRmsNFRHzs4Fct4RYvTiwlaeKVIGHVs6/lY0mcH+8I+8l1+5aqaBkn/8eD85z23Z5syJ8zdIk1f2hcAFaH4jMZDVMsyelaF95VM7aXzLv9rz7fIQiF6VyaKxN2PMgYEou+SAVxaYlyExt7LBHfJpqkrR+V/rMhDMlZIduUzMpq0stp8RwOxFSBdC/kTv9JZGhYrCD4Gc19zBDe0YLNBq/NU6lLbJoxJcv0Z5X++EDGcs3wFdhdIaXjYuk4qTKoYIKDzUHv0IJVfu/dXzMaYFNTYGQmjXwdDAVQw+J4ZE1BFjo3x0XBFDt8Gw0V/90YKGiw4c46dvv9zsovtBPvY3r9pACCE1j9BdUDD5/l64wOOiIu3giCG/hwYPUAb9I8vWvnzTsXziv/owSjxzHjZv+JWa4kJwoYKDAe8C+7hIy9pJh2HNjuOyynLVIg3pI+nJLlCu+mVWFieCS4YSwsAaceFrOSEAl+MZ72ocYwd2nT26z4G3h2a+M2xUf+M8LvmsDAYQ9vWTijVQZYOs5IZruZoisnz9s1LIAC2zbZlKW4RRzcwZwt9Aq0G8U0dee3/vdtLkHaJbTygQAZb5QRqfHD6Tp+6d5/DpC2KkwymbVf98uzwEqFdlgp4FW1B+7hU6D5HC0ULO+m5rdr0MMT5XtcnOV7pbz0uVeYPlwSBMYBa4T8wjj3SZ/Oih1Cs98iaU/EkgVnuFisIPgZxXPzUgjBg6lLaph73XAijnwuduhq7K+0TwggwLL/ungqQKgWCIgDJjxID+r3t1EDoChhH1sI4KuogHex0Mjf4TF+CiCcljbEQrIH8MeiHcrqpcPly9G5qDPhjgRUfqTIV2OkIIqTjK5YJioBzVvzN2DPNR7/a+pabfEKMeKzcwmOQ9TrnUh0QO2T4/0yKdtw6mB4blp7TqS7/RbAwNnvRVmq/vBGjId9he/2wjXAtZIym3dXtOLN2UCf9NM+ulvbjjqNGalCdtklqGHSmfhMAIQD5wev0UKRCk2F8f2mPC3d1QYHnTVzrDBvqdf98VXgrMBe1CK6uJC6rhkax8CGZ+zhwBYA3ApoHM5YK9QBYSkeaWRbHlhL0rWjaQMYEQVIbD314OUSAe4n2oX8f3vettoPlgsqCogQhQqqXBs0J6FEANlM6OI1nqnhcUGPno/RxoJiwnNCsaF4e059vlIXC98gMkoHU6ZAKd3/bWXfItazkySLaZ7uZIsUjzTsrZ0EwQHfopNEQWrDxAYoaGk+fSS9iAPCTnzeqRxfZZJFmX7SYXVPoe8smYnNmL0UY5oAMylLM3K1oUpVHmeWUXMDvzhrogsbp3HoPkDchbgfpZPADFsHi/XIJ9SE/Ov8U+egF0FQ4eHCEE5T2sQKg4qX7+/QHkDIXHiAERySHXUGWfulTOiwII+ToYLGgCCAq1gOQxNmpXSenAhxeDYRNeR3rKIuXp+iDvMtoSKUOfs4E0f7XiOh0hhFQo5XJBgTYfVQ1XMLie9Z+4ACMvTiptDolcgAEjteHGM4Zps78aRnxWHwXDhQG2oH6yHy6TKF5OYYmfp0PyqaBcmkJee5Qd7+ugOIV+Fi4utDgFMjScApWFyRLgiq9g/GDljdawTMeVC0JIkNuUC+eqSeSzMrlMoqFFcN1F5JiZvzjzMhOlrc+LImJAbR58dyV2YLrpL/DSOLjvH9/o7SqUE8WWOqk51QESeIZoVsTol8dEMilz6VqUKUCpltAZvT2tT++HuRl7paMiGfvhOvy9r/elMiiB26kUwHs7JnANLJNA9MoPzeolwsH7YOUvK8cA+YxRWt4S9C99V8Iwgl9BpLL1ZU3RTCiA97iCnD4gvdnyo28IOVagsfy8niAPTZi3Qd8uKDYqArXxOcigLqgR6gUfQI3yilSukzzcWxH8EGIxSAP7+JX0USMgCp8Ecl5ZO/0dK5TcMDjL+a6BdwG5vtTLcy9YZlzqv7yRh7+ZZ/PQQfQJMr0v1uoVzD8VLVV9JwKGKktdQs/Szo6dYDuamZCvg6FhqKO56asyEDh6JWSFcV6/vJOUoeyzet3A9UIudCyvIIQQUh2xq/+Wg8n39+rz0uewPtVw+MC1Sm+aHz6dh7EYO7i0f/RYXxkpgaX+2tD0Z2ZlTJyvfCFQ2hlbD5+VpcIhvb9qBhbJPZOXwXQLYc6nz+pPf+j6IW8uQXk+Wb8fZUOx5QRU/XKsibHK/fi+L38BI0beTEVKaf9hXyswIuWTDcPSQdoplm7ORA44BcSF+KBWfMVZ8HM4rjB3fM7O0sAFT96j1YPSvv9IbziTyzZnoiRoLHm9RGV9rukPswMJUEFcaA3m9aRhPbcdPocqpD04U3pTyARZYd9/25UfQ9U0tcGpDTe5ZSFR/u7PzkPdUxKis/NLZHuZdVKuhzF7dB8/5Q88Q9glEA7sQghZ+qUIQj6akxyIAKXOQNXnrVM8HGQljR6D9ppBa+KHg9NbIbE8L7I1LOx021Ut0PtQ+D6d08rUQLPymwlcr/yAur+/fAfykWJBjKw1xKvXQNRL60paArkkKUBNEYmKXz3uk35dmmlCQBq9vWhGfgxQ3gVLb3PBXTMDqFqHxz7q20X5vA0yxynQWOoxX2gjHtoFRdK3pn75TQQROfzt5e2a1kEtNCWR50K7w3fCX72STLq3pxxYNLHL8shlkEMWRTkJ5Lyydlof0UquV+97r7sUAnnw3ZVoaxxauikTDqSsppriQrTzdhrzsdR//ARKrp0Xqj6qf2dovpZAO6+fOwgG/a84qaJX4oKI3DAcQSZyWIC3pq8y4kcN6AS5aVVAenmonARyHQwEFEmvxmrsebT7Jlof19pIjqVVDVxi0BxqwPu0VpYT1fz48X4GyUgZokWwwURBjGYIobKlDZ6EEFL1Ke9TUKBcwLzzUcMOxllceLQNF04MwTC8tr11l/kChisTzH0Myslx0TI9ImENI9J80QojPquPi+Ky529DYXCxwaUdF4/ubRoZSgLbAtdIGMdIoN3glGtRyiuNRD7CMhs02inW7VbWe8ClHfsLn7s52Mq+cOeVMEfKnI6La6TWENomL5wo2NSR16IuqCZKAisQAkEbIQZp9PdugZyiCUNHBjXQoIvG3gxLCPvIBFY72hFtXf5vxpSJoWo4r1Qb86llIccO7IoGkr/CX1QTxUZ8UEaVJPAMsb9mwh1oYtgfkA+2ZvUTIZ/3z39gQ2blX4BSZ1A72VIwfdBwPtdBMTB+cFf4unBX8CsEcRazcNARkDN2Aplx4FP5DQSlV35Y6n3tGdJAJrLWUrzqYS8QAs61PVNxYNBnIWeD/FFfCBOZQLBIgx20ms+BSA8ELp9i4SfweWSkT2B6piQoJURlIUYE8Vv1WCnIEQ8Di5QPFAPn2jJpiP6HsPXRu1FmObdCUxKMpfgJ4vFzVNysJJAAhhSkkQMLYtC+MkFooig/ZZ5X1g5CkKMulAQ1lfLXkEqVVjdRZtK0XgKq5v+lQXle7ScQndQf7bwT7u4m+5FMgPMaJGbGrP8VJFWUQS5jhlIhW7QmXFwoCf7iqDbmw5PR1xHDkfzsZznRdMnPdTAQDGpsBs2Bs2ha3aFZKi6FaCYc8t/vKoXcQgeaQ9sw5kPgKK2h80qkDKHGctzDBrsI6dFe+m5LCCHVDovH41F3Cal4Rs9YDSth3auD/NhnpJrSY+x8OEKZ7wxTw9UEy51TYdKFMAMiLMin5R7d2jaEVDpyZhD8Ovo5hBBCKoIwPAUlJEAOepeSgrlP/7PmAZsVrhRsVjVMCKkOjPtwffKw9wzLKLzvnT3OgZoQQkgFQReURALYNz3Gzu805uPcQkcI39UgVZnBk75C494zeVnShWtpEEKqPnIZvInzN/R9+YvRM1Zj6/DYR8s2Z6a3bVSh77AQQgipzdAFJREiw/t27mtlLQ1Fqh3ZBSVo3KZ1E8xraRBCqjjdWjeUb2zKd6GxIXLswK6VNTWdEEJIbYDvghJCCCGEEEIIiRB8CkoIIYQQQgghJELQBSWEEEIIIYQQEiHoghJCCCGEEEIIiRBBvAtquXMq/gb7/Tr5eTE1oCMpLqp7m0bDe7fTL04jT2Ggad2E9LaN/nBDe8NXm+UXJkcN6DT5/l5qlA75tb3Zo/uUZ/EbmYkaOI8s+aDuLR/q11GNCgYUO71No/KUSorU/5cMpXCCqn6wX0f0L/8qiM/WBO2bpvbtkvbELV20pXSCbXc/XSOQxiqNg6dypy/b/vXPmVphkM8d3S7hMpUVQYD67HOMAuamCWo0868n1a6vRYAQhrhAKLPDhnBedOQR01YsHX+rGq5uhKx+gQ+58hRyXw8a4sbL0ibc3U0Nn6eChlxCCCERI0JPQWG+45Kg35LjopdtzsSl4vXPNqqJzmNIeeRs/ryMfQNeWWBOGRlwvdSXBzEo+cPTVw2e9JVMEDilXWhJxDC0JrbtR5R1IPtPXABLUU3kJYztHgKLNh66etwnE+dvOHw67/7e7WD/4S/2n5mV0eGxj3BUTUcqA71iYIOqwNRG05h1w5Cy0kczEnnuemsphg41UPsIfMiVN2i0DUF0K4yBGPEMKQkhhFR3IuSCdmxWd+3Egfot851hrw1Nx6EJ8zYYri6GlJ45D48d2BXxsPA+XL1bpokk4wcry9NrW87MEbNH94FTDVMSLqWaqIox+f5ekFt4nw/UDAytie3A20NhJMEqeuPLTWoiL5XY7vAwh7y5BO4KNB895f1HeqNB8Rf78EVRVBxdv+ekmppEHL1iYNv21l0Ln7tZ6oZhjDKkrPTRjJQTDq3BEviQOyi9pT4Zhrt1rw6SKeHGq4kIIYTUCCrzXdCnb78cV5fcQsd3O4+rUaUw4e5u0m57ee4GGVO5wP74+PF+2JmycAvvzlZ3Lm6QBL8OO2U6dRFr95fm/oB+8drQdPMMNFjAKC2OVtnbH7WT/pc3H5zeCjsZu33MPNRT1UYzQiJM4ENut9YNF429WT4OnbZkqxpLCCGk+lPJyxGlJESre2UBuy0pLmr7kXNhnIJouXNqaW92lQkszj6d07Azfdl2GQPglgx/e3nagzNlztgZPOkrzVdBjJyFe8/kZdjXnoGgRkiWPOw9+asOj31Ufu8COehP0WPsfGy43vd9+Qt5FpTN/1RAHJWFKaev5b92iMdmOAV+gpTanEYcxU80qaIiBltERqLA8izmyZBlkhIfqB76bPfwgurD3mrfNLW0dz6fuKUL+gLSaAZcgO0LfdAn0CtnaYRL+DiEfPBbKIDMCiVB5tg09cBZzFYmctZ+Yu4aODXiITFZQk1dyyx2RYBGUffKovyjmb4pIT3IsMyskEATNTaDMJEhIhGDEUzmOe7D9dqhoNQGmSClvmVxLrM2+i+PxHBqcwINnA45IJn+ROgR2inwF1mZpaTXSSTOLihRD5SCrB0KJoNQLWyldT0pVXRV7MujMh4EK1VQplb7L4xGCKcOO4EPufBX77u+HXbmrdsnYwghhNQAKtMFxWVv6+Gz2KmTECNj/NO9jfI+3podZTwyjRjdWyvlWbdHfeiB6nQa8/GM5Tvap6XKN/cQOS9jnzaDCJHp3lcKB6W3xH6rxinYhzUw4JUFSzYd7telGSJxKPNsHjxVP8ZWaBw+ndfnpc+PnMmXZcspLHlmVkZpZ4HVgqPwghaNvVlbMSIEyqwd4nMLHR9/t0cGJXPW7sXfQd1b4i+k2n/iAvwkOS5alhwVeXj6KoNdBUVCgZEbEiClGhsw8slVYmxALoSh3cPO4p8UK7lvF8XR9QlaBDXFzuffH5AxoMz2hcTumbxs3e4TUv2gpVBO8+tYeszCh5zNb8MGKPylm5Q3aTs0U3oHOsKyzZnoGsgfBjp+iFIdOZuPBNAZ9QdC4ETIGXVBAvwKOygMHAZDmYe8uaRZ/UQkSEmIhnAC1JmwI+8IJMUGpH7lGc3geKApt2eek2KB5NGU/udmBzjOYPiam7EX2SJZcrzSHUJQGwkaF6cbnN4KuUlthHOrHgusPIZTozWRwKB7EtnicOlfG5qu3biBt4kegdJC1FJKyApS0nuhKBIUQyoYNqji07PWqscCxk/XwyCPyKZ1E7CPHWzeXxirBu1FOXH5MHvIGgF2xooYByqCoIbcq9s1xl+UWQYJIYTUACrNBcW1dsS0FXA/YIwaFocsjQ5pqfibW1TGXerA8cx5GJsaCJ6OzZTy5BU5ZPDFOcrkybEDuy4df6v25p6cQSRNQ0R2a90QO3CutH05Ge/jx/vNHXMTIvF32fO3IQZmAf6GEdj3MMK2vXWXLJucUOrzLLBRYLWU3/8EZdbuDze0x9+lF67VASMYcpNvW0GqsCxhLWklXzPhDpQNJdQb3JA8zCnkjwTY1NgAgOGF+sLyxv5w712DMjG0e9iR9ZJma2nIo/q+4L99keeEeRuS4qK0toCWwl6HbMfM/E6mMYNDSABDVst2y6QhED6y1TuKAQofWaF3yLOvnThQdg04jegmiEG8nJ6qTWRFu+BEGB/Q4sgWaZASmoB8DK+QyVfNZbYIBqgzYQTZwspHdSDhkX0UlS6T8oxmH6zcib+aWCA6yB8xP+475T3ugwDHGTTlOw9ch2yRAL5caGojgYOEXyErTf7oZZralFke86nRmlAGg+4Bn/4nGPPBd6gOIuWAjEyQFeJHTlshE+AUKBL0UEpSljOtbqI8Gjh+uh4GeUTCw8Q+drBhB+eFKqJqqLKsGvQW5URpX5r7AxL4JMDOWBHjQHgJYciVFgLkI4OEEEJqABFyQWGcyWk/2jbglQXLNmfi8v/84CvVRNWcnELFmjS8vCeNj73Hs2XQgLzxbHDCpWsKS0IGw4jePsMZYYiYzxJG/zOQ2uEQdACaIBODaUu2wtSQM68A3FGUc9KwnjIIUCppcBsmof3umrbqnl/u8c6C1rYWj8xCfXFG2HZVaomRZvXKNoVhUKp7Xvy07+ffH5B11LcF0ksTVhO+HkTiEFoHhqwapRP++14LUiMQ4aM8+t4hu8a9110qg0D69tsyz8ngv5crjhasZL0eSk2Q9qvGHd0uUfe8BK4zIaNXIWzdn503ZeEWnHTcoK7l7DWBo39iBinlzBxR2meiAh9n0Nz6XhCC2mhAFNqvIJP7eisNLedSBlIeeerB6a30aaAtEPLhM3lqWIjsghKf/ieEg0icwtApkCFOIdXgv9/uwl8ohtZkmp4Ei5+uZ0aeHfKRVZZIqeJC6fNBaFCd0U9hytOgIVNdhlxCCCGRJEIuKK6CsAb026D0ljAa1ky4Q38trNbMHXOTZ87D8Ao+XL173Ifrh7+9vEcpX0XTgA2x7a271k4cCLMDvxo9Y/XgSV91eOwj9XC40Vs8oGOzuureeeSMSuyggTSzLGQCrJ30NrVXK5dtUZ6I3nZVC/zFD2GpJMdFv/HlJvxc22QamJjKD85jqF1pwNjS6yE2mHELn7tZb9tVBcp8Jw0YquynfeW0YViiejFik/dNfK4HJiPbex/W6ZEd9siZCyzsQIRv1jdgfiVMe7yM9sW4YcgZSoUWhFbozWW9ux6UzoSMQYX6dE4bO7Drsudv01v/FYf02x+evkq+yPf6Zxv9Ow+BjzPyvoBGCGqjcX3HpuqelyE9W+Ov9IUCKc+Oo0pL9fW+d60BHxuetl7IT89aK/XEcDpthrO+2NikAsi/8g6O4V5PaNcjP13PjDx7p+b1ZFADioS/PpuyPJ2xnONA+akuQy4hhJBIEk4XVH+nExsubOoB71UQBod+g8MGSyIoP0c+Hmnqd4JiJNl6+ILywHSAz9n92Xn3TF42cf4G+aCmzNLCCIMdOeCVBfjVlIVblmw63LRepVUQtjvMBZRZP2WuPARSO+ltzj//eGRexj4Y9NKKysovxl8YTPitfkMaxIeG+QsBk+/vFZTdaWj3sCPr7t9ZkqZ8gK8dAunXQW4GScp8/CDni+qRfdZ/8cKFb6/Vu4ZZaeZyuHQGfVk/miGoHvBiUKGl42+dcHc3g+nvn/KMZvDEpo68Fl0V1US9npmV0eKRWX29yzupKUyENs6ErDbAIA3DUF9meQI5BcCQheECf/WXGyBnOGfsOqEvNjbzPUHDg7igLknlwTzmwJHGXz89q/ydsTwN6gcIX99ZsKkHvJR/yIW24G/FDbmEEEIiT2UuRxQUsK7kagSGu92lsdW70FHPS5VlDCqIr39WnqtollZ/78IqsIdgHS587mbPnIdxrTU8VTCwfs9J+fnH+3u3mz26z7pXB+XMHAFzVj0ccXCNXzT25r/+vgf2n/rPWj8WbSAEWDsIEEKDFYX0cl0iw6OP9LaN5Fu7hg3iVVNEFkO7+0f6q/AWZDAQfv0rxTjz7zLBZMdf6b0HDlrBIEO5+ZkOp02L1ZBaEVSNQkb2YgPZ+Yp34b9rVzWdMRDsaCZbQS9zeKHb3roLfeq1oemD0lvCe1m2OXPE+bccDZRznAlBbYB8xqihDwZSngD9DfnuPZobY6+2hK/GqAGdDGWWG1wgNYV3YSR1L7JIt0oPHGn89dOzwtUZQ2vQSkSu0IZWlkH/hDDkEkIIiTzhdEEN1zP9Zb78vPHlJlyhcRHSTP9075KSPi11WBVIDCOm4m5p4xQwemD5yQlmsCfgROGyB3sI1qF2i1eay6WhvZnz/iO9cfmXVSun41ce4DBDYigJigQD8cU5pa6NEQiB1076nEi/dHMmRKpNtJMmEfwQw69e934CxPDcIzIY2l0ibSOUSgb1SH+1XdM6MhgIUB5kCPmbTWoJKm7oC2UiU5o/WZn24MwOj31k8BYk0sfbbrJ61ScSFf+sHr0J1TSUDZqAjgb5l9a1w6UzcFb1o1l4fVfzaCaLDdUytwUqIv3VK1o2kDE9xs6X01bxc3SWuWNu2jJpCILwQr3HjYQ8zoSgNhqGtZFWbD2Cv9IxCKQ87ZooKQ0LleGMljun6lfWle8P41oDlZiyaLNWJHl1MJdw8KSvUHj5NqY8r/7NUhCut4X9IIWw5dAZGdRA6+OvT8UOV2csT4P6AfLXdxZs6oFwAMWQU4rkGumS8A65hBBCIk/1eAoKW3yK94uao/r/slYEbBc4mbDUYVXozRdcR+Vyi4PSf7lihRf4IQ++uxI7sKL0FoN8o0YDF8hApkgZfhWxlQn98MKdV8KkC8t03EBqBzMap5u/bh9saPl9fw00IqxV/a/Q1lAGxYL3WpmRpLR2l8vhTJi3wSAu6K3ZXw2E5wcr8p84f4PZC4UTherjaFC3eORyQWhQ/bMXZI7uk5IQLQ1TA6gghC/7lxrlFT6qiZ0Al7IsD3IBm/v+8Y2+d8sHfZC/DPqkSumMGZ+jGZDjFeqr9wRQclREKfmFdxwwsOiVzfyY1EwI40wIaqOBOmoNJ+WPHf2CSf7Lc9tVLaDkczP26k8tXY4mqUaPCyWBSkBK2i0GeXVA79N7KchqXsY+nFfeIpS1gz6by1mhSCHgvAapok3Ryj5nqIarM5anQSsF9IX+ExdI/Ze3aSRhH3IJIYREGIvH41F3y0K+4CHvPhrA9UC/RIQeXCHumbwMvwrkMYLPU8h7w8Cw5iHAdXTIm0twfcK+/NXh03m4mmIHF+y5Y25SEpWOPJ2fW7ZyPSEYdvL1M8nWw2flGQ2n6PDYR7AhYPdIU3LppkwE8Vv8nT26j7x84gIJvwKRfbukSWugz0ufa/YldpZsOgwLKTkuGrUorWBSpLjK+nxTDt4LjBjpqGjnlRUxZGiIhDT0zTRtydaHp69CddZMuMPnjXl5CiTwOdkY+cB6CLx2MK3kA+2Fz92sN8JgZskVL6VgZSb4uV74ZbajRNZXk4kfgmp3iVZ+TSDIAX/RTB8/3k9fIym3UQM6+fchodsjp61ATZFhvy7NkI9WdxRs0r099XkG0r6wxeVaUyg/8oTTAoffXDw9mvClxqIAcAnwNwThG7QLmJvDPFZIqWoSwL6svrZcs882DURnzATYLgHWF8iUqI4MSqRWAPNophUb+1L3svNLtKB+hWroxoBXFmBHNqXWLlNHXqv38TQC6YmlDdQhqI2UJNIgfzQcYmTxtCoHODLIUyOfwemt8Be/gvQgim1v3YWjhiEOyBF47MCucuFl7eogz4KccRZ9MYDhFNJBlT8xyEHDcN5Aul7fl7+A0Pp0TuuQliq1Szsv5AOpyqohWM7OGEhhQm5QJC5tqFf3TPjsnj7xeQrtam7Qf0nYh1xCCCGRJOinoBjlzZu8ToQLQ+a4/OBiue7VQWYvF5eZZc/fdn/vdkgjE6MksB5gZPixNYMFV32tMNhgJ8GYwGXVcApcI1FOWDC42s1YvqNDs1R4U7js4ZA2nWxkn/byvUek+XHfKRhGuFgiBtkiBhYSLJItk4ZIu83/lDAYH/pSaZtcjqX8wJZFwSBP/9NxkcBQALnhUFC1kx8IRTsazCCYHRCsFKMULOQf3vYtjQDbXYJIlAoJoAAyPQwj6AP0szTDzj/4FZx/2NOwrlBr1B0WZ/u0VJwFJngIeaL7oPAoIew25Ca/Te+/eJrwNa3u3qYR/JwICF8ipQrJSwlgBwJB9Q3GqIFK1Bkzmv7Izc9oJouNCmIEk7on/Q1UBPH6KqPJMLagKdGnpGKgXdC4Pv1PUJ5xJgS1kbw+tAcqAuFjS6ubCLXRqhxgeeSpUTXZ+nBIpCjkUTOT7lU+w6NNx0UJUU6Uduvhs/g5yi+lpJe8PAWKJ0+B/oWCqcfCxxO3dEE7wtPDKeBJIkarmpQqqoarGCQQgc4oTx1Cg/oZ6sOF4RSoqbya++zyYR9yCSGERJIgnoISUnHIhzAwKfQGIiGk2mF+PkkIIYQQoqfarIhLajZTFikz9/gCDyGEEEIIITUbuqCkMvlw9e4eY+enPTgzY9cJwxo/hBBCCCGEkJoHXVBSmdRJiIHzecT7hUCuFUEIIYQQQkiNh++CEkIIIYQQQgiJEHwKSgghhBBCCCEkQtAFJYQQQgghhBASIeiCEkIIIYQQQgiJEHRBCSGEEEIIIYRECLqghBBCCCGEEEIiBF1QQgghhBBCCCERgi4oIYQQQgghhJAIQReUEEIIIYQQQkiEoAtKCCGEEEIIISRC0AUlhBBCCCGEEBIh6IISQgghhBBCCIkQdEEJIYQQQgghhEQIuqCEEEIIIYQQQiIEXVBCCCGEEEIIIRGCLighhBBCCCGEkAhBF5QQQgghhBBCSISgC0oIIYQQQgghJELQBSWEEEIIIYQQEiHoghJCCCGEEEIIiRB0QQkhhBBCCCGERAi6oIQQQgghhBBCIgRdUEIIIYQQQgghEYIuKCGEEEIIIYSQCEEXlJAg8Hg86h4hhBBCCCEkeCw0qQkJijffeusvL79UJzZKWCxqFKmhlETFrVq1qlmzZmqYEEIIIYSUG7qghATHM6MffX32EvHHSaIgT40iNQ+rVRQXijfu37NrZ6s2bdVIQgghhBBSbuiCEhIcY0f/3ytrDol/fCFy3GoUqXnYrKIwX9yavHfXjpZt2qiRhBBCCCGk3NAFJSQ4xj726Csr9og3FovcbDWK1DysNlGYJ4Y03bt7R8vWdEEJIYQQQsIGlyMihFiELUZExwm7FbvlxWIX0THCyhdlCSGEEEKID+iCElLLsQiPU2TvFns2iDN5wqVEhAp+6RYlJ8XeXaLAUZ6MCCGEEEJITYUuKCG1G6tdFJ8WCwaLUT3Ff5eLs07lWWhoWKzCky+OzBB/HCq2nhDuKDqhhBBCCCHEAF1QQmozVmEtFsV7xIZdos/dYulCcWiviIpWD4aGxS6snIhLCCGEEEJ8QxeUkFqM1S4KjojNn4o9d4pftxcJn4ldR8XpaGHzKNNobTEiLl7YY0VcoohPEnHel0WVBcwswhqtHorVDtkElzYjhBBCCCFlQReUkFqMNUbknhRb54omHUXz60RLjzi0URw7LuxxwnNS/DxNjHpIrP2LePRycU+aePI58UOmSEkS7nNi//vijw+JNa+Jp9LF3U3F46PEqr0iJZ5eKCGEEEII8Q9dUEJqLTYRdVZkbxbrz4nLe4iojuKKjmLPNnFov4iJFp4SkbdD7PxIvLNB9LpXDPujsK0QS6aKn86IaI/I3yd2fSSmfie6DBb3PS6St4plk8S64yLapuZNCCGEEEKIL+iCElJbsdhF4SFxYJs4e7Xo01lYEsSvegvHJrF/h8ixCKvVOzwUiBa/Fbc8KgY9KwbfIPK3iK+WCkessOFYgWh2h/j1o2Lw02LwAGHfJ774XBRHybwJIYQQQgjxCV1QQmor9hhxYo/igna4T3RpLOJixKW3i1a54sTP4kCJsFmE2yasTcXdg4TFIU4Xi653iKYJYscScQZ+JoaO+mLIQBFnFaeKRcebRJvmYscX4hRXwSWEEEIIIf6gC0pI7cQi7A5xYpfYtV40LBTfLRI/LBbbjinL4WZuV6bjKlNqY4TlUhFXICwe4XGJmCQRXyRcx0S2VXmCKtqJuGJhdSuHohNEgku4M0UWhxRCCCGEEOIP2ouE1EosUcK9VWTuFjsc4sfx4qU7xct3irH3iZ9PiiOHxJ7NwhMtLHAvC4TTO0pYhHA7hCtKWBNEjEco6w7hkEVdf8jtFE6bsCZ5DxFCCCGEEFIqdEEJqZVExYhty8S6LaL1X8T80+J/x5Vt7hnx/seie7E4tErsjhG2IuHZKI7C88RQYRVnD4hzaaJBX3GpQ3FHxY/iWLHAvzabyDoszqaI1FtERwcXxSWEEEIIIX6gC0pILcQq7OfE3o0i3ynSewpHifC4lc1VLFKuEK0vEc59YvsmER0tPMXiL2NFkUPUc4ov/iGO7BJX9hROh7B43/h8a7w4myXqC7F8hvh5rehxvXA6vfkTQgghhBDiG7qghNQ+rFEi9wexZb3Iryc6pyt+o8fj3VzCdZFo+yvh3CkW/0ucrSPEZeKWLPHkFeKmhmJNfXHTC+KmtqLYITxRQnQSA4rFq9eLPnXEgnxx3Svi9stEiUO4i4U7V7jc6rkIIYQQQgjRYfHA7iSEBMzYxx59ZcUe8cZikZutRlU7LFbhOin27xTFyaLVlSK2+JfZs5YoUbBPHD4iinJE/vfirxni1VdF9iFRXCDqdhYtWovUOFF0ROx6X/xpuXhpgnCcEQU5ok47cXF7UT9GFBeJokyx7YRo00UkxwtRbR1Rq00U5okhTffu3tGydRs1khBCCCGElBs+BSWk9uFxC2sj0b6fuKKbiCu64O1NT4lIaCW63CSuvEJEOZRViJJ+Ja69W/x6uOjaWSTbhMOlrE2k3Lpyi4ROouedyqGrrhSpUaLEqXiwCW3FNb0VT7X6+p+EEEIIIaTC4FNQQoJj7Oj/e2XNIfGPL0ROzXWxrFbhPCi+f1v8eZ34+yeiZYqweRfBBRarcJ8Q26eJx5eIKQtE2zre77J4D9UkbFZRmC9uTd67a0fLNnwKSgghhBASNuiCEhIcz4x+9PXZS8QfJ4mCPDWq5mGxC/dxsXuR+ORAw1c+Plm8XxTnn3dBbcJ9TmQuFrM3iqHjRZPEmumCwgkvLhRv3L9n185WbdqqkYQQQgghpNzQBSUkON58662/vPxSndgodVXYmgmGBavbEuWIT27d54n9X71pyT9hs2nz9i3CGi3iopTnhO6aPICURMWtWrWqWbNmapgQQgghhJQbuqCEBAH6i6Ume54X4BJi3urMmct23ty9xe9vbJUYrcYTQgghhBASMlyOiJAgqD3+Jzh6On/+6j3wuhetP7D/6Dk1lhBCCCGEkHJAF5QQ4oOc/JI1W09m5TuwX1Ti+vbnEyeyCuUhQgghhBBCQoYuaPgJbGoz5z+TKs2xc4WLN2TKh742m2XFluP7j9fc5ZcIIYQQQkik4LugFYHz8JqPvvjf56vPxkfb1KjzuBzFCU06XDf4ibu7J6hRhFQ18godC77PnL54V0yUqsGFJa7BvS7+ba8W9VNiZQypJeASYbGIQ6fy1u04fec1LWrV69CEEEIIqQjoglYERRumjnjqkf8uV4NGopvfO3XDv4fXV4OEVDXW7zo9fdHOPcdyo2zWKLvV4XI7nO6L6sbf16d1vyuaqIlIbcGTV1Cy5MejX35/dNyQjs0bJtlsVnqhhBBCCAkZ25///Gd1l4QNj7MwzxXliGnxq86d2ndoX8+1O/Osu9GlV1/d85orLmvR9bq+fW7o26WZXU2tzMn9xZy7IEBIpbBp39nN+881qBOXEh+VV+RsUje+QUqs0+VpWj++fbMUq5UqWltwu91wNrcdPPfl+iPHzhV63O7Ol6TYrFZlYS56oYQQQggJCT4FDT9y3pqOVePr3fTq2T7PfTN1XO80+WELz6kdGfsLopKbt29TN8FmLTx14MjhI7kxDRq2aNuUE3RJpZJf5Nx3PPfo2cJou7WoxPWPL7aP/HXb1MToYoe7fnJMy4uS6iTw8yy1AlwdPB53UVHxp2sPz1p5yG6z1omPeuGu9mkNk6OioqxwRAkhhBBCgoc2RPi50P8s8bhzixRH31GUm61+1yJv34HPnuvZvetVt/512eFCIbIz3n5ocNdePX//3Jx9MoWC0+V2Ol3K31q2qfUnlURCrL1Ti9SbrmjSu3PjG391EfT5uk6NsfW7oskVrevR/6w9YNyyCs/PB85t2pflHdgs+cWur386nldQLDxuZVQjhBBCCAkePgWtaOCCLn26/qA3zl0/5rNJY27r2MgbW3xm/8IxLX/7gej/3tF/X7bghT89+49dV90xYcr8+1ujRUBBsfPwybzCEpfiz9aS+W5SEy2iXbM6cdF2gytPKgXo4W9fWTHjiV4NuApRLQOjkNsFSj5Ytv+L749ZLFbZIxNirC/c1f6Si+rY7HwQSgghhJBQoAta0fh2QYUoLDg1+9GGIz5Kf2RIg0VrFkU3vP/Pf3/3rsuFKCp2LPzhiEV4vt168tjZIjRPrXLFUN9m9eP/75a2LRone6c00xGtTOiC1lrcbrfwuDbsPPG/NZlbD+dF21VvE73yN1c17H9VWsO6iRarjT2UEEIIIcHCe9iVRVx8vYGPv3h18t6P/v3F/uQ7//B/oxX/U3jcxQ7ntz+fnLfm8N7j+TmFztxCp/xbszdZx7wiZ36Rc+uh7Ky8ItjAvD9CSKWgPAJ1uz1uZ8aus/tPFNhtF/iZK7edOZldyLm4hBBCCAkNuqCVhseaGhdzOCr7LPY3ZDlPlyjvQCpvQrpdV1+anJpgqxNnrZdoU7YEa2pN31DHOvFWm9WCzenyFBUVu0pKFCOYNi4hEUfpdx73T3vO7sjMyynC0PSLC+ryiGNZju93nTl+tsCiJGQPJYQQQkhwcCJuRVPKRFy3Q+z+5J57hnzouLO/bfGP5xLb/37yO+PubGsrzsorOpuVvfXA2XO5BY4Sh8vt8pqD3v9qJrBuPbBlc4rEtwfggYqiEvdzA1tcdWlDe3Sc3W7nTL9KhBNxayEYcNxut9NRsmj94Yydp3Lyi/OKPVlFFvRN9MWGCS6r1d7qoqQBV6W1u7iesNj4RighhBBCgoIuaEVTigtaeGDTy7f+6tUDzV/69sP202e99PaM47eM/Nt7fxnWyJGVlZefV5CXW1RYUFxc7HQ5PW6ljbwuaM10xmDwCo/zeLZ7xo9RdqsocrifvqXpVe0aRccmREdH0wWtROiC1kJwUXC5XMXFRZv3nDx+6lxhfvbWo86Nx+1RVhFlEzdeUpSSnJScnNzhkkZNG9WxexclYiclhBBCSODQBa1o4IJ+9UTibW8V9n78kynP/OYyxQV1Zx36bvoTdzw9zzlo2soPHux8cs7o34+asqag85jXFr94f7InO78AwP90OBxooJrdRqidsu6mszjzdPG/1rulC/rkgIvggsbGJ9EFrVzogtZCZJcsLCwsyM89d/ZsXtbpVXuKl+yJiraJGLv4wxXF9evWqVuvXlJKnYSExJiYGLqghBBCCAkKuqAVjcPjXv2XKx7+1/70EfPGjujTpj480BNbVk8bOfD9c7G/e/fHZ3s0TIo+uXT8m2+8/taRPt3uf2XlYx3z8otKSkqcTmdteBkSFURNHcWFe45m//2bXLvNAhd0zICLutEFrQLQBa2FSBe0uLg4Pz8/Ozu7IPfcih35i7Z7ou0i1i4e6mmrXzclOaVOcnJyfHx8VBSfghJCCCEkOOiCVgXQBL8YcDD+4HlKEKwNLqjD4SguKth58PRrC09F0QWtStAFrYWgS2LwcTqd0gstzMtasvncJxsLY6IssVGWJ/slN6iXmpiYBP8T3dNmU77Lwk5KCCGEkMDhMhJVgQusN6vVarfbo6KiYmJiYOHhb40H1YyKstvsdlUEhJDKA/6kHIXQMePi4hK8jzrlcmgYquJi4+LxX1wc/U9CCCGEhAZd0CqHNOlgAgJYeDUbWU0FC+fyEVJVkEOQvBcGMBRpC3JHRSmuKQ7J/stuSwghhJBgoQtKKhPF29aooev9ElIdQY+UHqbh7pASxn90PgkhhBASKnRBSeWj2LL0QAmpeiguqPyjouxL1AhCCCGEkCChC0qqCFwWi5Aqidfb9PZPj3KfiDeLCCGEEFI+6IISQggJGN4sIoQQQkj5oAtKCCGEEEIIISRC0AUlhBBCCCGEEBIh6IISQgghhBBCCIkQdEEJIYQQQgghhEQIuqCEEEIIIYQQQiIEXVBCCCGEEEIIIRGCLighhBBCCCGEkAhBF5QQQgghhBBCSISgC0oIIYQQQgghJELQBSWEEEIIIYQQEiHoghJCCCGEEEIIiRB0QQkhhBBCCCGERAi6oISQUomyW4XF+5cQQgghhJBwQMuSEHIBuYWOrQezVm45sXb7qW9/PuHxiO+2nczYcWrVzyd+2nf2bG6xmo4QQgghhJDgoQtKCLmA2Gjb3mO5M7/e898V++auPoiYzzMO/3f5vn8v3bPlwLmYKJtMRgghhBBCSAjQBSWEXECUzZqSEJVf5Nx68NzuozmI2Xc8d+uhrDO5xYmxUQmxdpmMEEIIIYSQEKALSggx0vHi1Bt/dZHNaon2vgUq3wW9umPDK9vU8x4nhBBCCCEkROiCEkKM1E+O6da2fmpijMejBPE3IcZ+VZv6zRokeI8TQgghhBASInRBSSVjkeBfNUJBjfSiRpHIktYgsc/lTdxeH9Tl9lzdsVHrJsnyEKklqD1Q6YO/dEM1yosaRQghhBASDHRBSeVj9WKx/qKNsG5lpBomEadeUnSfy5vGRitvfsLXuPFXTZrVj5eHSC1B64Zeb9P7QFzprWqsDBJCCCGEBIvFI2fakfKRm5vbsWPHc1lZSoAPB4LF43E5ihMbXtLrwffczhJ7THzGjFFnDmy0R8dRmJWG22WNTW7Q5Tdte95xYPOKY+s+dOQet9qiOF7ULjweR2Fuix6/7XTrk87iAmdR3oq/D0V3VW4Y1Zi+6fEUFxUNHz582rRpagwhhBBCKhK6oOEhKysrNTX1g8mTm1zU2OlwqrGkTCzC4/Y4Xc6SooIjuZ6leR1sFrfTY7s+YWeLJGdMXILdZrdYkUhNTiKGR3hsdrszpv47P4nfd7KluE65HCVKg5Fag9vjdjidJQU5m3PrbCi8OMrijrK4+idtrZMYHxMTY7PZlKej1b9vJiUl/mXylEKLZdnSpWoUIYQQQioSuqDhISs7u25q6oHv1zdv0cJdAkudBAo00OFwFBXmbzuSNfHb4iirKHJ6nugR061FSkxcYlRUFKf8VR6egiLH4m1ne7etk5oYQ/+ztuF2u4tLSuCCfrY1Z/YWR6zdEmcXL90Q16healxsnN1urxmvg1rr1HnqiTE/7tnzNV1QQgghJCLQBQ0P0gXdtmrlJRdfDJtNjSUBoLmgO4/lvvG9sFtFsUs8crnniuZJcEGjo6JqhplbfXG4PFE2NkFtBC5oicNRXJC9aGfhnB2WWLvA9lwPS8O6KbE1yAVNqlNn9DPPbD10eNmSJWoUIYQQQioSPl8ipFbiEVZ7dExcfEK8cYuPiYqyCo9HWCy2qNj4uskJhgTeLS4hGo6pxRYdG+crkwTkYrNYeIOLEEIIIYRcCJ+Chgc+BQ0ZPgWtFKw2d97Jo0ePHjtZpDTB+Um2Ho/bE9uwRYumTZomuPILso/t2nG4wOtIWqzKu3/C7Xa63EhntVvqt0q/OD43c+/hM7k5DuWnWib43+VKvaRjs8ap8dEuN4eYagqfghJCCCGkIqALGh7ogoYMXdDKwBqbVPjdtLGv/PWzJXlxiQkYB2S8xV2QH9vj948+MGr8TXVP7Vv1rz+O/NuuaKfHYvMU5Ra6kCAqPj4GbmhcHfvtr+0a2/LrMXc+t/jEIVd8YqzXCVVxFxTc+MLsJ+7r3bphfgmX56qm0AUlhBBCSEXAibiE1FZcznpX9Pj9u+tzd249ufVnZdu+s2D7zCcTVi38+2uTtyQ3anbN4/N2Hfv551PbduR8/8+nu/W65fY/f/Lj/qyd20//uPb4873qxNpdLleLgc++8+VPubu3qZko27a8/VPGdG9el/4nIYQQQgi5ELqghNRiPMrMW2xuibOoJKXvLTd1aVp//+cZm2w2G44peNwCyZQZtmqEgnzoaVEzUR6ZXQAnWBBCCCGEEB/QBSWk9uJ1EuErarhdtsTkxNhomyOvqFh1L734SPuLh+k9qkb+gnqQEEIIIYQQHXRBCamlwEdUlrxNSLGm1kmq493qNY4789XsBavXHKt/baf2HpdLTVo6cDUt0fEJSXVEaqqaCTbsx9ltVum2EkIIIYQQ8gt0QQmppcD9LDq0cfHf/zjs/hH3jHzgngcfHfnE448++uSnWR1uHPjoyM4xRc6yXUhbdFzWutlvvfDgvff+QclE2UbePfz+x+Zu35/tieEHRQkhhBBCyIXQBSWkNuN2OR0OB/4vcZ/9YdaMf/3zh7hOt/zx+Xuu75iU73Crifxi8bjdTqezxKlk5AU7TiffBSWEEEIIIb6gC0pILcXlKIpt3vXmx6d9OOuDOf+e8dE7E/587cWXXnldm+aNGtnzC50BfXDDVVKQ2mPokxP/9eF/lUzkNvc///nHbzu0rGMpdtENJYQQQgghF0AXlJBairLYENzQ/Gz3uXO5Wdm5Udc8M+H/Oh579x9TZ3yw2WWNsQbiglosFk9JQX5ullAyyVI37Bc6XW7lFIQQQgghhOihC0oI8eIqLGw9/MX7e7bc/OXMf3+6wR4dFagHKdPBG9XjjSOEEEIIIeRC6IISQlScRQWX3XTvr6+K+WnlnBc/2BUTZ1cP+MGDUcRqs9mF3WbHP79sdpuVfighhBBCCDFCF5SQWorLUVRUWKAse6t5iu6Sorr9hv5uwF2N1yx549k/fH4uWl3S1iI88E+R2uESOsfS4nELy4F5r4y89Vd12l7WqFPn89tlKS1vefyz7ftcsTEcYwghhBBCiA4Ll60MC1nZ2XVTU7etWnnJxReXlJSosSQAoIEOh6OoMH/nsdw3vhd2qyh2iUcu91zRPCkmLjE6KopzOisCq82dc+zA8WynpUHrNqlWtzYMWKMsBccyDx/cnxdTr3m7jvXt3kMWm/vcgd2nCqLrNL64carNJdNbrI4z+3YdOp2T7fB+IPQXX9bjcsU1bde2ef2kBKv7l8xJtcLtdpc4HMUF2Yt2Fs7ZYYm1C2zP9bA0rJsSGxtnt9trRt9MqlNn9DPPbD10eNmSJWoUIYQQQioSuqDhgS5oyITggsowFbdceOBsxkTZLcJRVOT6xXf0HoiOjo6KtrgdJcXakrYeYYuJjbJ6nI5i5UGojERT2KNjo+1Wq8VzYXvAG3U7iosdTndAH3YhOqDvVWRUpgtKCCGEkIqAk+RI9QP2ObaaYPxWIhbhdhYXFxXB4b9QkjjgKCkqyCvEoV88IYtwlRQhtfPC5B5nSWFBQX5efkFegX5DTGEx/c+QgP9J3SaEEEJIDYZPQcODfAq6f/26i1u0cPEpaOBYhMetPgXddiTrldUlUVZR5PQ8kR5z1SUpPp6CWixW4f75SG6J03N5syRhtVGBSQ3BYrEJ975TBUeyi3tckmKx2tT4ykN5ClpSUlyY8/nPubN/dsTaLXF28WLv2Eb1UuPivE9Ba4SzbEtNfeqJJ37cs/frpUvVKEIIIYRUJHRBw0NWVlZqaurst//Z9KKLHA6nGkvKxOuCOl3OkqKCzBz3oqw2NovH4bH2Sd7bMsUFF9Rus1msVt0kT3diYvJXmbEFDsvtLUsKcs/xST6pKbjj4xN+PJvw82nx+/buwtwzSveoVNwet9PpLC7I+SkreX1+WpTFHWVx3Za6s05SQkxMjA19U5k0rCauviQnJU588608t3sZXVBCCCEkItAFDQ+5ubnt2rXLys7Gfs14PyqSQAnhhCY1aHHNw++7nSX2mPi17//x9P4f7dFxBmG6XY74pl3aXHdfVFzS7pUzs3evstqj1GOEVGfcrpLYBm1b9Ly7brMOO5bPPLftK+XmS2WDvukozL+k552db3sKzqizKG/5lHvQDS1Wda3kGgDqWFRU9Ifhw9999101ihBCCCEVCV1QUvk4HI7Cgtxt+069/GlmlM1S5HA/eXOTbu0axcYnRUdHq4nO8+an25b8eMTl9qS3a/DS0MvVWEKqPx+t3D/z6z1uj7ikcdJbD3SLiapkFxRXh2JQkPNpxtFZa07HRVviom0T7mzeuGG9uPgEuz2Az8YSQgghhJjgJEZSJVBeKrvwqYrPZyw/7T2371iu07tMTubpghWbT8h4Qqo7u47kbj2YVeJUdPtsbvHSjUerwsdsLN55CBfMRVD2ffZOQgghhJCAoAtKKhmPFzf+0z2Q98aoqFFevvox89CpPLvNYrdaT2YVLt6QqR4gpJqzeuvxnw+eg25bLZb8IseX6w8XFlfyW+XofW5wYTf09ky1d6pRhBBCCCHBQBeUVBu2H87efTSnsMQFG91iEQ6X59Cp/Iwdp2AOqykIqZ4cOJEH9c4tdNgU5RZw+46dLVi7/VSJk9+1IYQQQkhNgy4oqR7Az/xkzcFjZwudLg8MdASdTvfZ3OJ5aw4qn7YkpDqz6IfM3UdyXG4PNo9HwPMsKHbN/+4gNFxNQQghhBBSU6ALSqoH2fmOnEJHswYJHZrXSU6IToyNat+8ziWNEkucrjN5xZwTSKovhSXOrPyShnViOzav0yAlNjrK2i4tpU2TZLijcEH5kJ8QQgghNQy6oKQaACscruYt3Zrdc13L+/q0an1RUlr9+HtvbHX39S0HX91CeJBATUlItaOgyHlD54t+17vlvX1aX9G6Xkp89LAbW9993SX3XH9JbLRNLr5FCCGEEFJjoAtKqgFWi6VRnbheHRte26nRlW3qN6kX3yAl9qq29a+9rNE1lzVq1iDBZuUSnaS6Ui85tnu7Btd1agyVbts0OTHW3u3S+lBsxLRsnBRt5yhNCCGEkBoFjRtS/fC+C6ruE1KTUN4FVXcJIYQQQmomdEEJIYQQQgghhEQIuqCEEEIIIYQQQiIEXVBCCCGEEEIIIRGCLighhBBCCCGEkAhBF5QQQgghhBBCSISgC0oIIYQQQgghJELQBSWEEEIIIYQQEiHoghJCCCGEEEIIiRB0QQkhhBBCCCGERAi6oIQQQgghhBBCIgRdUEIIIYQQQgghEYIuKKlkLBZLdHR0Sp16yUlJwuNBjMfjSUpMTEmtFxMTg6MymZ64uDi326UGCKlBJCYm2uw2NVDZWK1Wu90eHxcXH5/g8biFR6A31qlTJzmlTlRUlM++SaoXGGzVPUIIISSCWHgFCiPjxo07depUcXHx73//+6ZNm/7lL3+Jj4+HGffWW2/99a9/3bdvn9PpvPXWW7t37z5+/Hj4UQi++eabM2bM+PHHH9EQ11xzzW9+85unn34aLhkywc8XL178zTffIIdOnTo9+OCDjz/+OMy+wsLCP//5z1u2bJk3bx4MwWbNmo0dOxaHSkpKcGjMmDFZWVn/+te/YmNjYSwik2eeeSY7O7uoqGjEiBFJSUk4I06NU2BnwoQJmZmZDodj8ODBHTp0eOmll3AIJUGB33777a1bt7rd7j59+vTt2/dPf/oTMsQpUBGc97vvvkN9r7zyymHDhj3xxBOwU3Fq5LZ27dovv/wSwdatW6Mkjz32GHLAIfz88OHDs2bNglfZsGHDl19+GUcLCgpw6OGHH0aayW+9YU1oWHDJb4XH5bFGxR/81JN94L7hI1u0aPHaa6+hVFKMkyZN2rd727G4rr++deCgjs5nxysFhhgR/5///OeHH35AqXr27InqPPnkk6gjag0JLF26dNmyZcihY8eOjzzyCEolxfj8889v3759zpw5EGNaWhqaD3WB5HEI8szLy5s+fTpqnZKSgjKgChAsMhw+fHhqairOqInxlVdeOXToEMQ4cOBAtNSLL76Idne5XCjwO++8g5ZCBW+44Yb+/fujLSABnAJi/PTTT7/99luU6vLLL7///vtxRilGtML333//+eefI9iyZcunnnoKh5AbxIWfHzt2bObMmcikfv36EydOxNHc3FyUCmJE+r///e8oFUDxoCTHjx/Hue65555LLrkEhUQ8Ko5SgV27dkFuKNK1114L/UE1UX78avbs2evXr4cY09PThwwZAjFCOMgfP1++fPlXX32Fs7Rr1+6Pf/wjxIhkKDB+vmfPno8++gjSaNKkyQsvvAAx4ic4NHr0aOxACMgfuodaP/fcc2fOnEGp7rvvvgYNGiAGsrLZbCgShHzgwAEU4/bbb+/atSvyQYFRcUj4vffe27RpE8R43XXXoQehj0gxvv7669C3FStWQIxdunSBhkNWyA2nRvU3btwIIaP8F198MZoPBZZihNBOnz6NfodM6tWrh6ohw5ycHBQVvQwnRWHwF0dxajTHkSNHoPmQRtu2baHkOISKIw2kDf1Bqfr164f2ffbZZ2UfgRg//vjjjIwMJOvWrRvkD21HMVAqNBkafdGiRRAjckORAHocDkEyB/ftmvrpj8XJl14Z/dMLL03ErxAPHn30UZR86tSpyB8+6t/+9rcIDDXYh6yQZuMPGR8u32NtNcDidlhcxQn7ZsdG20tKHNANDCzVaKhB34f+//Of/8SpIS6IETp24sQJSGDo0KEYSFEFHJJiRCNCqyG3m2++GUMKBC7FiPiaMdRAJtBGdFi0AgqJ6hBCCCERg09BwwNsAhg9O3fuhJl18OBB6RVgB+YC7CEkgKGDfcTAtoB1JQ8BWAwwJeUhmOYwJrCDn+AvzJ2zZ89iB5w8eRKGApLJQzAskA/sdezDzcAhxMtDsGlg0OAQEh89ehSnhgGNfcQgHkflIZQTh+DPyEMwHJEnfo5MEIMMcUYEcQhlQEmwj3j8RQlRTsRjHyWXBZaHUK9z585hB8hSIR4gMaQBmSAeQX2pEJOfnw9jCHunTp4SXksIphJOcejgISlGWWCADCHGA/v35+Tm2G22Im+BZSYQI5wK7CAxdvSlQtOgCjIT/FwvK1QZFZeHIAqcWlYfMSiSJkYpKxRb5i/FiH2ZDzJEZeUh5KY1Lg7JxkUQoEZSjIjHUSlGeQhpkBKRAEHkgMbFDoIosFYqxJjFiLJhH6eWYpQFRnqtwADOFWoqDwGcC9nKQ2gvyEd/SIoRYAdB7CAef5FMa1wpRsTjRPitFCPiEQMx4pBWKr0Y0eKyVPKQuY9oYpR9RP4K6MWoaSN+gr+GPqKJEb+VYsQODml9BIcQlGKU+ctS6fuIJkZ9H8GvZB/BIZkPMsQZ5a9QBsgHaRAEfhrXpxgBMkGpsrOy8EOU/MgR5dR6MaJ99aWSYkQmZjEiW3monEONTIkccrKzz53LQq9E5m6PBwI54h3lqtdQg0MQo6FxNTEa+ggy1PoIxKg1Lv5CjDVjqEEx3n///X379tH/JIQQEnn4FDQ8wB6qW7cuzILk5GQ1igTJz3uOPDNze5TdWlji+vOQtj06NYd+qscu5L2lB46eOvf8PZerYUJqCt9sPffJt3v+/tBVariygVvldhR+vv74O0sOxEfb4mNsU0Zc1rBBffUwqc5ceumlv/vd755//nk1TAghhEQKPgUND/JGMlxQGSSB4/F4SkpKsrPO5ObmyqegEGZeXl72OWW6ps9bJIWFhVZrVXlfjpAwAs13uarKe85ut9vpdKK7FRTkWyxWYRHojVlZ2TnZyoNB3r6s7sR6UQOEEEJIBKELGh7gNcWUsnYOIYQQUtXANSsqKkoNEEIIIRGELmh4SElJyc/PT0tLU8OEEEJIFWbt2rWjR49WA4QQQkgEoQsaHnJzczt37nz8+HE1TAghhFRhfvvb337wwQdqgBBCCIkgdEHDg8vl2rZtW0lJiRomhBBCqjDbt28/4V1zmxBCCIkwdEHDg1yZg+tzEEIIqRYUFxc7nU41QAghhEQQuqDhIS4u7vnnn69Tp44aJoQQQqowTz75ZO/evdUAIYQQEkHogoaHqKio/v37wxFVw4QQQkgVplevXi1btlQDhBBCSAShCxoecnJyevToweWICCGEVAt+85vf/Otf/1IDhBBCSAShCxoe5BdB+V1QQggh1YKkpKSYmBg1QAghhEQQuqCEEEJIrcPtdnMJPUIIIZUCXdDwkJKSkpubm5aWpoZJRWK1Wqx83kxqIjZqNokUGRkZjz/+uBoghBBCIghd0PCQn59/yy23nDp1Sg2TsOL2eDJP56/ccvybTcczdpzC/smsIuws33R8xebje4/lOl1uNSkh1Y3j5wrXbDv5zU/H1m4/teNwdn6R47vtJ5dvhrYf25GZXeRwqekICSujRo2aN2+eGiCEEEIiCF3Q8OB0OleuXFlUVKSGSVixCEu03fbp2kOzV+z7YNke+JzwQrGD4Mer9lsswsq3cEm1JT7Gvmzj0VnL933w9Z4f95zJznfM/Hrvhyv2/eebvUUlrigbR2lSIaxevXr//v1qgBBCCIkgNG7CA9+oqVDgYKYmRSfHRx89W7DrSE5ugSO/2Ln7aM7h0/kx0bYGKbFWTl8k1Zbk+Kg6idGnc4qg22dyi0uc7r1Hcw+cyLPbrPWTYzk1l1QQTqfT5eIzdkIIIZUAXdDwEBsb+8ADDyQlJalhEm6ibNY7ejZvVCfWZrN43wW12KzWlIToO3penBhrVxMRUj3pf2Vaq4uS4GzC4bRYRJTdEhNl+02P5g1SuGApqSjuvffebt26qQFCCCEkgtAFDQ8xMTFPPvkkXdAK5Vct67ZqnATTXFnG0SPsNkuz+vG9OjTkt3BIdadt0+R2zVISYu3KGqXezzs1So29pmMjaLuagpBwM2zYsKuuukoNEEIIIRGELmh4yMnJadu27dGjR9UwqRhu/FWTpvXinS6P0+2unxxz4+VNOE2R1Ax6tGvYLi3F4VK+lBEfY+/XtSk8UvUYIRVA3759p06dqgYIIYSQCEIXNGxYvKgBEjQBia5H+wYtGyvzFT0e0aRefN9fNVEPEFLN6XxJ6mUXp9qsFuh2nYToAVem8fYKqVASEhKio6PVACGEEBJB6IKGDWVyaG1alChclYXfDjMoPi4uJub8a28eEXM+xuzV33jFxa2bpl5UL/HGri3stkqz0WtVW5PIkH5Z2hVtGiUnRP+6+yV8w5lUNEVFRQ6HQw0QQgghEcRCSzosuN3uEydONGzY0GarRe9uZaxb99tBg5Js5VUhj/A4S4qj6zZv87u/Y88aHbd3zjMFR7ZERccZXFCECgpLGqUPs8UlHVn5TkKMNdL66/HklDh//4eRr0ycqMaQGkpxcXGPnj0LTh2zRWR2A05SVFyS3K5fnVbp+xe9Hh/lRseIOJ4Sl6dZ2/bffPMNAhjWIITigpzP1h2dteZMXLQlLtr28uBmjRvWi4tPsNvtnPdRrTl9+nRcXFxCQoIaJoQQQiIFXdDwUFBQcO+9906bNq1evXpqVC1g6aIF/QbcIp75r3A6FUcyZFxOUVwQ5RG3Nunk8rijrLbFx7bluR0iNkEoLv2FZq5F1Gl0ic0Wdeb4XhH5LwrEJYn/vn53l4azP/lcjSE1lMLCwvj4eHHvK6JxC+EsUWMrFIuIr9skObHu8SM7vH0q4kTHiu3f11s29XRuPkJ0QWs2Tz311DXXXHPbbbepYUIIISRS0AUND1lZWampqQcPHmzevLkaVQv4etGCPoPvFQtOCwe0KDRFsgiPWzgdoigv8dypfplHXRaL3e1e0aTxmXqNRFyisEcLi/XCzC2W4kLlcWRMfLn83tBIsoqXHrk3LvPf8+iC1nDggtZLTix8d5toeakocauxFYvF4ii2OB3uuEp6MBVrFWu/afqX32SezUGILmjNpk2bNvfdd9/YsWPVMCGEEBIp+C4oKQcwQOFAFhSJghxRkBvS5v1hoXe/qOCXbOFkGtLogh6Xw+NyluOk5dmEcJQonjOpJRTmi3xouEENKmjL8TiKlc+yGOMjtjmVbkjHsnZg8aIGCCGEkAhCFzQ8REVF3X777cq0PVJ+PEJ5+BkdI+w2H885LTZhj1FmDGrbBVpsEdYob7xhNZfz8UqehEQQi1VE6dRVblHRwudiWkisKL+WMkZYNf3WdDvqwnsgFmGxe/OkbpMguPnmm9u3b68GCCGEkAhCFzQ8wPl8991369atq4ZJsMDytp43oGFzn9gv9u0QZ3OE5UJrGya4O1uc3CF2bxR7N4m9P4l9W0ShVfFLlWT4v1jkZop9W8XBE/IXXmC7O0X+UbF/mziZpcYREgGgks48cXSL2Ad1Pb/t2SgO7RU5DmG7cAS22oWrQJzeLvb8pKr3nl0iv8Sr3sjIIQqOif0/i/1Hhct9/lkl/E+XKDkt9m8Vx84KvlhBAmb8+PE33XSTGiCEEEIiCF3Q8JCdnd2oUaPMzEw1TILFXSKK87wGuxAxceKDceK5m8Wsj0QOYqSpDSzC7RAHPhZT7xSje4jRPcWodPFEL7H2hMh1KMa3NUa49omVT4tHu4pRr+nMdLuIOym+e1n8Xw/xzy+EFVa7N5qQisUq7G5xdo148SrxaLqisXIb1UOMu098+aNw6tbTUnTSIg4vFTNvVRRbTXmrWL5OFFmFJVq4T4gtfxH/d6X4v7HibK53pS5gEzHZYu+74v+6ir/8VxSZ3FpCSqFXr15TpkxRA4QQQkgEobESTvheTUhYRYxb7Jsnpt+uTEEERfniqY/Enx4Qh8eJF4eKQ8mqnkYnic96iGdmiJavi8V54n8nxLxM8e9p4p/txVMvif2nREyUYsRbvZnY9omTcFm93qbVKnLPipwzQsQKuzXyaxiR2o1HxFnFsG/FzKNi7nHxv5Piy6Pi0ZvFyjvEq3MV/VTGDauId4qvHhCvjhf218WXWeJ/x8Tcs+KxK8THN4vp08QZqK53Iq7CXnHKJRxe3bZYRWGeOHNM8UU5yZwEQ0xMjN3Oz88SQgipBOiChhMuLxwK0cli20di8VvCfb8Q5x8KeUpEp8fF3U+KBkfE/I+VF+dgbq/8nci4Sjzylhhyg3DihzHCniwS+ot3F4h6/xGrV4jDDhFlFW60gk2kNxc/HxEOl2Lf22LE4c2i6LS4/DeV860LUtvxKqHyRmiciI4WnjriyiHiD/eL78eLbXbhsoiYJLHsj2LlNnHli+LBW4THpqSES3ndu+L3t4jj34pvv1MUXo4wPVqIvSdFbrHyPN8WLU4fECe2iu5DvC9OcwgigZKXl1dcXKwGCCGEkAhCFzQ8JCUlbdu27aKLLlLDJFDsIvqg2Lte7I0T19wl3OddUGUnSrQfLu59Swy8Uvlqi+WE+O5T0el20aWHiLMpniTSuN3CEy8a9xS39BHr14gtW0RMtBIfnyy69hIZa0RxkfIeXVS22H9CZDrExUl8WY5UDh6XsilK6xIuh7C1EC1vFzcmiw3rlRslsdvFmu+F9XJx3WCRYFM+eCtT2pPE1a+IB54TV7cUxd7Z5ha76HGj+OlHkX1O2OwiKk+cPCG2F4hLktUTERIYS5Yseeihh9QAIYQQEkHogoaHkpKSf/7zn3l5eWqYBAj8w4ID4jTk1l5cUvcC/9BVLGIaimZXiFZNhLNYnIOH2VA0by6SohST/RfcosQq2qaLosPi+GFRZBcWj7DFisS24vRWYXEocxcLtohTHuHqIBoVIzkhlY1HOG0itrG4rIOyRJbLLXK2i5OJIvVSkRYvSnQP6l1FIqGNaN1JNE5VkqF/WKwiuYM4t0e48pQnq0X7xKlTouAKcREcVPVHhATCxx9//NNPP6kBQgghJILQBQ0PRUVFcEFzc3PVMAkQi0UU54viFBHXRqQWX2hDexcfchR5HU6XyD8sshspS63YXEZT2+MWdVuIxCMi66Q4ZxNWj/DECNFUtNopzgjhiBJZu0R0imieLmIc6k8IqWTcyivK9kSxd4/yML8wV7guESmNRYrT1AuKRUmxcMp7JzhmFa6LRcu9Iq9YFNhE3iHhdopLeotYzjAnwfHee++tXbtWDRBCCCERhC5oeOBCROXDrnx8xW5+iAOHM0p5d06RrkV5vOkbj0hpIKLcwlnifcgJF9QmbKmiU6HYelTkW8Sxn0VMiWjZ7sLHp4RUKlKri4u902uxH61MrLV53Uw9HqvyLnS0XIgIWISnrrjMIQ4eE6eFOLtfFB8T7X51weK6hASA3W63qesqE0IIIRGFLmh4wLW8R48esbGxapgEikfYY4X9rCjaI06bPrhvc4icTLFrp3DaRXSqiMtVjHW39cJkwCLyT4vi1iK1sajjUr1Qq0WkdRXbN4qSY2L7TnEuRzSuqzxuIqRKYFHeZy48I9q2VT6vEhUnrPtE1nFxzn7hqGwRUUXiyB5xMFO4vR+/VRxUl2jWVRzYK3L2i0MHFF80rT5fcibB0r1794svvlgNEEIIIRGELmh4SEhI+Prrrxs0aKCGSYDAJ0xqKurHCvc+caLE+3WK81iiRHSmWPV38ex4UZgkGl4n2u8Tx0+KXJfiXv4CPFUhflqspKnfWCR6p+l63Mrj03Z9Rc5JUbRI7OgknD3EJYXagruEVDI2q8g7LjYsFM1aKzNyU1uJujki97A47RK2C3tB1Gbx3nPinf8IV4LiggJ4m+1uFCVFIm+xOFBXnBkg2hYq3x8iJBjeeeedO++8Uw0QQgghEYQuaHjIzs6Oj4/PzMxUwyRQHKK4lejUR3SJE8s+UWxxjagYsWO12LhG1LtcNITZnSZ6XiNm/0P8vEH5OsUvuIU4JD7/SHTtITpfoUxrVPAIj124e4lL1og1n4j6jUSHdsqCooRUCezCekxkrxXrEkXXa5QvCRVeLgb0E9b9YtVi7yeIzmOPEms+EofPiUZtRV35hB94hLOXaL5N/DxXOKyi25WimC+CkqBJT09/66231AAhhBASQeiCksrGWSha9BVX3igKJymmOfB4REJ9sfefYsafxLG64pE/KcuxCIu4YY64/Wcx5THx8XeifoqITRTxMOVXit91FXtuE9feKC6JEw7dVFuPEGkWseBLcTpX1GvMWbikMrHHiZgEERsvYpNEHbviPf7jL+LScaKzV+tLCkW3J0RHj1jxuJi2UtSBeieI+BSx/iHxj/dEixvF7UNEUYGaFXBbRFO7WPuN2LFXXNRM+XwLIYQQQkg1gS5oePB4X8Ry08kJAeVjiQmi7W/FsGnK9xIBjO837xVjJ4nEB8WT74lL3cLlfc/NGisGLRRj+olNj4kBjcXQi8XdrcSI4eK2T8X4F0TbpsLlVHIryRcFOcrn/uGDdrpaFDQXjZqLponKYkWOAlFYos5mJCRCuJXZ4zNvEH+4RNzTQgxtLn7TSLz7pbjxU/H0UMX/VEYPp3DWFf3/KYbeIbb+WgxsJoa2EPc0FS8uEje+LYY/IpoggUu4CoTHO5/c7RTtrxSWS0V8M9GynqL5znxRaFhTmhB/5ObmFqvTRgghhJCIYpG+EyknTqdz7dq13bp1i4nRzxGt4Xy9eGGfgUPF3KPCUQ47BhrodIiSosS87H7HTrgsFrvVtuLopjPOaNGul2h7qfAUnJ9/KIQ9QZTsFbu3iCNnhd2qGNy2aNHlTpEKo9yhPBry5IgTO0Vmjri0j0iCc3tMbD4kGrYSTZsKx3Fx+rDIShXtmqm5hUBSinh1xL3Jp/497zM1htRQCgsL6yUnFk7+XrToEKqGW4TFLYpPi51rRY7DeyfFO97CgUxuIVpfI+qLC74CGpUo8vaIvSvESZt6e9BTT3S+WjRIUT7N4ioUWXvFrsPi0ptEik2IE2LHQRHTSLRqLVznlC+FHk8S7S4WdpvXpw2J2ASxbnHTyb/LPJONkNvthotSXJDz2bqjs9aciYu2xEXbXh7crHHDenHxCXa7nSuBV2s2btzYoEGDtLQ0NUwIIYRECrqg4aGoqOhvf/vbqFGjkpOT1ahaQNhcUJdDFOYlZp/tdzpLcUHd7hVNGp+p31DYo73GtP5ZvUdYopV3QaX/KWOK89THpApWYY8R0TZRlKt4pJYoERstnMXC4RAWu+Kv2pzleimULmitIRwuqBcoXkz8BVoMz83tUCbf/qK3Eo+wQr2R+Hy84sEWKmvnKs/uLcIWI2KiRHGud2Etu6LbHugzymZT1N7uEsUl5/tFSNAFrU1Mnz79sssu69GjhxomhBBCIgUn4oYHWKvjx48/d+6cGiblAXYtzO78PFECe9pg41qEx6H4nPk5ymxbZYM5rje63crLpQV56gKhSFyYLxxeC97jUg5xUSISYeAlFmnq6t3ys0Vhgcn/BF7XtChblzLP+8FP2Qs8wlXkVXhvSCDbAsXnVI561b6ofP4nqWW8+uqrX3/9tRoghBBCIghd0PAgnwZY9Qu61gaUR5QW5ZlkdKyygG0IG36Inys7Mcrin2q2QtlX4r1HQ868IrZooXzFkZZ+7SEqumppYIVu0XalvtTu2kFcXJzd7l0BjhBCCIksnIgbHnJzc7t27bpy5cqLLrpIjaoFLFu8sO/Nd4pp65WVfkJGmYjrFEX58YX5vxbxLtj8wrJM5GfFxom4RGGzC4vBsfcIK5xA4V0F1PCMtOJJSBH/HPP7NPdMTsSt6RQWFtZJjC8ZN180aysc5dDwIPAo2m61CFdl6DaIiRMbVzSe9fSxczkIcSJuzeY2LyNGjFDDhBBCSKSgCxo2YK7VtqegK1as6N27d5w9DLV2Od2JjS6+btQst7PEHhO/5p0Hz+zfbPeds8cSlSAsFndxXqVYwIVO94iRI6e/+64aJjWUoqKiJk2a5Gefs0WuX3uEPdZii3EXZ1sqxQUVotjpvqRVqz179mCfLmjNBu2LFmQjEkIIiTx0QcNDdnY2rNWdO3fWqtUFpYWqBkIFGuhwOIoK8nYcPP36otNRNkuRw/PHPnWvbFM/Jj4pOjraYCHFRtveX7Int8Dxf7dc6nJXhvp6PDZ7VHT0+WnDpOYCLzSSI2RMlG3xhiNrtp0cf1fnShyX0eNiY2OxQxe0ZpOenn7XXXc99thjapgQQgiJFHRBw0NWVlZqauqhQ4eaNSvHBz9qKy6Xq7Agb+u+Ey/NP+x1Qd1P3dK0e/vGsfFJ5leVDpwsmL54V3Z+yQP9L+3cIkWNJaT6cyKreNbyfZv2n31oQLue7eqpsZUHXdCaTefOnYcOHfr000+rYUIIISRS1K6JoxWH9ORhsckgCRyIDi6oy+XUSw/73kiX+RbJys1Htx88e+BEztc/HVGjCKkR/Ljn9LodJ05nFy5cf1CNIqTCyMvLK/80FkIIISQE6IKGh8TExLlz5zZs2FANk4rhyJmCrYeycgodxQ73rszsHYeVrxcSUgM4nVO05cC5MznFLpdn3/HcH/ec4RQVUqFMnz59yJAhaoAQQgiJIHRBwwOMxaysLD4FrWiWbTx66GS+zWq1WS0ns4oWb+CDUFJDWLv91NaD56DYVqvIL3J+se6ww0kXlFQgOTk5fApKCCGkUqALGh7y8/NHjBhx+vRpNUwqgHN5Jd/vOn0ur9hus8BSzytybNx75vCpfNrppLoDn3PDnjNHzxRE2a1Wi8XhdP+07+zeY7luN7WbVBRjxoz59NNP1QAhhBASQeiChge5LEdt+yhLJPF4xKLvM09kFcEmh1UuDfPsAsfnysMiPnwm1Zvlm47tP56rKLZXs6HkxQ735+sOQcO9xwkJPwkJCdHR0WqAEEIIiSB0mcIDnM/69evbbDY1TMJNkcP17dYTDpc7MdZus1psFkt8jLJYbsaOUzn5JTINIdWUtTtOZeWXJMVF2aHZFhEXbYuJsq7fdfp0TpGagpBwg2tWYmKiGiCEEEIiCD/KQioZaKDD4SgsyN22/9SET4/Ij7KMGXBRt3aNYs9/F9Tt8Rw9U7Bm28kSpzs2yrZ66wmk6fOri4odLqvVclXb+pc0SoRjquZISLXiRFbh2u2ncgocsdG2nw+c23Ms9/b05g6nG2p/eau6bZsmx0RVzr0tfpSFEEIIIRUBrfbwkJOT06RJk6NHj6phElasFstFdeN/06P5b69pcec1LS5pnNS0Xjx2sA26+uKWjZPof5LqS4Pk2P5Xpv322hZQ71+1qpscHzXkWuj2xYhp3ywlupL8T1Lj6du379SpU9UAIYQQEkFouIcHt9t97Ngxl8ulhkm4sVktMVE2+ThILkeEHRkj9wmpplgV3bbGenU72rscEXag2IhRJp170xASdnDNysnJUQOEEEJIBKELGh7kfGZ+lCUyQNicPk5qJFwBl0SMgoKCkhK+SE8IIaQSoAsaHhISEv75z3/Wq1dPDRNCCCFVmL/85S+33nqrGiCEEEIiCF3Q8GCxWJo3b84VcQkhhFQLGjdunJSUpAYIIYSQCEIXNDzk5eXdeuutJ0+eVMOEEEJIFea+++6bPXu2GiCEEEIiCF3Q8CA/TmC1Up6EEEKqAUlJSTExMWqAEEIIiSB0mcIDXFBcy/mVPEIIIdUCXLOioqLUACGEEBJB6IKGh5SUlPz8/LS0NDVMCCGEVGHWrl07evRoNUAIIYREELqg4SE3N7dz587Hjx9Xw4QQQkgV5re//e0HH3ygBgghhJAIQhc0PLhcrm3btvEba4QQQqoF27dvP3HihBoghBBCIghd0PDg8ShflJd/CSGEkCpOcXGx0+lUA4QQQkgEoQsaHuLi4p5//vk6deqoYUIIIaQK8+STT/bu3VsNEEIIIRGELmh4iIqK6t+/PxxRNUwIIYRUYXr16tWyZUs1QAghhEQQuqDhIScnp0ePHlyOiBBCSLXgN7/5zb/+9S81QAghhEQQuqDhQX4RlN8FJYQQUi1ISkqKiYlRA4QQQkgEoQtKCCGE1DrcbjeX0COEEFIp0AUNDykpKbm5uWlpaWqYEEIIqcJkZGQ8/vjjaoAQQgiJIHRBw0N+fv4tt9xy6tQpNUwIIYRUYUaNGjVv3jzsVL0nobqHs+V6ThuufAghhIQZuqDhwel0rly5sqioSA2TCqdUe8KPoVH6IZN5QnuFVB0C1sZS0qnRvxzVW+bqvxdEktrA6tWr9+/fjx2L+9SJH+b9+b6ZG92e0r4TGlk9sVhcu3+YPf3Z4bN/LtcKCxaLY8uSf/57yt+WH+RKDYQQUpWgCxoe+EZNpLHYhCjK3bfqXy8t2FHi0ptNFk9O1u7FU8c+/fTjjz/+2GOPPf7YHx9+5IX3F64+JSyisODQN++98Owz5w89+vDDr85Y8FOR1zzxuEX297Nf/Wzt3jP5mr3iKSg+svr9F7/4Ob+4RI0iJAJ4RM4PH/3lszW7TuXprWePS2St/9/fXhrnVWHo8OhHH31mwuQPdysHLXkbP/vHq897j+DQqD/+8U9/fv2rU+rPLSU7Vsz88rMvtp7WZWjJ/3HepM+W/3QkhzZ6LcPpdLpcLmXPk5u9b/38D1Yf9GAQ9InHkrvhf69/9u2247kVpCdexf7vxM8yDpwtQNASm1C/YfNW9ePl0ZBxHd6ydNVXC7edVsOEEEKqBHRBw0NsbOwDDzyQlJSkhklFo7ig2dk7Fr/5wpxNJU6HGuvFfe70li8nvTJ98bbtW3fu3Ll91559qxfPnjN31uY8UVy4b/EbL72zcNOWLbuUQ7v3rl3xyfuz/vHt7kL80iXOffvOc//9ZueJXJkV8OQXHlj65p8/2pBTXKxGEVLxKDdEVk9/9r/Lfj6Wo0ZJXOLMqmlPvTPn64yNe3bv2r5r154f13/72czXvtgDyz1n7Qfj3p39xbcb9noP7frpp+/nf/Dyh2uPCeU2jWPzon98NPvjjRd8PCo344PxsxeuO5ilhklt4d577+3WrZt312qNik2KjYvyBnxhEY7v//3s/1bsOOsdBn3dcw3mRqzvlEUZ747739ojecrNPmuz9v1uf3hsv5Zun2lLPZXpgD0mPi4hIRoXjAspo7Tmwz5/YIzznykhhJDz0AUNDzExMU8++SRd0MgCsyku2ZYQbbgpb/EIa4NGsQ/846vFSxYtWrR44aKv1vztanvRx2/PPRYXFVWnjmXYX79ZtmyhcuirJRveHtqi4IOn/7rYKSwWYY1JTkyMjbLpOobFYo9LFokxVj4kIpHFGpOUkhgXrddGL9aY6Nhbn5z55ddfLlgI9V783adv/L717HGz9sACjrJH9Xt4ytwlXyiHFn/17eLZY9t98fBf/nfwWKHXGk9OMJrj1pjE1IT4GDsvBrWNYcOGXXXVVWrgPFbX6X0/Hc7cu337toxvvlmx5ofNe7LcwnM6c/X+ooQz+3/auPVkToEbg6HH7TyzZ9WKVatWLl+x61iBw2OxWNz5OWeO/Pzzrj0/rVq1atcJhxDOU7u3fL9ixYqVK1euWv/TxqPKrT5gEdmHf96wdrnCuk07jiOl6+S+b/c7os/uXvfDtjMFDndRzpGD2386kmuV4+65fT+uW7Ni+TfLMzbtPp6HDITLXXBs27pDJ478vOGHNSjquq37juQrBwLDYnHlnDqwecXy5SjaqjUZaw/kuOAFH/npp917D2Q51eHe7So5uW3tnlO5xaifK+fwzk3ffP3NioyMH44qj2qRi+P0gQOZu7Zs+Gltxg9bjuXxIkEIIYFBqyM85OTktG3b9ujRo2qYVCaKeSQ8xXke75MfBVtUvfyYtBOnjks/sigvq0AaEB5ha/Xbh0ZMuGP/5Gk7BSxzWhCkGmARjsLcnGw15Cp2Wut1OXjiuHC7lbffCvOyz6mHhEjp8/yqv2S/P2P7yQJhNXmzpBbTt2/fqVOnqgEFjH4W+7n5z/167It/euKpF4b1vbF3/9vvemDm7mLP91Mffu+n3K9mvPzCW28v36bM1j15eOM7z13361tvHnBD7z9OWrrtEOKcO9Z/9ubdtz84/qHbbh7w9xX5+SXfvfXEfQN79x5wW7/rr/v1Hde/str7OoNb7Jz1lz/cc8sN/W/qc8Pge0dNXllSWJLxj5HvbilZPHXMc//876bM4n3rpv9txIBpG5T0RY5N7469685bb+zX94bbhj/xzqeHEZnv2D3jvvSnprz9+P0P/PamG3v3HfbcK1+dUZIHyPZ57//prt439L91QL/+N/bqOXr+3hxx9JORvx81bsKXygmAu+jsrncGXz1x+fZT8JI3Ln7jyRE39unTZ9DA37z+iZwXk/XlK3968dGhg0feOfyR8Yv3yp8RQggpCxokYcPiRQ2QysYjXM6SkhK3S5nGlbf6xx+Kd5y+vGMrJ2x0Pd4GS46NsjT/adnXhxTXlW1IqgEWt8tRosw/hz4X7zm2+afFP197WRv4mOapgJaSehddtu2rjN35uUX0QckvKA/Eo6PVgIYlPjnxk+XF1w2esMtV/OPiR7p8O/5fK639J2587cZ6w1+Z98m0P99+pd15aM2cGU9MbryyKDs3P/vDuM//Nn3aZwdEdEr0mT3R5442ezMrN+/vQ+ps+uvIaQlX/3XJuYLsc9+verxT3sy/Tz+Ic6wc1/vp073f+DSrqMS19eORV667f8K6+Dve2PLXa+OGT161aMqoHpdEFTjtMfEJsVHQaNeyJ7s/a3noi5UFDtepd+5P3fLUb97cIBKsVluS/X+flfxp5jdHHCc+evpi56IpH26UtSibXf+b/P6Gg93+vrcoJ//o6Q+HRX/+9nsbzja576UhJUlizffblDSu4uLdSxfu+EP/G1ukOb8e8+ByR5c/ZnrcZxbOHrl+6K/f3VboETGJcdvmllw2+tn129Z/en8Xb9aEEELKhPZI2PB4UQMkslygx9Yoqz2noPgfg5ISU2LjYmOiLUk3TcltO/ifzw9IznX4WG2jTmKdZm2udJtsd0IqH2jlBXdFLDZhscYlfTLuxnZN4UDERltj2/V5cWXPeZ8/0MIjrOblZKKs1lbtultjYpXXSwnRKCoqcjgueI/ei9vh6Njj8ss6thIiOiGx2SVXygub8ke5xilK5Np1dMux1XuHD7pW+UHyXX/6Q8GBkg07tin3OOrFxHRufbESL0S3MT8c+s/ku/rWESK+bYvrbxzqcim//3bBrNaje/Tv2D0Fadp1H/n8F9vGXeNxCLcbo7DHrb79qai9ckfQIw7u31lyd49edS+KEaJ+5w6dL+mTs2f3OYvFYnV7rhhwXZsGyL9uo6YNGnd0u73LKwVCq99M+eo/K95/tCX268bdfPtwqz3J7SxMvK5nt11xjtXfKUsFZ5Xszfgs455rrk1oWLx02erLo+tdc11TIVLaXzn8ofvXfbJij8PlcHs8HRs3bNyonjdXQgghgUEXNDwkJycfPXq0aVNcnUiksdpjfvr7Nf0616ubkpJ0zQMP/GdnUnSdOPvdb65bv3bDhg0/fL/xxx+/+PuYuzp4LSj1R3ryi/JPHt3scuKYGyaS1XrBa59yVy4cSUikiYpPzfz2pWf6xifXqd/w0m7t/rzG43I7Cvr88b0vvt66aSPUe+PGlQvnPnu9iPKa6yYNd3lsx49uLCksxFFY9xZ4sMZx3wnbn/fPah3ffvvtqFGj1MAvuFyuNs2a1mtox3hoEVabHSqDaMX9PD+Cemz2qBOZx94YmNa0SZMmac1//acf1++QRz11YmPbtmqipBLCHpu0dcbImzql1G2Y1vpXt7yyNDnBIjyHd2zKc9miY6JwBozftujYhKRo23nd9Z7nPMpI7PDs3v5d18suqhMHT1OItEbNLWktf9y2C8O0Be5fm1ZxCYhWXkW12nQDt19wClt03MmfZj7aMymlYZOLLmox4gO3s8gGBzm+e/pluTG5n68/J4pyj2xYmvfEozekxKKPRCX/OOelQV2bpTVNa9by8tH/cWed885DcLtbNm5YrxHcY0IIIQFDFzQ8FBUV4VqelcVFJSsBj8vZ7Kbxz0x8e+o777w7fuQDPRsUFMOuuejSy391ZadOnTp3+dXll7dJq5/kNdANKBElmacO7/+0aY8eaUI0a9zUfbzojNP7pqg3tdUem5woWjW9yGb9f/buAzCKausD+JntJZveCaGF3nu10FQQFBUFRcGuT59YwC7KE5UiFhREKSqIKAgaFESQ3nsn9BIISUgCSXazfXfmO7s7QGh+qMsSkv/vrbw5M7N37t4puWen7OUfFwlwtXhdtqjG9z7wyqSvvvxi7Kj/jexVQ1CQxxuV2qBpi5p16zdq3LhJk3q1qseduaDywk64163OWPVtXOtaKVpOYqO0Nm1R4XnHKYOe0pJiwg3hcgwVxciRIxcvXiwHpUjE2aHvmm5fplY6ISSlMvD1nORyO4wG3Z0vTRw75rPPPvlk2vwlv374zE31FSVOr1IQtHI6Zlk2tt8nm3UdHx47dco3o99/rU8Lu5O30LioWK/GyGWd1/+QN1ylkgsIDPrwwhVCdHyVzEK71+N/GG+J3aK051WKj+WacQqq06j9/Rh/NaWLNv/LEATPjnnDPvlmgbLzp99P+vKTseMGduGkVJQ4qTT27NVWWynut8UZ7vytC4puvK9ZDH8ej72kOK3FHc8P++aLzz8Z/+XkGYvWT3m8lkYpeL0iN5fKn04DAMCVQgoaHC6Xa9asWVarVY7hauJukL8jpFArRPJ6BRLjat3SuWefPn373n9LyxY1Ilxer0Qel1e8zC95ao2RhsDPzXEpp5fOmffNumpPPNaEOxGqG25qu/7n1Zt35wQmEtmOLp34taVz++paDb7mhqtN5Tu14x/iRFPJXWxRdDvCwus27vrA/X3vu+/Obnc2SeQNU5K8bqdDfrro+SRJrQsL958v8nNsmfrsV5H3P9yskomoeZMmp3PNS39YI0/knvXuceOOV6+cWCXFd1EkVCTp6ek7d+6Ug/Nc6py41+Px5pod/q861PGmhLiGKfnxne+6t3fve+9pKG7MOnr4tEur9N1Pf/aK74MLvphRpGrX+/mHenTr2riadd0Bj4ZzNd2NndoempWxI8//+D573vrZHz4/dtlpFXndvIhih97XL1H6c1/ffyqqWb1e/sxtez3+v69Hju7OWXK6Zq0aXEme6rts9+LKliZJSpXGeOHmnbt2zpz925Ttn3isxx139G3lWnmYFCLvfVx1RefWtVV1vZNmLj+xMKtFj/oa39OiI+pXj8+vXK9Wyy533H3v3Xd3jtozfW+xjmvHu6uvJn9dBwAAuABSULgO8J/3Yqvr6MmSw7mWvCJHkdVVYncVnrYetpiUSdFFFud5qabXI3lcNqfjzONwzydardKyKW+/++6Ho0aNGD36o+eG/rglv0bfoX2S/Cc5E7u8/lQ9+5yfR7380eiPRn347jvvj5uWWad//1ZJf/GbeQD/gsXuzsyz8rZ9stB+ssjhdHtzCh1Hcs1ZeXqLpPIohPMuApc8JLrsDofLc6kfTJQ8Xs+2BZNGvzvmow9HfDjqw7eGDv9srurut/u3qBbGfWV1k/v7dWjh3D/hqY9Gjx45cvjIkS+PWBV5Q/c2LWtFySVAhSH4+QdF0eOyOvzHTMntKPFthP40UvS6nTaLf3xUWu2UjBWT3xk/Z2emK6Fmh3b3PEiLB3w4fMTI0a++NXHhnkwr9ydEr9NpK3HKW2xUnUa1Sw7MHT3k88+GD538w9ZiQ/S+4/nkib/t9XvCTs758p1XPvvs/eeHfTJx4VG17/LwqBp1krcu+OzNCX8eKzRrFF4uyrdoIbLFQ08kHP5uzPtDxnz24pg5B1Q1n7q7Cbkk0WWTHL6bMX0L87odDrvVdfEdEwJlZqz+7sPPP/lwhM/wD977almWVaxap47Oe+iHj8aOGfn+2x8tKFaFZeQUuh2+vyVC3ZZJcfHbfxz/m6XTY83CyH/ob9Tj+RaVihaNf/rTj4e/NfTlsfMOWq1eTn99zeVwBZoLAACulHLo0KHyIPwLXq939+7d99xzj0E+uwZ/g8j9H7crv8i2Yq9FqRC4a92upqlSbJhKrfVflSXw33nOPGetztx68NTOzKL92eaiElf2aceOLG++Mqr1TWm1I3Tqc1dvuZzF5hMno9o+0LKSIJz3LYskem15R/bv2bdzF6+v3Rk7t6zfq27S56HhA7tEcTfGV0JY9U4dlWvWLV0wcynPtvO4NarRoO/fvkGPn02Eq6SwxPXb+uPr9ubvyizal1V8yuzML3bsOFK4/ZhDq4xs2b1RzcRwvTwvk8h16uA+XYM7mtVMMOnkkWe4C09k7T+4f/fu7Tt379m9Y1tGTkn8HRO/ebim72yNJEma+IYtK+loy8TPftt/YG9Gxu7j8U9+/969tZMNvi96Sl8ByXh+PrJxErLvhGXHcbtaKaiVik71IsKMBrVa479n+vw3wHXl8OHDLVq0qFu3buCYmX0yus0DLVK8p4/uU1a7qXG9tFgjOe2nLXnm2LZ9myerEyLdu3ZvXZdvqFe9fqOaSalVm1bN/HjUz3syNmTE3P3Ja/1urmQUzUUn7SWU3OauRgm8gMg6NYV1GRs3Llm8Li+6UeN7/jsg4YCtdt8WSRHVuzUyr/1z5cI/lu06LlW76Ykxr3aLkUgfH+7Ytm3z+qKYNvXqVY+0FRVLyW16NYqnuFo96mX/9vOKFYuWHtDU6NbvzTc7VZVcor3w4F5j83tbVg3XaaSSU1kuiqzS6tY65z0YSLQVF2QePpyRsW3H7j17MniT37k9P/7G1h1vbh17onjPst8XbD1S6EgcMPbZuG1inXsbpIRFaEgV5s1cs3vK7KwB37zV0X/+VJKEqBptTfl7Nn3/dfregtNCi0E/v3CTViDPqcyDipRWDRrWTwzzLxAAAK6EgOtHgoKbMT8/PzY2lrtl8ii4Mtx0brfbbrNkHMl/L/0Ed3MdbnFQ96RWdRJ0BpNGowl0c+0u74sTNhzOsYiSxP1gzhbdHkmhVFWK033ycPPI8H95kWyp7vfFPXGAq+zNKVs2HigQRUml9CV2gVNQBp123PNtU8Iv+tmMs+SvTc65aMRFLrN5X/KNoig6mc08Z332tNWn9BpBr1EO6105MT5GbzCqVCqkoNe106dP63S6y35tyofm0iv4vE3kgmkBpY+i/pkvvzleNOUvZvWVevH8523HpatzwZTLlvuXXBt+/2jGqB9TP9v+fCN51AUFy86Vf8nJAABwGciXgqO4uDghISErK0uOIdi473tH68pxETruonMnnbvpKqUQoVd0aZRoCrt8H/1Kleo7oBsBIXdr80rVEkzci/Y97kUgtVKh0yi7t0iK9D3l9vIumvj/b7uX2byx0VdAHTp0+Oyzz+TgYhfkmOcHl9qOSo0LDF1iHtlFU/5iVt+ki+c/b0zp6lwwRf7/KyZ5vBIVrduwKT8z78FOZ/NPdn7BssstFwAA/hpS0GC65J9lCJauTZMTonTcxpI/lCQKN6h7tKzMvXb/CIDr1Y0NEqol+G7WDGzb/P9alaJHq5Qw3IEMV41Wq8WTXC9k+/Pj3g2Sbho550i3715uKI8EAIBgQwoaTBJnRRVGsD4q5+0alRCuEgy+HwHw4ZINSt8Yre9Cv3PppZo75U2SUqL0Ho/o8UqxJk33JokRRvTRoTy4pUF83Urhbv9PdOo1ytubJlaKKXUHaAhVoKNYxVZSUuJ0+n/oBM4y3Pzk+AV7D66bN/H+JvIoAAAIPtwLGhxer3f//v1paWlqdQXKiDYXeR/fZg+74p8DvwTfI1JEyeP22K2KUwWJh09LgqAQpZNVIt3xsWq9SVCrfU8U8m+knI0W29xRuw+EnSrkYbsp7GT9WlERet9EbMVwPeNt3GL3GA5kRp3IIYXCo9WcaFgnIsro+womhNu2XZRaRirHN5ZTX9wLWr4dOXIkPDw8Jua8x/cAAACEAFLQ4LDb7S+//PKwYcOioirQbxsszPPcusRCf3272v+D3yuSx00Oq9J86s7TxV5BUEvS/Mhwa0Q06UykUp93j41KWfVkdtrJHJUoHomL35ecSngYPpQPKmXC6YJ62Vk6tys7Knp7anW61K+uXF0eapKg2nqz/GhPpKDl24gRI1q2bNm5c2c5BgAACBVciBscDodj3LhxFotFjisG3+lPlfDvXv5SeEBJ+jO3dHK/W8cbpm/8ReUL0smo6GKD0aLT5UTH+LbfC2bAC6/r9CVIReGm/PAIp0p1LDZO3i9C/aKz18NDuTdp0qS1a9fKAQAAQAghBQ0OnA0IEUmy63QnI6NyoqLNBqPvkUQA5YMkOTXak5GROVExhWHh2LbhalOpVEolvnIAAIBrAClocPDf8rZt2+p0F/5QPASfKJ6Ijj4WFy+HcCUEBSk1vquaz7384bkOqEDKMyNLz3De04YFUqhIqSr1QwR+vsJ5fOBgwuVcsKBLFgWXIoqnwkwHk5IubGGAq6B169ZVqlSRAwAAgBDCvaDBwc3ocDg4Ba1Qp0MX53u6LC/5d/eC+tqOvG6yl4QVn76loMgrCCpJWhYdfioyhvRhvuwFZ5j/JW4/t53sFvLKI2SSgrRGMhh9t+PyNGsRebznPfxGUJI2gvRq+Yyc4CW7lTxE+ghSnp1PIJELd5GgJaOORJevHK904UN0OHfVRxOeXlzGeaR28arVN+Be0AqB161SqeT1KMcAAAChgrOgwVFcXGwwGLKysuQYoKzgPNND+6bSoFr08PmvR1rQmC/JHkZKkbwHaFQDevT8GZ7uQNPX+fJSX6ahprDjNPNRevVRygo/d+RQ6unk9/T+s/TFHIrUUtEaervmeYUEXs91oWW5vrwUOQtA2dC6detPPvlEDgAAAEIIKShABeB1UEQsPbaeph6i7w77/v0xj4YOJNvv9P5YMvgvIPe4qNsk+vQATT9CU4/QD/vp/Xdp+100bCqV2El1ZccK0es7qNw3j746SN/7FzTtOH27gh5uQxM70i6BPApkoQAAAAAVGVLQ4AhczyyK+IEQKKuUajLGUVQiRSVQdCKZoqnVHdQkhbJ+pL1qX1rIL30URfqnRsdTeGVK60IDB9O2/9HOErL752GXvPaSR8rjBVIoSB/rWwovi4uKjKGEllTvAWqUQxtXkcuFK6sBygKLxeJ0OuUAAAAghJCCBofJZFqxYkViYqIcA5Q1kkSix3fbLb88bnI5KCyeYqLIm0vmM8cB0Utej28qv9ycK8ZQ9Qepk4n2bCezpdSzi/6SxOX4FxQox+MkUUvGyhRLVFxAoogUFKAsmDVr1sMPPywHAAAAIYQUNDg8Hs/y5cvxjTKUUb6bMBWkDSdjhO8VFkFRRjq6lDatImUrquq58OlBPpyyCiTGU5sWdOIAWS2+05v/P8l3slRrImMkhYX7FmSKJMVpOjKbthBVa+R7NC4egQZQBmzatOn48eNyAAAAEEJIQYPDbrcPGTKksLBQjgHKFIWKHKdo3Ria/oHv9f0H9MPHNP4byoqne56kWJc824U4n/SSPoaOZZLDfkVnLznRFUXaNpFm+pcyfQT9NI5mvEt//EDJz1LLmqRWIgUFKAuGDx++ePFiOQAAAAghpKDBEfhxAsUVnSYCCDmFkpxO2vMzLZ1OS6b7/v1jPGUmUMf/0aMdyeaWZ7s0gSwl/ufi+qOL88dAair/cIvgm+HQ77TiB1oygxaNo4n/pW8/o6LW9NxYSvX4nr6LDBSgDNDr9fhFFgAAuCaQMgWHUqmsWbMm/pxDGeVxUkQyPbyMJuykibto4k6adICmfE/3taG8YnmeS/Dnk/YiSqtBBgOJCt/toBds45x+ety+fwMbv+glpYLu/pk+30Ffb6evfqW+3SmpJXV5neKsvh8mRf4JUDbUqFEjNjZWDgAAAEIIKWhwmEymvXv3JiUlyTFAmcIpoiSSy0I2M9mKyWomK/9bQk7OHgMnNy+FJ3kdtGEmxcaRXkeeeIqNoUpe8vgLDBCUlHeE9AqqlEJeTjH9WaurxLcUi5m8DanbC9ROpEm30tbLLwgAQi49Pf2xxx6TAwAAgBBCChocxcXFnIVmZWXJMcB1T0EKG9FqWkpU5wYKDyd3FEVGk8FM+XmkOJNPKhVUsI9UTopJ9N0FegGPlaI7UYdnqVoWjR7qy2nPvhEArql27dqNGTNGDgAAAEIIKWhwSJJks9kCvw4KcL1SG0gfTkaT76m5EUYyb6P3HqHYZ6lpNIWJ5PZStdYknaKv76VjPJv/gbfuP2jpFnKmUa0Gvh9iuZjHQylNqNNdZJlA328kt+jLWgHgWuO/WS7X5R5FBgAAcBWhLxgcgeRTvPgsEMA1JvgumvU4yFbkS/8uyXdiUiSnl357jAY3pkcb0hMNaUAdeudVqjaWXnmO4gy+mzw9NortQne/Rzdp6dV6vnkeb0CPvEY136CHXqAkF3kkktxkE8nl9V2OGzjfKTpJV4MaPkntiX56gH7fQWYvKXEuFOAaKykpwQ+JAQDANaEcOnSoPAj/gkqlaty4cZMmTdRqtTyqAjhiE6dmuoKQTkgieVwap72GzSEJgoLoqF5r1xlIrfE9yvUvblaEKyEJpImkyi2oZiMKv9z2qaGYmpTWlKo1oKoNqZr/VfsG6nA/pUX58knflywiKY0UVZWSa5Ahgqo1pmr1qcaN1PFuqpFCgt33O6JKAyXUpjotKUpf6gsuNeliKLU2pTagGs0pNoxU/ltGoawRqbJR8VgVTSCSJMnL3M59Jyw7jtvVSkGtVHSqFxFmNKjVGoVCEXgSOFynGjRo0K5du5iYGDkGAAAIFQHXjgaFy+X67rvv+vbtazQa5VEVwOJ8T5flJaT+d91Q3gK9brKXhBWfvqWgyCsIKklaFh1+KjKG9JyraJCC/lu8i6u0pNGSx0Luy+3vSl9rc9JYurF51bhKLjp3qvCVppOzFF/pThu53fI7BRXpjOTx/4hL6UUJClIbSaMgl5XcHuSfZZRHahevWn1DWCASRdHJbOY567OnrT6l1wh6jXJY78qJ8TF6g1GlUiEFva798ssvaWlpDRs2lGMAAIBQwYW4wWG1Wh9//PGCggI5Big7OE3wOsluvnz+ybxkL/Y9Jrek1MvKb7n42l2RPPZSs/E8pZ6QK3l85bjPzz9Z4Hm8PL8L+SdAmTBo0KD09HQ5AAAACCGkoMEROBugUFSs9vSlEpyh/JsXF8Ev/4DnTGbCTekbll+SPANegZckqN3ucJvN11IXTMILr3/5KrUbQrlnNBo1mrOXMwAAAIQOLsQNDrPZXKNGje3btycnJ8ujKoAVpzydV1vD//2FuB6311FiLDrdOqdQFASVKG1KiCiMjlHhQtzzcUO4SYjLPZlQcGp37doqtQJ777/ETYo2PMvqkTrGqua3le8mwIW45VvHjh179+797LPPyjEAAECoIAWFf+Xfbz28BbpdbrvNknEk//05J9RKweEWB3VPalknQWcwadQaAb8keQY3xOFcy/dLDu84WvhQ5xp3tK6MvReC7uz+hhQUAAAArgZciBscZrM5OTk5OztbjisM7oH+yxcnmPxSCudlmjyo5Jd/0tk58WIZmUWbDxaUONyLt2aLXumCGfD6ey9Jcrm9F46s8C+oILp27Tp+/Hg5AAAACCGkoMEhimJOTo7X65VjuGJnbvY873S8fwyJ/klw1vF86/YjhRa7hxsrp9C+ZGeul9sI/qmsU/ZP0veIaEOokPhvltlslgMAAIAQQgoaHIHrmTkRDYQAV8Pavfk7j55WKX0/yGh3eueuP+5041uPf8jq8GzYl8+vdfsKkMlDBWSz2VwulxwAAACEEFLQ4DAajePGjcNvfMPVk1/s2Hm0sMDsVCl9t+Bx1nQo17Lt0Gm3B198/BPH861Ltuc4XJ7f1h9DJg8V0IgRI3r27CkHAAAAIYQUNDg4J0hNTVUqlXIMEGx/bs0+cMIsiiSKvnPuHq/ocnvT1x47XeKU54Arxnl7xrGivVnFvO/uyizal2XGiVCoaBITE00mkxwAAACEEFLQ4CgpKenZs2deXp4cAwSVR5QO5VgUAqXEGUwGtUohJEbr4yP1J07ZCsxIQf+2vceL1+3N9z18R/Cl9PM2HC8qwRWJULE8/PDD06dPlwMAAIAQQgoaHIEfJ1Ao0J5wVRRanO3qxve9qfpDnWq0qBlr0qsf7Fijz43V+MV5qQPXkf5NO44WbjtyWsOpvD9cvSfvWL7VPwhQUZhMJq1WKwcAAAAhhJQpODgF5b/l+JU8uEriInSdmyTd0aZy16bJjapFGXWqW5ol92iVwmPqVo7UqXEF+N+w40jhzqOFXlE6u7+KIi3elpN9yibHABUA/81Sq9VyAAAAEEJIQYMjIiLCarWmpKTIMcBVc97P18Dftzojb/vh00qFEPg5lsBdoIu3Zx85WeKfDlAhrF279vnnn5cDAACAEEIKGhwWi6VRo0a5ublyDABlUrHVlRSt79I0+c7WqW3qxnMi2r1lyu2tUro0SeapNqcnMBtAuXffffdNmTJFDgAAAEIIKWhweL3ejIwM/MYaQBmn16pubJDwYKfq/OrSJEmlFO6/qRq/OGxQNVKjwiXNUFHs2bPn5MmTcgAAABBCSEGDQ/JfHBn4FwDKLI1KEW3SJkTqI4yauAidQAL/yy/fGANnoLidGyoKp9Pp8eC0PwAAXANIQYNDr9e//fbbkZGRcgwAZZ4HPwYKFdjgwYM7duwoBwAAACGEFDQ41Gp1t27dOBGVYwAAgDKsQ4cO1atXlwMAAIAQQgoaHGazuW3btngcEQAAXBd69eo1efJkOQAAAAghpKDBEfhFUPwuKAAAXBdMJpNWq5UDAACAEEIKCgAAUOGIoohH6AEAwDWBFDQ4IiIiLBZLSkqKHAMAAJRh69ate/HFF+UAAAAghJCCBofVau3Ro0d+fr4cAwAAlGEDBw6cPXu2HAAAAIQQUtDg8Hg8y5cvdzgccgwAAFCGrVq16siRI3IAAAAQQkhBgwN31AAAwHXE4/F4vV45AAAACCGkoMGh0+mefPJJk8kkxwAAAGXYgAEDWrVqJQcAAAAhhBQ0OLRa7eDBg5GCAgDAdaF///4tW7aUAwAAgBBCChocZrO5Vq1a2dnZcgwAAFCGde3adfz48XIAAAAQQkhBg0bwkwMAAIAyzGg0ajQaOQAAAAghpKBBI/nJAQAAQBnmcDjcbrccAAAAhBBS0OAIDw/Pzs6uVKmSHAMAAJRhK1euHDhwoBwAAACEEFLQ4HA4HPy3vKioSI4BAADKsJEjRy5evFgOAAAAQggpaHC4XK5Zs2ZZrVY5BoDyo9QV9uddbP9XV96L8v9fzPeuS73xcksBuCrS09N37twpBwAAACGEFBQA4K8JgvfE3uUr56fvzDvvkWM8Pmffyp8njRo5cviIgOHvj/h2Q+5pFx9b849snPvNh+cmvT/svZ93FBXxu/idkrnw4IafJ6w+di5ZFQTx5OF1q+fO2JKLB5vB1YdH6AEAwLWCFDQ41Gr1nXfeaTAY5BgAyhNPxvJJ347+3x+H5fgM965FX3761qvDJ/z6y+xZ7KfZsz//8P2Zy3fbSTq86Ycv3nhl2FdzApNm8aTxH038ffXpEn6jlJu9buY7T03dRuQNFMW8Bzb+OHX4K78ekGOAq+j222+vW7euHAAAAIQQUtDg4ORzwoQJ0dHRcgwA5Ymg1hqNpgidSo7PkkSxSae7xy1cu37jJrZ505Y/Bmz7dtnizXtLNGqhTqt2H85bF5i0acu2DQNyx88a++3sfXzoVSk1hnCDQS2XE6DSGIzhkfqLlgIQfEOGDLn11lvlAAAAIISQggZHcXFxQkJCVlaWHANAxSAIXo/L7juxKYtKapZZ4rUUFyoVStHrsVvk8azKg3M+rRdu2T1nrYN0OPjCtdWhQ4fPPvtMDgAAAEIIvaBgwn01ABWPICgUSnmYKP/PuStrqAwxibFe77lLbM/QpVbN21uyZfsGm0aNoy9cU1qtVqXCGXcAALgG0AkKJgnPsQQoxyS68Esmpc4QsWfVr4+1jIr0izBVerTgvx89el+rKjqb8xJPxa1SuZYpsarH7ebUVR4FcE2UlJQ4nU45AAAACCGkoMFhMpkyMjKSkpLkGADKHYVGZ/ecWDC4Wv369erWrFHp6R9W7y7QiNXqt3j+04Xz0mezn3/5ffHnz7ZpmkAkXvIbqSJzVknRCVHkdNYregXludOnjJNSUZQ8lzh7ChB0CxcufPrpp+UAAAAghJCCBofL5Ro3blxJSak7wgCgfJG8HpUquuYtzz/7zLPPPjfwpZ5NasaqbXZjTErzji3b39zZp0uXTvXi1Bqe+6JToL6M1LpxucOYFV+9foRaEWtKsGUXmeXfCPX9q9KoE6I1KbHx/jEAV9WMGTO2bdsmBwAAACGEFDQ4HA4Hp6AWS6knjwBA+cIpqJr01W95gTPQ/w58ftDtdeMTdU6Px+tx2ORZShEkkhRKlT5MjkkgR8YHXx0QktJuuzGZIo2JNZvU+nNsem7gbjyBDyMbl2/fv091Y6sa/jEAV9WkSZPWrl0rBwAAACGEFDQ48CAigHLN63G5HA7PhZfIcv7pdDkdnkvc9SnxMSE/a9+C73/6Yeq3U779dsr3P7wxermyeYfOD7QP5+kRyS1veb6V+fd3v5ww6bup333/w9jh36w6JFTp2avxeVfnAlwdKpVKef6V4AAAAKGBFDQ4+G9527ZtdTqdHANAeSJEJqTVqN842STHZyiikuuk1W2QePZU5zmK6Ep1o2PDt//4yhtD3/3fu+/+79UXf1D8Z9zjz97UwCAxdWTl9v+ZN7Xh4gmfvP/m2++8/uLQ3903dH7hg0fqC3isGYRA69atq1SpIgcAAAAhJOAhrkHBzWi32/V6PU6H/l3cdG63226zZBzJfy/9hFopONzioO5Jreok6AwmjUaDJr3A/E0nflmTOWFgOzmGfyrjWNFbU7f+/FZHOb48PkrKWyEfMEttkJcbz85NutDlp/j9P5NDSBRFJ7OZ56zPnrb6lF4j6DXKYb0rJ8bH6A1GlUqFffO65nA4lEqlWq2WYwAAgFDBWdDgKC4uNhqNWVlZcgwA5ci5TOv8pOty49nlk7PLT/H7fyYDBEmbNm0+/fRTOQAAAAghpKAAAAAAAAAQIkhBgyNwPXN4uO8pI/C3CIKg0WgiIqNNYWG+qxn9jRlmNEZERWu1Wlzpd7GwMCMeIhIUvMPiToS/oFAoVCqVXqczGHx3r5LkO0MbERERHhGpVquxb17v7Ha7w+GQAwAAgBDCvaDB4fV6169f//777xcWFtpsttdff7169epPPPFEWFgYZwuLFi16+umnd+7c6Xa7eeQtt9xy33338SQOFyxYMGzYsKVLl/KKuPPOO3m2Hj166HQ6LuTXX3+dOnXqzJkzuYR27doNHz68a9eu3CksKSmZPn366tWrx44dy0la7dq1v/nmGy7T6XTypHHjxuXn5w8dOpR7jfHx8enp6XfccUdBQQEX+O6770ZFRT333HO8aH7jn3/+2b9//4MHD3IvZODAga1bt37wwQd5EteEJ73yyivr1q3jz9W3b99+/fpx3bhAnvP333/n5f7222/cAe3cufMbb7xx6623cg7Ji541axZPnTx5MndPGzduzDXhCouiaLFYeOSBAwdGjBih1+tTUlL4Q3Xv3t1sNlut1pEjR/ISX3phYERSWmKX1yWvW1Dp8pd/cvro1jeGDK1Tp06gGfmDczM+++yz27Zt43Z79NFHb7/99nvvvddoNLpcLm5Gbh+egYviBuTPyOUHmpFb4Ac/bkb+jB9++CHXiivPFZ42bdqGDRvGjBnDc6alpXFrczPyZ+RJn332WXFx8ZAhQ/hTx8TE8Oft1atXXl4eF/jOO+8kJCQ888wzgWZcuHAhV2bv3r1cDa5e+/btH3jgAZ7EH5wnvfnmm7ymuBl5jQ8YMKBnz55cIPf85s2b9+WXX86ZM4drcvPNN3OZvGhuN140Nw6/ceLEidyqDRo04Nm4wh6PhyfxyMMH9oyetiyiVqfwIz/+PGcuN0Jgk+O25flfeuklbhBe+h9//HH//fcfPXqUP87gwYO5nEceeYTH8+J45T7//PNbtmzhZuQq3XXXXXfffTe/i7cffhe3Dy+dm7Fbt25cGv/Ln5FX0y+//MLrl1uMc5IWLVp88sknXbp04S2fazVlyhReKR9//DE3I2/2PM9tt93Gb2Gffvop/8uNwJ+atz3+1LysnJwcbgFu20qVKvEGz7XiD8614hWdkZHBzfjUU0916tSJNzyuFTcd14fbZ/ny5dyk99xzz2OPPcbNyBsSF8Lr5euvv+aK8cq94YYbeAvnZuRhXiiv8WXLlnHrcbPUrVt30qRJ3Iz8kbnCPDI7O/t/77xlqtSg+m2Dpz7fskfPnqdPn+Zm5F2Y68Ptw4vmOvN2xTvF4cOHuRlffPHFpk2bcovxDPzBucKDBg3i7YdryDsIr1/eQgLNOH/+fG4f3he4tbk+L7/8MjcjV4NrNXv2bN4gucX4I3Npn3/+OTcjtzbXij8If3xuf27GKlWq/Pjjj9yMPJ7f9dFHH/EG8Oqrr3L5nAFyyb179z5x4gS3wFU91PCieZNbufTPaYv3p970pOh2SG57zoJ3VQqy2mxffPHF9XWoGTVqFBfFq4Ob0WQy8Wrq06fP8ePHuRm5bflAyjsyj68ghxpe+pNPPsn7Y3R0tP+PGAAAQOgouQMhD8K/wD0V7nnExcVxd7By5cpt2rSJjY3lTi33NqpVq9axY0fu8vJf+qpVqzZv3jw1NTU3N5cncUeTJ3GnjTs3PFuTJk24G5SVlVWjRg2ehydxB4X7Clxm/fr1uaeVmZnJs3H5N910E3c1uOfBc/JbuLvDyQa/hSd16NCBe2ncfeHyGYf8rqSkJJ7atm3byMjIoqIiHs9lciG8LK4z16ply5bJycnc7+FJgVrxcHh4OC+OO8o8kvu7vCyexJ0YLoE7UjypYcOGnNscO3aMS+PyeRL3v7k1eE7u9HOiwrXit/CkG2+8kTtAPJUn1apVi7u5PIk7iIFacVepqPB0XHJViz5NIEmUhKphlhopsW3bdeCubaAZuZJcPmcv3LUNNCOXzOHZCp86dYrL4ZpwQ/HS+aOdrRX3PjlxCjQjfxxuEC6BJ3ELcBtyS5ZuRm5DnsTtxp+R38jlM05vSjcj14ETv5o1a3IjcPncONx35DL5I3Naxf3ys7XiYe7Unm1G3gx4WVwIT+JuMa8prhU3I+Nm5NkCteLNiTu4gWbkVcOLDjQjV0OrVh4tcIv6hBtrGdu273C2GblJeUFcJi+Fy+QG5741tx7XqlWrVtyR5c2MJwWakTc/3hICzcj/cjPysgIV5s/FfXcuoVGjRvXq1eNCzjYjb1Tctz7bjLxofi9P4mVxbTlHCjQjb/ylm5FL482YF824/vwxExMTeRLPxnsEL47HB5rx7D7Czcgf6uTJkzzpgmbkfYS3n8DWyIWUbkbeFLnO3FaBCpduxjp16nAzcq0Czci14u3B7XTEVa5Zoq18T/vK/C7e/nkSNyNv9pwS8KK5nNL7CDcj1zywcjnkRXMzckIYWLk8c6AZA7XifYQ/OE/iNcvNFWhGbhP+mNz1532B5+Tm5fY/W6vAPsJ15kn8GXkzO7tyOdngbZvzK140T+U5SzfjVT3U8KJdTnu2mVyGVEHyKgSpbpS1RvVqVapU5bV5fR1q+LPwxy/djIF9hN/I+z5Xj48hPIkryeWX+0MNz8MfhAvhZfn/iAEAAIQOzoIGB/cSuNvHPVdci/uP7Tp44tWpe9Qqhd3lHdqnVtuGqXgyyyWt3Fs8ffHe8c+2lmP4p04US//9bOkvQzrJMVyEU2LRbf91Q85XCzMNGqVBq/zs8QbxcbHyZLiecTL84IMPDhkyRI4BAABCBfeCBofgvy2KU9BACFdOkiSXy1VcdMpisQQeK8qNWVJSUlx4yul04iuSi3HjeL1eOYB/gXfYwJ4LlySKosfjsdvtNptNEBQk+H4wpqio2FxcFDjDLM8H1yeVSqXGL7IAAMC1gBQ0OJRKZc2aNfkvuhwDAACUYTVq1IiNxQltAAC4BpCCBofJZNq7dy9uqgEAgOtCenr6Y489JgcAAAAhhBQ0OIqLizkLzcrKkmMAAIAyrF27dmPGjJEDAACAEEIKGhySJNlsNtwcBQAA1wX+m+VyueQAAAAghJCCBkcg+RRFMRACAACUZSUlJYHftgEAAAgxpKDBERYWNmvWrPj4eDkGAAAowyZOnNinTx85AAAACCGkoMEhSVJRURHOggIAwHXBbDbjLCgAAFwTSEGDw2q1Pv744wUFBXIMAABQhg0aNCg9PV0OAAAAQggpaHAEfuBeoUB7AgDAdcBoNGo0GjkAAAAIIaRMwcHJZ2xsrFKplGMAKPN83xsBVFT8NyssLEwOAAAAQggpaHCEh4fn5+cnJyfLMQCUefgNJajIli5d+uyzz8oBAABACCEFDQ6z2cz5Z3Z2thwDQJmUV+xYtjP359WZv2/MWrU7zytKv647zq+f1xzbuL+g2IafSYSKokuXLl988YUcAAAAhBBS0OAQRTEnJ8fr9coxAJRJMSbtjsOF3y87zK/F23mfFWesOMKv7xYfLLK6wnRqeT6A8i43N9discgBAABACCEFDQ5J8l3Thx9lASjjlAqhamKYQavKOW0vtrp4vy0wO/OKHXGRuqRoA0+V5wMo72w2m8uF0/4AAHANIAUNDqPROG7cuJiYGDkGgLKqfd34pjWiSZICCadKKUiS1K1FSrUEPJoFKpARI0b07NlTDgAAAEIIKWhwCIKQmpqKJ+IClH0x4dpGVaMSovReUX4gUUqssXlajFGnCoQAFUFiYqLJZJIDAACAEEIKGhwlJSU9e/bMy8uTYwAow+pXiWpTJ87NOag/Cb2tRaXYcK1/CkBF8fDDD0+fPl0OAAAAQggpaHAIgu+KPoUC7QlwHUiK1reukxBu0JJA0SZd12YpBi1OgULFYjKZtFp88wIAANcAUqbg4BSU/5YHElGA8sftdrvKERI9ieHKNjUjlQJ1qBetVXg95esD/hu8ruW1DuUa/81Sq/EIaAAAuAZ8z+GQB+Hf8Xq9uBf0H+AtkLu8dpsl40j+e+kn1ErB4RYHdU9qVSdBZzBpNBok9heYv+nEL2syJwxsJ8ch0aVLl8WLF4dpeAsvH6tDEr1iZNWmdbu/sHHKi6KjWB5d4Tndnmo1a+3bt4+HRVF0Mpt5zvrsaatP6TWCXqMc1rtyYnyM3mBUqVTYN69r/DeL1yAu3gEAgNBDChocFoulTZs23EdPTEyUR8GVQQr6d12TFLRNw7rra3SnHo+Rvfz8kKBKrY3UmQpsReT1yKMqOK2Bti1PnP5GTpGZI6Sg5ds999zTo0ePRx55RI4BAABCBSlocBQVFUVFRWVmZqampsqj4MogBf27rkkK2r5R3TXtn6EHnqMSpzyqHBBFweOSNDo5BJ2W1i2s9OG9Wad9p4WRgpZv9erV69+//2uvvSbHAAAAoYIrcIIjkMkjn4fyzOMmTj9djvLz4vyTP9cFIyv0y0NuVzm51Br+P06n0+PB+X8AALgGkIIGh16vf/vttyMjI+UYAK4BgVRGMpj8r3AyhJFGQ3TBF0MSKTSkM5HOQMpSyZakJK2R92RSnn9UVGh9I1VKOu8LJgVpw/yLCCyr9CuctGoSuCY60l8wg79KatVFVQK4BgYPHtyxY0c5AAAACCGkoMGhVqu7devGiagcA0CIKdS+lDJ7IS35nv6cRoum0MJfaH8mKcNIUSrlEzRk2U/bZtHGFVQknTnjxxljEe1aQBs30WkXqc6mpgKV7KL16yi7gFSlf7XFQtt/oiVT/AuaTktn0IoZtOg7WjSN/pxC2/aT00G5m2nNNFrMM5x9cZV+oxMFpMSlv3DtdejQoXr16nIAAAAQQkhBg8NsNrdt2zY3N1eOASCUFAJ5SujQcpo3hCa9ShNfoUmv0UfP0Hdj6fAJcpf65QmNlvZMpC/70OihtDqL1IGnWCvIcIi+eZLeeY5WbSc6kyIKSsr6lj54n1bvIkPgFxQFEjhxPU0L/0dfD6aJr9HE52jUA/TeA/TV6zTxVZowiBasI3sxrRtJo/rTJy/76+N/cZVGP01zfqc8J6lw7IVrrFevXpMnT5YDAACAEEI3KDgCj+XAwzkArgUlKex0YCqN7EWZj9GkgzQji2bm0pghJE6m4ffTAc2ZQ52ChGO0O4Ni6lBqTfptCglnslNJSWGJ5N1C67+l/So6e8pToSOD0Xf1rHwmVSJJICmVBm2jKdk0I5u+m099H6KEh+irbJqeST/m0MsDKDmcXC6q343e3Eczj/vG82tGLr1/F62fSjPTSYsrJuAaM5lMWm3gixUAAICQQgoKANc5bRjtmUGz3qVK4+h/DxK5yW6lkmKq8R8a8Ck1FGjONFL6c0qlhg58T9viKOEualdIlnm0s9QJUqeNGt9IKQ1pwY+k/uuuuURuBznt5HT6Xl4vSV5yuf1j7OT2+G8cFUj0kicwm/9ltVLr/lSzhLLX0iEVJ84A15AoiniEHgAAXBNIQYMjIiLCYrGkpKTIMQCEiIrUhyhzCx1KojseOnNvp5/HTql30SPT6JluFHjyp0JLu+eQUEjVbqAqDSniJG1be+4topMibqGqevK+TyuKfBf3/nvn9fAl0hh9mafoJq8vRQW4htatW/fiiy/KAQAAQAghBQ0Oq9Xao0eP/Px8OQaA0BCUVJJNBXZS1qMU/XnPrZVEUurJlECRRn8qKJB2O605Sro0qtKKYutS5Shattz38CE5G5TIK1CtllS5IU35nnTqf5clSr6TroZIMpnIFOF7RYfRkv/RtiKKbUHVRF8WCnDtDBw4cPbs2XIAAAAQQkhBg8Pj8SxfvtzhcMgxAISGIJDHSe4I0tWhBPf5Zx39WajXTV7RHwh0fAkdrUn121OtGIqoSnVqUc4MOqoh8Uyu6bVTREtqeDtVXkBbS3xj/nEWqjbS8cU0sRu92JUGd/G9XupKI3dT6/9Q39uJbBdWFSC0Vq1adeTIETkAAAAIIaSgwYE7agCuKa/vFtCLf2ZfEkilJYPBl6kKato2m5LbUNMOlEgUV48a3kyxGbT1EHlEOdWUvCQqqHoT6ppK30wkC4/6pwdJzn7VJoqtSSm15FdSNer0It39INVKIufFdQUIKY/H4/XiXDwAAFwDSEGDQ6fTPfnkkyaTSY4BIDQkiTQG0prJupsKNOeftBRI46T8XbToT3JwLppH6zeRazdt/pGmj6P0KbRxN3k9tGaJ7+ZMhf9gyJkq98kNyVT9DiqcQtuzySX+w5tCPXZKbEV3fUaDxtELX/hfE2jQE1Q1hsxW34IArqkBAwa0atVKDgAAAEIIKWhwaLXawYMHIwUFCDXJS/oUSowj3THaX0CqUs+ZVeiJsmjdVzRqLDkFOp1O2xPIcoA2fU0/fUKzxtKKVaRNpYx5VOzxnS8N4P93G8jQiB5uRCvSqdjmu930n+Bs1kW2IrJYyFIsv8wW3/NykX9CGdC/f/+WLVvKAQAAQAghBQ0Os9lcq1at7OxsOQaAEPGQM4Xq3UbtE2neeCrijFHhO6WpUJHgpJ2LaNNaqtGFoiy0YBJ5bqA3FtN3++jb/b7XpHX02qOkXEDbLWTjw+GZzFByky6S2rxDztl0KJtsEo6UUP507dp1/PjxcgAAABBC6FgFjeAnBwAQMh4rVbqBOvQhy7v03rdks/kurxU0tGsMffcm5VWiF14i2z7auJPatCOjjiwlZOec00xuJcW0o5oC7VhGVot8La6PRJKSKIl6N6c/55H1BKlK/XzopeFucLjOGI1GjUYjBwAAACGEFDRoJD85AIDQEcmloKr305AVFPMqDUihexLoLi29PpoiXqf351BKFmX9SfuI6nUgUySJgUewcJ6pIXV1al6XVn5OB3PI6iXPmWfqSiIJKmrwPnU0EVl9d4RelkgeF7nOfxivQL6rcD3O834kBqAscTgcbrdbDgAAAEJIQNYUFKIonjx5Mj4+Xqn8Z7eNVVy8BXI3yG6zZBzJfy/9hFopONzioO5Jreok6AwmjUaDc8sXmL/pxC9rMicMbCfHIdG+Ud01rZ+gPi+RtVgeVdYISpI8dDqDLJxbcsz/aikikWJjSbKT8zTlnvI9n1av4sNe4B2+TFHykjWLTnspPpbMBaQIp6h4UnnlfJKzUPM+KlZRZDyFG3k/948tjUuwk6WQs1RKqESKMzMoJCrOJodEpmTSK87LTssynZHW/1FpTL+sU761zIc1J7OZ56zPnrb6lF4j6DXKYb0rJ8bH6A1GlUqFffO6VlBQoNfrjUajHAMAAIQKzoIGh8PhGDhwYFFRkRwDQIhxMskHtPgWVLMl1eJXK6rTiOKjSXSSpCJtEqU1pbDS+SeTfIlrRE1Kq0OGSKpUhxITSOU5lzFyThtZn6rXoohL5p+MSzBQVCpVSSVlqRlEgSKrUXJ1Mlw/+SdUMCNHjly8eLEcAAAAhBBS0OBwuVyzZs2yWq1yDADXgOT7KRTXmZfTQR6P70Qlj+dkkseIF6eDEnmd5HL6rs51O33zn300boDX4Zvq/csLcb3uCy/EZV4XuV08EaBsSk9P37lzpxwAAACEEFJQALgCnF9pdGQg0pvK1yvsojEV+GVQkc6A+1crCP8T9HApNQAAXAO4FzQ4rFZrv379Jk2aFBsbK4+CK4N7Qf+ua3IvaIv6tTdHt6DOfchRbk71S6RQklpNTqc8AjQ6ylgfs+DzAotvLeNe0PLtxRdfvPHGG++66y45BgAACBWkoMHBzZifn8/5p+Lc7zrAFUEK+nddkxS07/33r1680KBWUXlZHfwxPJKixKOJUDvkUSBJLlGsXKveiuXLOUIKWr6dPn1ap9MZDAY5BgAACBWkoMFRVFQUFRWVmZmZmpoqj4IrgxT077omKWi5dPCk47M5GR893kyNL44uBSlo+VavXr3+/fu/9tprcgwAABAq6HkFEzpkANeL/GLHn5syj+YU/rL6qNuDpwZBhaPValUqlRwAAACEEFLQYMIpZYDrxdG8kiXbsz1e6feNWVaHRx4LUGGUlJQ4cSM0AABcC0hBg8NkMmVkZCQlJckxAJRhp8zOLQdPFZa4eLjA7Fix+6Td5Q1MAqggFi5c+PTTT8sBAABACCEFDQ6XyzVu3LiSkhI5BoAybPexojUZeUqFQhBIkuj3jVmFJTgdBBXLjBkztm3bxgOXunqn1CU9oby65/9fKq41AgAoD5CCBofD4eAU1GKxyDFUNFfWLbr8XPKUczNcsqN1ZUuBv2axu3ceKcwqsKmU8s3bh3MsOw4XOnAiFCqSSZMmrV27lgcEyVK0f8HkD0ZN21Hika9JFwQx++CKRT98tTorlM84EGx7fxv7+7It+8yXWypXrCB769LvPll6FEdEAIDrFlLQ4MCDiCoiySOa9y+btemI2eEuvf4lt7doz7LZP06fMuVbv28mTf5h3vLNBSSQl0oOrJrz0w9nJn09adLMuUv22OX3C67MzX9s2rE/33puixLJenDlzxsPFlid2MqCYd2e/C0HT4mS5BV9PViPV+Lh+ZuyMvNwFQNUICqVSqlU+obEwoIdM95789Xn3l58wHnmvmhv5s65s8cMnX9Qji/iO9DtW/rTpqNWl1se9e+VbP32ze9/XbnttBxfgpRzdOWcj17+Za/v4AgAANclpKDBwX/L27Ztq9Pp5BgqAsnuzZw16N6Pfs88fV7uIlkdB354qfdDz73+1tvDhg17d9i77w56Y+gHH03ZY5e8UtbsN3o9/N9Br7/1nm/S//73yv/ee+eL7w/m2P3vtfz58YDRE2ZtP+mPfCQX5fzy6j2jf9mdY5ZHwb9yMMdssbuTow0RRg0n9bHh2oRI/YlTttzCwDoAqBBat25dpUoV/6Cg1EVFUIx26Tc/ZxbJ2Z+gUhsM4ZF6dSC8BLv3+M8v3ffp0gJbqavYLzwx+TdPVCo0YZFGvU7zV30TpUqnD48yXL5iVwoX9QIAXCtIQYPDaDQuWrQoLi5OjqFCEEipC1cYtUrF+acnJVKajPTElzsPHT106NDhQ0eOHZs3uINx1OtfZ2m4r6dRPTh61e7DB32TMo+fXPTJ7c5BbV5f4LWL3LnScmJk0KlK7Zm+pZi0Rt3Zy0bhXygscdavEtX3pmr9Olbv3DhJqVT0ubEavx64uXq4QV3iCN7pHICy7auvvrr33nv9g16vN8qguGfYGNv8n3Ydy/Y9pusiHltBfl5OdnbOqSKLy3f60WMvzLNrSTLn5BVLoqukqMRssXv5KCVKbmvhyZNmh8izCV67xWwJPPpL8lhP5/rk5BSYHR7fhe+Sx+20nj5dbD7Fo81efi8f8ZjvH6/XVpibe/KUzXuluaLk9dqLuHj/QnJzi2xOL0kui7n4FBciz8NzOYtPma1WlygI5HVbi3Ky/W8wOwKLkVwOm7XwdGFRwcmTJy24RxwA4GpAChocxcXFnIVmZWXJMVR03JVxO6xWqxwaNBGKxEZ7jhzxBYLgcdqsZ06cqpNaPjR03isHRo8/5Obel4B98qqKCtPe2CDh7vZVurdM6VA/XqkQ7mhTmV88pmmNmDDdvz+zAnB9aNOmzaeffioHokfQaioNGH//6p/25h/LlceexQe01Z/e2KxxcqVKyZ36vvL7YfIWZaa/3GXYJpr+QtteI39bN+WDB4YOfmWy77LdIvPmUT0SE5+emX/CTXT4m9dfer3XqPUuMp9a9d6tSUmVkpKSk9sOnLb1AJfqzdj464e3dX7khe7JSUkv/lhosWn9FweriEp2bv78nqSUWr0mZ5a4riwHLd67Z+IDXHxSwH3j5h4m+4r3Xnrspps+2yPPw3PNeuSmF8d8svw0V/XQsg/7J1dKTqqclDRw2rEi3+McbKtmfPnBnZ3vfPTGatXqvb+ED+WBtwEAQPCguwtwNQjch9LqDQY5zMzZnblsZ/206nJ8HlWYJjE2bW364kNe7gdecEYVrh60NMA5klKSqj37kvDu1PULt9tJxVkg892VLklHvr+n54Enpv+UKRX8flda8bf3v7lKndbn46XvtKQHP98496072j1wQ4PTaudvq7OIPMqco57GTfeeyHG6iLKOhlVObNcpxbzlq7fumdxwRtGxvCLPgjv2jRo74sstZlWEOn+v+/AW49uW3Lwx/aLCDU6PV2OKzd+5cPhbt4yL+WRn7twnqpi0V7Kz5u9cPGn4G1sHpNvy8gucc/9TfcfsaXPX5re6787aN8f98OcWebaCpfNXNE1Na90iNvuPD3/46veav3tOnzyyediBV5+Y8NseCxnDFIeW2uzaxl9ZTh4e0pkI30sBAAQdUtDgkPwX8Ii+y46g4pGk83YkhZoEt0I1/bmG1VJ9qiTH1H1ydk6b8dMeTnbwhnLR9/kGjb56/aYOt8jbkYDEKGSu7MQKQPlksViczrPXmfr3Bj6S3fbkgEPp2Tu3ZXsMvlulfZdlSNLRxT/9cUub7s3bpVJMt0d7N69ec968JZbw6PhwDRmiEmKMRMYWbRvEVo45crzI6ty0+uBtz90h5Bdo3IVb1621FLnSYk3mQ8UHrN273R1RKS5CecttnbWF+sMnsryCQgrTKmvXqG9MiAvzZbyCNsq5bOIHU6auqf7+3G+eqquP0PmfmfT/i6zR+eXhG9eNv1MfFxujuf2hByOMKWZzSXjz2k3CG5t+XLiX55HIvOzXBW2q1qzVOGrv1uXWXbm9+nRTRsWnNHvrlft2LN2/LbvAKSi9MWHGWjXqKU0RRk2gbAAACCqkoMFhMplWrFiRmJgox1CRqHSmo3++8cb9zVu0aNX6rqcenpKhVaklscW9bwx996MPR40YPuqTyaPef/uZ2w06xSW/pPB4qbjokNvt9d3K5OVeoEJx4Z7p4fF4dgYABM2sWbMefvhhOfDhA4zooUbPPVsv50T+urU5kUYljxJ4vKOoRNz6+f0d23e8ufMtdz/1waxt1qLTdvJ6RInf4vbf1RlXLdVtM2xcvuSELXNvUsO76lafvWa/bef6rTVihDrNKufn5xbsbNmuiSrwGNtGTZtmKaSszCyFoIjUauvXrCo/3lajUSxfnneq5ISujm1plqj3j7wCfHhUGyLjkg1rX23f5sYbb7ypy38m78+xGFT8Eaql1Uyr7/36zyz+NLZVs4/d1rtJg9rxZHEJ2dtXf/lUl5tvuvGGm7u89ePJ3UetbqfvUJscbqpeLUYuGgAAgg4paHB4PJ7ly5eX+kYZKhBJ9BiSGjZs1blzp04d2zZvmRomioIk1rn5occeu7dP3wceeLD/Qz07tqym4Q7ehac4fVmlZPZmbvtJ07hOvEKVEB0tmAWz3RaY7KMkg55S46K1ajxwGQCCZdOmTcePH5eDMzgPNHR9qgUtPrbhp0V5UQYFH6P4f6LHk1irVdsbOt3UrlXPBwe/9saYJ28yOvxJo/zDLkQNqqWKlfXpK9YfXGNuWCW6TafKOws2LpilbqSq27RphFcUNEaL48zfSKerRKcQNRqNKEkqhcJk8uW6PqLXbUxs3PWZ+2+przrxwVf7/SOvgCBQwfGV0z58Pf1Uo1tvuummW7q1q20yar1eD+em9Zs1at8xYsr8I1S09pcDabc3q1VdT16X260zRNZu2bXjTTfdfEP7B976fNTDnapXEhwuUatWGc/cRgEAAMGHFDQ47Hb7kCFDCgsL5RgqEq/LntDg/vtfHDVy1IgRrzz5bMfKLi/3zVy+B0HKs5yHu1xagzHMP+zrdR3b9OenvzoeeKxNPO+PLZrXO7LvyNa1R/2TmVByYM6vRa0apkZFcC8NACAohg8fvnjxYjk4T/JdrVXS0VXfztxerFMJpKSoalVMUrv/jBg+5H/D3ntn0L03p0rhkUZR8rrddNrqMvhvG1XVaZ7WoG7h1uVr99VrV42qtL+j+MiClTsjo7R1KvseBBZvrLl93lpzoNuxcfmOGIs6OTXJK/qed+s9+7xaj9tTp1H1+p3u6NG05T2qtW/8mBM4O3o+haDQ6n3fz5Vi3bP5t3ljfo97dPz/hg0b9ub9KZWNCskr+LJqTb1aDTvcZfnmjwM7Z25Oa5cWk8THX2WsKSyiQYMG9776zrv8hv892SGuRpJJRTrJx/dsXgAAuFqQggaH4HtkwyUun4RyTvK4RLdXojO/5u4negTJ6yIef/Gls5LvWlvP4U0Lfv1l6aI/5/+5aOl3k3+aNWdP5SFPtU70PYko4cbHWxvVm/78duKKJYsXLJz72y9TPv/xcKMerWokhMtlAAD8a3q9XiU/c0iSRK8r8CspfmE3P1svvpqU+ftu/6FNkXTDQ0+b90ydNunHFat/HT1y6NgvvtuaS3pFWEySceOS6T8u22+xEhlrNowNq3p89Yqorh1iiWpUDVu4PDtWYaydzAlfdFzt6h2aHfh99MJf5/+5ctTP2+NqxbesVYVcLrfH5fScyTMl0eO02UqKC8jQ7qbbn6u6YvjQyRkFrgvyQanEcmr70kUL5/3xxx/z5/8+97fFO04UnlIbw8O1xvwtKxbP/2PBF6N+3GDZlye5HA5+gzoqPqXtXTtnjfxuW9XeDSpFcvWIajfqWqN1vc0z3l/x5x9zF07+31tDfl55pFgUBMntdrnOVgkAAIIPKVNwKJXKmjVrnvlzDhWDoBC0Mak1kiK1qvMfl6EQdDFVqiVFqJUX7mCCgjRRaY2Pzv3fi/+5574+D/a5q/sTH/5mbT8n/ck68qMnE7p/Pu6+upVW/qdzz3vvv6/fY899duThpV/0q1vZ5L9qFwAgGGrUqBEb68/FBLXaFFulTsLZq2GJqt/6wEMvP9WlalK4//r/pC4fzGy1eeznj3W98Z5JG6Nbv/hjnzqkUFTt1Pdu5eZPnxj/6459RUSRiZq4ag00ijbV9XywMtZqI6jq3dAotaHvSeD6xMZ9B015wTPuvsf63dv1nWM3vfbkC71raERJEx1fJS3O6FsKU5qS05Lio0x86BTSKjW/5Z3U39+cvMPqOPernkSGsDhdZNTKT+/r279fv34PPnj/vXf9Z+QP81wtbriv2zO15n3Qs3e/+/vOrjPuhb51mkfYzMW+92ijE+o3vmvJ5CmNn+pR1ff4JN/No5XaPXn3432ld7v0fuCR+wYd7Db7rftaxSncqrCkxJTUKNz4AABw9QiXOE8D/4goijgL+g/wFuh2u+02S8aR/PfST6iVgsMtDuqe1KpOgs5g0mg0gTPMcNb8TSd+WZM5YWA7OYZ/KuNY0VtTt/78Vkc5hvPxMc3JbOY567OnrT6l1wh6jXJY78qJ8TF6g1GlUmHfvK7x+uU1GLyVyJ2JMrxBiLl5Kyb16pr36umRt5j0f/GUI+4SYbMGALjakDIFR3FxsclkysrKkmMAAIAyrF27dmPGjJGDICjbX0iYCw9tWLD2wVtvUKn/+im7yD8BAEIAKWhwSJJks9lwShkAAK4L/DfL5XLJQTnm2bX88/71o26469NGkz/tGq7H/TIAANceUtDgCCSfoojnFwAAwHWgpKSkQvyQmLJK/dtfGDvnh+kzXrkvQnP+ffsAAHBtIAUNjrCwsFmzZsXHx8sxAABAGTZx4sQ+ffrIQfklCabY6s063tG10w1VwnCdLQBA2YAUNDgkSSoqKsJZUAAAuC6YzeaKcBYUOScAQBmEFDQ4rFbr448/XlBQIMcAAABl2KBBg9LT0+UAAAAghJCCBkfgufb4URYAALguGI1GjUYjBwAAACGElCk4OPmMjY1VKvGkAwAAuA7w36ywsDA5AAAACCGkoMERHh6en5+fnJwsxwAAAGXY0qVLn332WTkAAAAIIaSgwWE2mzn/zM7OlmMAAIAyrGvXruPHj5cDAACAEEIKGhyiKObk5Hi9XjkGgPLD/7O/snODpYZKTS89/iJ/Mem8UkoPyv9/3kiAf4//ZpnNZjkAAAAIIaSgwSH5e4f4URaA8kgQPPtXTH7zjUHDfy849xMPgn3ttDe/mvjdphz/08jOEqzrp//vmb6dO3Xu1Klz586dOnbs2q3Xy4uKHCIJ7q1zPhr04NlJvn9v+3gLOfzvE7wHNkyf8sHgOftLFSg4N83+YOK4L1Zlnb8UgH/JZrO5XC45AAAACCGkoMFhNBrHjRsXExMjxwBQnnjzMjfN/fLjz0a+t7lIHkXkPrJ+zsrVGzKL5fgM14GVM7YePBVW5YZ2rZq3bNmqUaN60uYhXyw+5CTXsc1ztuw8rEq5kSe1aNGiafPmylUvP/3d8oJTvm+xTh7dtG7+z9tPBsoJ8GRum79q+YpDhXIMEBwjRozo2bOnHAAAAIQQUtDgEAQhNTUVT8QFKJ8EUhnrJFO44uj37263nhmp1ofp9Tr1hYdRPhwIjbs+/Nbo/703fNSIkSPHfPTRmzftHbNwd9Fph0qlrNv+nsEjh/KkkaNGfTRq1Nh+4cvnzFq9+SiRUqPR6cNMWpVckJ+g1hr1Br0GBxcIrsTERJPJJAcAAAAhhBQ0OEpKSnr27JmXlyfHAFCuuB22ak1b3fHsGwnpo8ftL/7ruzo5bxTdLrtNDogsbqHyqRK71+MWBIXHZTefO5VK1e75+b2YrcszNu9zEfJMCJ2HH354+vTpcgAAABBCSEGDQ/DfpqVQoD0ByiVBEK3WiPpJze7/NvGDYb+aC91/cfgUFApbcd6xw0UnT2RmHT+8fe+KXxYcv6NetbBIo/cSN4wLKXXzt544nHvYplLhEAKhYjKZtFqtHAAAAIQQ+jvBwSko/y0PJKIAUB4JotNmUFVu885005cTDha7SKE8dwD1OF0Bvqdia8KiNv70Uf+bopMqV0tNrdGk0X2T6k+f9UTLcI3K7b7EM8sqpzYyRMQLhMeZQQjx3yy1Wi0HAAAAIYQUNDgiIiKsVmtKSoocA0D5I3hFEjSqts/d+fPrPxzMznXr1Aq1IbIwM/3THjqtVm8IM2kf/SUrr9hb0uGht+fsED12s9liNp8+eeLzWxThSrpMkpl5dKu9OI8EheT/6ZWLvsqS/OQAIDjWrl37/PPPywEAAEAIIQUNDovF0qhRo9zcXDkGgKM2mvgAAF9HSURBVPLIlwfqwms9PaLjr0MWZRw76DEonebwKj0e/WrHzl07d2zbtmv4rSnRWrtLodGbwkmhDQsLM5nCwozawF2el8wj9y3+Ia6RsVZyLUOkMVodZz6W45Sn+Kg1ihpJ4SmxCXIMEBz33XfflClT5AAAACCEkIIGh9frzcjIcOE31gDKP6UyvP2zg+ut/vjb39ZtL9CptKQKr9KwQf169erVrZ9sILVClCRJ9Pquyb2IJKk0+vBIOWJ7v+k7KrJ1lzbN0gSqXKVWZHTqb0OnFMgTOT8d+/Hm06fDWzWNlUcABMeePXtOnjzvB4AAAABCAylocASuksO1cgDlk+R2Wm0lZueZrFIZdetTdzZQKykvy+q58Opa0Wkrttrsl7rrk0igrQu/fqX/I/373f/A/fffd//9A9JrvvL8gze291/Fn9K+b++netf+vfv9vqkPPHD/bc+vSq7frXf/m+L87wYIGqfT6fF45AAAACCElEOHDpUH4V8QBEGpVHbs2FGn08mj4IqJouhxu/KLbCv2WpQKwSNK7WqaKsWGqdRablU85OkCB7Mte48X92xdWY7hn8ovdizZntvnxmpy/FckUQyPr1mrSesqEfKY8Jq1YsJjGzRs06x5rTiDPDJA9EhxtdrUq10j9vzxfkpS6ZQKkQSVUqlQqVTJtw0ZfW9jrUHwfYWl0EdXqdGktmPD2uMalUpJHlXaXa883Kt17fBL3iR6dXGFvMzt3HfCsuO4Xa0U1EpFp3oRYUaDWq1RKBTYN69rGo2mTZs2qampcgwAABAq/l4P/GvcT9u4cWOzZs34j7o8Cq4Mb4Fut9tus2QcyX8v/QR3cx1ucVD3pFZ1EnQGE7cnurkXmL/pxC9rMicMbCfH8E9lHCt6a+rWn9/qKMeXVSr7OzfIR84zW+b52eG5CRdljaXecxkXvSXgMqOvLlEUncxmnrM+e9rqU3qNoNcoh/WunBgfozcYOXvGvnld27lzZ2xsbFJSkhwDAACECi7EDQ6z2dy2bVs8jgigPCqVaZ0bLJV9nZ+JXWpm2YXxxS6T1F1mNMA/16tXr8mTJ8sBAABACCEFDY7A2QCFAu35D3EDlu5j+0J0ui8DDRMs2Mb+WmA39LfRuYaSR/rJo+D6ZDKZtFqtHAAAAIQQUqZgQgr6DwT6sgqFkv+TR/lHBu40Y/IoOIPbhv+TA/gXsMP+tcDex//yvui/iNjHt19yw6Hprn+SnxwAAACEELoRwREZGWmz2W688UatVss9ts8//3zJkiU8YDQaIyIiXC5X+/btA0/WefPNN3fu3MkDYWFhPHNhYeHdd9/NIXv00UdPnDjBfTuTycTh0aNHn3nmmcCk7t27WywWvV7P7+Jw8+bNw4YN4wGVStWyZUuPxxMTE2MwGHjM77//PmnSJB7gwmvUqMF1q1atmk6n4zFff/313LlzeYDnjI2N9Xq9zZs3V6vVPOb999/fsGEDD3D5PNVqtd52221cEx7z3//+9/DhwzzAteKPkJ2dPWDAAA5Z7969T58+rdFoArXavXv3a6+9xgM82w033OB0OsPDw7kFeMyyZcvGjBnDAzxzvXr1uN9TqVIl/jg85ocffpg1a5YpPLJnjx6Br+S5tP79+5sioseOHbt06VKehwvhorhAbuFAM7766qsZGRk8wDNzmadOnbr33ns5ZPzenJwcni3QjIcOHXruued4gD/Orbfeyh+NP2CgwvyRhw8fzgPcCNwU3CBxcXGBZvztt9+++eYbHuCmq1q1KteKGzOwcidOnDh//nwe4Dm52bnxW7VqFbgv7t133+VVwwNcPn86XmW33347h+w///lPZmYmD3CtuCa8onl1BybdddddRUVFXHigVjt27Hjrrbd4gMvkzYY3Ht66As24ePHiMR+N6tfvgYzdu9Oq+R4iUrly5cDK/f7772fPns0DvNzExERu4YYNGwbupP3oo49WrVrFA1wIL8Jut3fq1CnQjIMHD963bx8PcK24EfLz8++//34OWb9+/fLy8rgOgWbcv3//iy++yANc+S5dunAhgdJ4zJo1a0aNGsUDXELjxo1FUUxISAis3PT09KlTp/IAVzLw1JNatWoFmvHLL79cuHAhD3A5UVFRbre7bdu2gWZ8++23t23bxgNcPr+xuLj4zjvv5JA9+eSTx44dO7uP8PBTTz0VmHTHHXfwnDx/oFZbt2595513eIDLbNOmDZfPSwmsXF7uV199xQMdOnSICA/ntuK6BZqRaztnzhwe4Dnj4+P5szRp0iSwj4wcOXLt2rU8wOVznXl/79q1a2AfeeGFFw4cOMADXCte3MmTJx988EEOWd++fblVuYRAhffu3cttzgPc/h07dnQ4HDw+sHJXrlz58ccf8wCvtQYNGnCtkpKSAs3IOwjvJjzAYUpKCk+qU6dOYOVe7UMN7yPvf/DByy+/zBuhUqmyWa3cILx+eRHX3aFmxowZM2fO5AEOk5OTeVL9+vUDzfjpp58uX76cB7iQinOoGTFixCuvvMJLBAAACDE8jig4SkpKevbs+dJLL0VHR3O3snbt2tyV2bJlS6C7wJ0k7hBz/5hbmzsZ3IFbv349T+IOLneC9+zZU1BQwJO4V8R9OO7Qc5+G+yjcI+cedlZWFpfAxXKvNJBIcEeE007uCXGPh+fkzgT3aXiS77myHg93ELn/xGXyJO5qcCHcb+YxXCB3yLgLxZ17XjR3TXjRmzZt4n4ST0pLS+MOOof8Lv44PGnXrl3c5+NacZeX85x169YFatWuXTvuJnLHi2vCvSj+pKtXr+bSeNGtW7fOzc0N9H64N8w14VpxCTyJa8hNxNkOF8IdJp6T38XjGfcCudhNG9efLPb8djROKUhuUbg19VSVKGrYuBl3fLnC/C4uk2vFw4FmrFKlCidaZ5uRu91cOKdMXHnuuHMfjsvnd3H53ALHjx+/oBl5Nl5oixYtuF9+8OBBnpPXF4f8Lh7P7+JUipMW7nrypAuasW7dujymdDNyX5A/HU/i5XJPcePGjTyJK8mTuK/Ma4qHuR/MdeZCuECek5vxyJEj3MnmWnEfncvkWgWakXuZ/EE4K7i4GZs1a+Z12aYsyNhyggZ3DW/aojVvLVxPnsSfi9/O6SsvmhfBi+ZeL6dJvCzO+rhXzSuXJwWacfv27dwT5TI59eKtjlfu2WbkVDPwU4HcvLxVnG1GzuK4L8stySXwptKoUSNOmXg2nsTtxiuFc7CLm5Fn4wFuBC6fO9/8qXlZvIPwSE6ieEvg/YInBZqR9xez2czVqF69Om9aXP9ArXhS6X2E96Czzcjrhbc3rhjXiluet/DSzci5H2+rHPLH56bjSYF9pGnTplyHg/v3HC9WzNmjnPnajWvXrnG5fM3IWyMvlNuH/+VFcIOU3kd4a+R1zeMD+wgneLz9cK14B+HdhGvF7+I5+V28UQXuDOedndufGyRQK25GXum8X3OFuTTezM6uXN5HOJHg9ufyOeXg+vO7eDxr2LAhz8O7JJcfaEbe8u12Oy/rqh5qOKHlNZiTdXT26mMbC2I1ClGtlO6ukR8VYVIoVbyieYZL7iNl81DDzchL5LXGtWK8mkrvI5yw8crl8Vwm16rcH2o44x05cmTfvn05o+ZKAgAAhBJS0ODgDj33q7jLy3/j5VFwxbhjJ3ndOw7mvPXjIbVSsLvEt+6u1q5hJUHp++EHeSY4Y+mughnLDn753zZyDP/UkXznoK9W//xWJzmGi3CS6XGWzFmf+/WSE3qNwqBVju5fOzEhlnNheQ64btWvX79fv35vvPGGHAMAAIQK+vfBEcjkbTZbIIQrx03n8XhKrCUOhyMwRhDI4XSUlJS43W58RXIxh8PJSbscwL9gt9t5c5MDuAhvZl6v1+Vyu1xO324p+O4H5aOczWrFvlkOOJ04kgAAwLWBFDQ4dDrdk08+aTKZ5BgAAKAMGzBgQKtWreQAAAAghJCCBodWqx08eDBSUAAAuC7079+/ZcuWcgAAABBCSEGDw2w216pVKzs7W44BAADKsK5du44fP14OAAAAQggpaNAIfnIAAABQhhmNRo1GIwcAAAAhhBQ0aCQ/OQAAACjDHA6H2+2WAwAAgBBCChoc4eHh2dnZlSpVkmMAAIAybOXKlQMHDpQDAACAEEIKGhwOh4P/lhcVFckxwFWjUuKKbwD4t0aOHLl48WI5AAAACCGkoMHhcrlmzZpltVrlGCCoCkuce44Xbz9SeCDbnJlndbjE/SfMO48W7jhSeDzf6vLgx/3+CbVKgVweKqz09PSdO3fKAQAAQAghBQW4Dogi/bH5xLQlh6YsOrRxf77F7p66+OD0ZYf539xCuzwTXAGr05NVYDuUYzlxynYszypK0tGTJfw6nGPhlnS6vfJ8AOUdHqEHAADXClLQ4FCr1XfeeafBYJBjgKCKCdfaHJ6dRwvXZOQdPWl1uLzr9uZv3H8qM68kKkyrUWFHvlIut3fFrtzvlhz6bvGhP7dme0SJM3l+TVl8aPexIrcXTxSDiuL222+vW7euHAAAAIQQeq7BwcnnhAkToqOj5Rgg2G5rUalmcrhSIQTuBdWolDqNomeb1KRovTwHXAHO2AtLXGv35P25LXvroVOiKC3dkbt0e+76fflqpSJMp5LnAyjvhgwZcuutt8oBAABACCEFDY7i4uKEhISsrCw5Bgi25mkxvhRUKcg//SOQQau6pWmyEVnT39ShXnyT6jGC78FOvgOgRqVQKITOTZLSkk2BGQAqgg4dOnz22WdyAAAAEEJIQYMJ99XAVdW6TmydlAi3RxQlSatWdG6SHB2mlafBFWtcPbpRtSjeW89edKsQqGvT5ORoXEgPFYhWq1Wp8AUWAABcA0hBg0mSz08BXBUta8U1rBrF+SfnoAaN6o42ldW4C/Qf4WZsUj2ak/nAHtu+fnxKrNE/CFBRlJSUOJ1OOQAAAAgh9F+Dw2QyZWRkJCUlyTHAVaAQqGG1qNopEVq1snWduKQoPc67/zP1UiPa1onjTJ78Xxv1aFU5KkwTmARQQSxcuPDpp5+WAwAAgBBCChocLpdr3LhxJSUlcgxwdTSoEtmyZkykUXN7qxR5FPx9KqWibmpkvdRIIqFx9ejAc57kaQAVw4wZM7Zt2yYHAAAAIYQUNDgcDgenoBaLRY4Brg6DVtW2bnzP1pVrJOLZOf9KlXhjx0aJapVwR+vKeo1SHgtQYUyaNGnt2rVyAAAAEEJIQYMDDyKqIMrC7b51Kkfce0NVOYB/ipP5m5tW6d66eps6cQqcAoWKR6VSKZX48gUAAK4BAU/QCYqSkpJbbrklPT09Pj5eHgVXhrdAt9ttt1kyjuS/l35CrRQcbnFQ96RWdRJ0BpNGoylr6X12dnbWsWNK3+NUr03FuD14wfKDdOCf4mb0ipLN4TEZ1Jc7CkpKVcOGDbXaCvrYYVEUncxmnrM+e9rqU3qNoNcoh/WunBgfozcYOYHBV2/XtQEDBtx6660PPPCAHAMAAIQKUtDg4Ga02+16vR59sr/ruktBXx48ePRHH5HKEHiSDVzfeOO63Grk9Ss6Dhw4kJaWJo+pYJCClm8Oh0OpVKrVajkGAAAIFaSgwVFUVBQVFXXs2LHKlSvLo+DKXHcp6Jsv/PeDZQfpkz/IYpZHQfmjUJK9hO5LPnRgb/W0mvLICgYpaPnWpEmTfv36vfzyy3IMAAAQKrgXFADgkpBfAQAAAAQfUtDgCJxMFkUxEEL5xyucVzpe5fmF3RnKM4vF4nQ65QAAACCEkIIGh8lkWrFiRWJiohwDlEUCacIpLIJM/ld4BOl15HuuUmkSKXVkiKCwcFKVOg0oKUnP7zWRWnHezZMKPRnDSKMiSUFqA4WF+c8dKkh/ZikXvPjtOLkIUAbMmjXr4YcflgMAAIAQQgoaHB6PZ/ny5fhGGcouTiw1Gto1gj5+hD7oT8P70bDn6feVpIokZamcUmmg/JX0y4s0aRQdE8+kiwrS5dD8EfTtJDpYQrozxw1BSQXz6bvJtPEgaQtp90yaMIFKFKQopD/eps8eoREDaHh/GuF/8cDwh2hXEblUyEIBrrlNmzYdP35cDi5DuuAbqiD6myWXqsllK3X1KgsAAMGFFDQ47Hb7kCFDCgsL5RigTFEpyZlFi0fSvCVUeIpsxeRw0LFltOADmvcLlYTJs3FqqBXowM/056c0/1eav5E0gZ8NVJA2j1Z/S9NeoUW/ks0k55CCigpXUPpPtDOT1GY6MJ9m/khWBQlmWjaK1qyi3EKym6mk2PeyFpG1mNzoJQKUCcOHD1+8eLFvSLJajq2ZPf7zzz6WjR4x8qtf1+0s8v12UTD3WMktFu6cO2nFviK7q/T3UJLTnbdxxsd/7rE4XfKoCwmC6/jan1et2bzffNmnYAmSxXx0869frz0mES6jBwAoy5CCBkfgyZAKBdoTyh5BQ85c2v4lTfuMNI/RGz/T8Dn0wWwaOpKqn6CfBtHaHFL4O3UCZ6q7addxCm9GzerQ0q/JeuYHGyQlGWKJiunIUtp0ync9rX+s/6rdUhfi8rBvCg9rqd2r9NIcGp5O783xv371vZpGkcaDsxUA15xer1epVL4hseDkxmmvPDNo1LdTvpk6ZcqUqd9N++Tj0R9/MXV9tv0vLlnwiCXHti7dl2t3e+Qx/x/J4c369Z0nvlicVWSVR/lJTs+pXfOnrDlkdbrlURezbfl68MTJM5blyvEliHk562e88djXWyTpSqsEAADXAlKm4FAqlTVr1pT/nAOUIYIvPzw4n2aPpppf0aA7SbJRUTGdLqLY2+jez+nWJrTtT99sTKmlAzNoj4Zie1M7iaTFtM3pSxcDnVCnjRp1oXodaPmX5LyCQ4fbStZCsljIUnzu5RaRfwKUBTVq1IiNjfUPSqSIT9S/MG3H9p3btm/fvm37rv3TuouZIwc+Nf2Ef4ZLEa3uQ9Me7/Te77kWuzzq/yWQUh+uCNMqA196naEI19d95Nvt7/RIDDfKoy4maAwRRqNeG7gy49KUSo0+QmfAT50CAJRxSEGDw2Qy7d27NykpSY4BygoVKQ9T7g46mkZ33k0OF4mBFFAgZzFFt6U+0+jleynwMGelgnYtJiGf0tpQYgtKdNDmZeduvJKcpGtFVRIofCzNP+7LSy9/fkTmm+H/nQkAroH09PTHHntMDjgLlZxWr3jmOtjwlo891ueOqus+/GZ1YITodjrsfjabw+XiA4bkdTpIRyqvnQ8rfpLodTttNltgPrvLKx9s/n8SiR6n3e31ze/1uNxuJ//n8BflcHouLkWSvC5egtNzxUs485YAm9Pj4Y8getwuh8M3dAZ/ALc7UA9J8rj8n8Vmd3nkw6Do9XqcTpfLyaPdXv8oAAD4B5CCBkdxcTFnoVlZWXIMUEYoFFRSQKedpG1IMRddmyaJ3OUib6AHpiD1WtqQS6r6VKMlRdSkWqm0dDH3unw3hPkI5LZT1eZUvw9995WvZB7zFx1AgbNfDanPvFQa+XJfACgD2rVrN2bMGDm4WFy9mk3SulsPHjztyxBp0//a1KtkMBiMBqOx6f33z9gqnkx/rs2b6+nbJ+t3eWPajoP8lqI1vw+7zWg0hoUZw8IjDU/M3p17ZedHxWLrjs9uj3lhZo6N3PNH3DX0uV79X3ipERcVmVy9x9fHrb4cVz56SCoiz7Hs7x4wmKI6fLQ711IqgfwLthP5Pz1qCvPXjj9Fj+Hf7hKlLV++80i9eiN2yvMQ2ecP7PnCuy+lZxM58jImPOabO8xoeHxCRp7FN3nTgmkjbrv5vifbR4ZHDUov4RwcAAD+CaSgwSFJks1mC/w6KEBZwlmil8QIUtekpL/sqwkKOrCMcutTw5upfhgZk6h+U3JMpwwluc/8koroIm11qteDuq6n5fnklS57CNGE0dIX6IXKdE8i9alE9yZQ/9o07zC5+C1IRAGuPf6b5XJd7uk/LDE6SV0pbfu+w7zj//HWbe/H3zv1l+2nild8PLjmyaXjZi/Q3P3+r680pXtHLPrh1XsbpdGJ5eM++u476+O/nDq6Z+u+z29X/Dz+240ncq7or6JEXrfN7vCf1FSSY9aSHMFw6x/5GcuWvdZyyevj/rRyruf70ktSm6LNOXsnvNHk5aLXF+2b+UTthLAr6cYUZW797s1Hfr79y0Pb9x3Jm/V0w8Pzf5y1aH/azbc0uSV68oLN/iybm2T1wkWJuqjWLSuZt37z/btjDd+e2Ldv36ohmaPfmDxtUyHp9dLRtYWZmTFDju3PGHKrQaP1lw4AAH8XUtDgCCSfYuBqRoAyxbdtWslbQMUX5X6S4HueUJjJdyRQ6GjbTKpWl5p0oEii2NpUvztVLqDtm4n7qfKJUO4pEiWkUecuNOkdynP7TklcMqP0OKjBI/TIV/TyJHppIg36mgZ+Rs0TfL81im9qAMqAkpKSv/whMbVKTWq9xWblrLBZv1krJg3t0atRtOmGB+66sdlNeQWnhciUWkkGik6tWz3Rl4pF1e377tDZP3zaK7pyrcZpTz/6sMemtLpsV/hXURCUpPAfZiRRjEqp0qh12+qxdRs3aNOk9ulTdlHyXfWq0ER4Ns+b9O2oqYpnvv/6pZurVIvWXNk3Woa4en2fn7988hPVGtZMjbnnsQcTIlIL8osiG9RsVqudaerCPf4bFNwr//izVmxiw7apOXtWZa7aect9A5LT0tLav/tSj33rM9cdyPaoVF6jQVMjrWVCtepxYYH6AgDA34cUNDjCwsJmzZoVHx8vxwBlhCSSIZyMbrJuo9MXfGWvIJ2NspfQRyOpUEHag7ThGO2ZSd89ToPvojd60+efUC7R8mW+fFJ55ljBHTVlFCXcTtXW0boMsjpJealumOihhGbUvBd1uIva+/9t24OS/c/LRQYKUAZMnDixT58+cnAJZptZsByvlux7xEF83U5xK4c+NeDOu3o/+PArk1cVRBrVvvsmPRJ5XQ6X/xJ/Q3xazQTF2nd79ri79z29+45e6XCLGuVfPTzo0jweT1qVStVqxvCxwu3WGGIF+UF/Go1y+5bcvQcPqNNcOykm8CSlKyBJpDFEVWvQ0jqp7919eve+76HXvtuWZTdqeFpCalrzlo7JC48p+Li0Lv1Q4641mzWvQYV2Z97ePQve73df7969+/b/5Nd9W44U2y0unineaKiTlhwoGQAA/iGkoMEhSVJRURHOgkKZI3lJmUIpdalyIa3bTTrNufOZ6jBynqCN39L8Fb408tB02lOZarSgGpVIZyJDFMXUpNatKe8XynaRW0nCmdzRqyJNdep3L239kfKLSPL15C7B6yRHCdnPvqxU+rEfAHBNmc3my50F9e/qx7IP5q09Va92DaKiLb+98/Efh9ze8LjE+JhIk1F17jFAZ3+MLO/Qgm8nfDpvnyYpNjoyLi5GT4qzx4y/g/+chmm1eoN/kETRK9eHJNHj1dVoee8dvW6N3DNk3MErLZwPeSWFGb9NemXCBld0WERUfHyMUatRSKLXS6rUuo27dVNO/eOowrb+113xXRrVaxJN5PJKgkKhN0VHRUZGGrUNe73yYu/b6qYqOKvWqlQR4XLJAADwDyEFDQ6r1fr4448XFBTIMUBZ4SVXJFXvQl1b0rKhtPEwKTSkM5A+glzHafVUWr2JWvWjCDMtmk66lvTQGHpjEr0+lV7/ll6bRI8/QsZdtDOLSjznznZKPKyhuv+huO20fScVWEmFIwnAdWbQoEHp6ely4LueXq1V8tFBDlwrFq5Ysje3fcemSqd3zw/PvHugzpvjp303YezHLzx2Y5zRJvpmkjweMjvcOt+pzqLVs8b/9uPuxm/OnjhhwuTxLzerpVGrOJ08c9g4S+LDh06vlyO/C66mFURRusQXum6Xu06jGm3v6tWpyc2Puxa//fMlH3bk/yAK4bwvxpyH9i6Y+cYX9ODPkyZPnjh2+O03VzZqnLwQIm2Vqq3v7Hfi+yWZ235cm9wkJaFGDL8hTKuPr1OnzTOffzVp0qTJEz8ceGePVpUj9TqP13fXjfwANwAA+MfQcQwOwX9m6ey3wQBliNdGkXWp1WOUtIG+/pi2r6A962jfZlr8Mc37jpRt6YkHybqDNh6k5q0pTEeFJb4f8DSbyeoiYwuqp6Mtcyk/z3cXaKBb6Ot6CuSOoDtvpwMbyHmUBO6CSr4zrl6PfMKCB9BPAyjDjEajRnMmU5NcTkfmzo2b1m3dsnXzjt0HZn45bfFOe/UnX+uVSm7JLgiGiOKDS1cfOrJo/Jc//v7bHpPL7lAKOlO0fuva+cu2niSyKpXGMLe68NCRfZtWL/1y6KcrxBP5Hkm84DncklcUc/ZvXLt21/Ztmzdv2rhxa8ah46c8gu/a/cCPuPhOdnrP/J6LJHk9kv83UvwTnA5r8SnS1r+h3/v15/5v+Ox9BfYLDjP+D7JL/iBc/oZth/PNp0SVoJWilLk7tm7asXvmO5/8nrntuIaL4zdoDIa0mwesn/fJ9OWmbjVTEyv5Skmr0bb6zc1X/jQ2Y/Pmzbvnv//Cg5/9uOaYjdQKr9fzN34JBgAALg0pU3Bw8hkbG6v8B7e9AFx1ErlEirmJXttIjWfS8J40uCsNak1jZ1HCWzRsGiVkU8E2Koqkeq0pMoq8gZ+745RSSYoUatuRji2i44WkiSfT2Zs5+T+Jqg2m25tSdCSp1L6ZNSaKiPQfVBQUFkcGPQ4wAGUW/80KCwvzDQkaTZhgMMwdckOHm9u2a9u+VYNafaZ6uzz2y8TXm/Nko7LTMx/duemnJ+7okFb9qfXJSfe+8lL9A8dySVWjc5/bCn8f3ON/X6/ekXDH/f3q3FQ46v7q9W++8/6f2vwyrJvDZLeZS3xLOEMhqPTxldeNe+iOW1u0btO+fdtWrTr3febdpVatLiw6JkLvu9RCGxYdHmHS+e//VCjUxuiYcJ3vNKmgNcWYwsMMPKioZGp598jEb574aFV2YalriQMfRD/3LfmDtG/TqnW3Z0ZOOlmvae+7Xqk7fXDLtu2aNhgVMfTBuxp2CD+Zk+97kybM1LL9Q3PHjEvr17VmtRjf18kSJTV/oM+bz0vP1W/fvn2D7n/Wn/DagF5pBq9XEWaKijGqfe8DAIB/Tgg8yhXgWuEt0O12222WjCP576WfUCsFh1sc1D2pVZ0EncGk0WgCZ5jLjjdf+O8Hyw7Sx3/4ThVefzixlId8SrctHwou3dT+t/gmnR0orfTI84d9Z0uvWwql7/7VPpUOHdhbPa2mPLKCEUXRyWzmOeuzp60+pdcIeo1yWO/KifExeoNRpVKVtX0T/oWL+wLnr97zp/MUKTA9MF6et9RMPIajS20iFy8p8Pazs/tnOPfOc8VcPKFUdIZ/pvOVKjaAw1IlicX2HRNubbrvscMj76oWU/o+z3NvObucSy8UAAD+HpykCA6z2ZycnJydnS3HAGWT74cPSr3O9aQEfygH5xEU/h/kE84MnC8wUn5jqRl4QeimAZRhXbt2HT9+vBz40qoLyBNk8kjZuSxMjksHfoEoMPp8gennOTPe//+BGQKDPueCiyeUis7wz3S+iyZcUJI3e93clb27tDEZLnjOkH82P3nE5RYKAAB/D1LQ4BBFMScnxytfwQhQVkni+a+zpwUkfygH5+F5fLP5/z03/xmBkfLoUjOcVzgAlDn8N8tsNstBxeQ9smvWyzdHNb35zUofjLg1Jea8ZyQBAMDVgwtxg6OwsDA6Ovro0aNVqlSRR8GV4S3wOrsQ9/lnP1iTRePnUIXpvAnWEklnOPfToBUBf1a7k7obDu3fW70mLsTFhbjlUPXq1R955JEhQ4bIcQUkmU8d3L5s6VFHZJPb7msYzcc6eQIAAFxdSEGDw+VyTZo0qX///vLTHeCKXXcp6KDnnv147GTq/ji5HPKo8k2tqtb+3uP71nhyj5Louw5NHl++8cf0uGjp1AP796XVrCWPrGCQgpZvM2fOrFWrVpMmTeS44uHeD7ZgAIBrAilocHAStWDBgs6dO+vP/7Uz+H9ddyno7J9//mHqt2EKyXcbZPkmkCRKJ4tdUp0+3mMro6XcMJ26wvwcga936tGFffLpp3FxcfK4CgYpaPm2YsWKSpUq1ahRQ44BAABCBSlocOBC3H/s+kpBubYVrdv984aCqQt3Na2Z9OwdtWMr5BcsFXClByAFLd9wIS4AAFwreBxRcAS6YoqLnxcK5UtF63OfLHLMXLLb5fKs3H50zfbj8tgKBokWlEsmk0mr1coBAABACCFlCg7upPLfcnRVoTyxOjyLtmbzvzwskLB+X/7uzKLAJAC43vHfLLVaLQcAAAAhhBQ0OCIiIqxWa0pKihwDXP8Kra65G46LvstQSa1SbDl0aufRQnkaAFzn1q5d+/zzz8sBAABACCEFDQ6LxdKoUaPc3Fw5BrjOWWzutRl5hSWuQMhZqNsjcgq653hxYAwAXNfuu+++KVOmyAEAAEAIIQUNDq/Xm5GR4XLJ/XWA692xfOucdcdcHtHp9nLI+acoSlsPnV6+E9+zAJQHe/bsOXnypBwAAACEEFLQ4Ag8WBiPF4bywStKVoc7MUrfunZcq1pxCoVQu3JE27rxdStHqJUKs80tzwcA1y2n0+nx+O70BgAACDGkoMGh1+vffvvtyMhIOQa4nnEKWinW+GCnGg/cXK1fx+qcdnZunNS/c1r/zjVuaJAg+X4zEwCub4MHD+7YsaMcAAAAhBBS0OBQq9XdunXjRFSOAa5nGpWiUoyhSfXohlWj6leJVCqE2ikRtVPCG1ePrlUpPMKgkecDgOtWhw4dqlevLgcAAAAhhBQ0OMxmc9u2bfE4IiiXJP+9oHIAAOVCr169Jk+eLAcAAAAhhBQ0OAK/CIrfBQUAgOuCyWTSarVyAAAAEEJIQQEAACoc30Ou8Qg9AAC4FpCCBkdERITFYklJSZFjAACAMmzdunUvvviiHAAAAIQQUtDgsFqtPXr0yM/Pl2MAAIAybODAgbNnz5YDAACAEEIKGhwej2f58uUOh0OOAQAAyrBVq1YdOXJEDgAAAEIIKWhw4I4aAAC4jng8Hq/XKwcAAAAhhBQ0OHQ63ZNPPmkymeQYAACgDBswYECrVq3kAAAAIISQggaHVqsdPHgwUlAAALgu9O/fv2XLlnIAAAAQQkhBg8NsNteqVSs7O1uOAQAAyrCuXbuOHz9eDgAAAEIIKWjQCH5yAH8bmg7geoA9tbwwGo0ajUYOAAAAQggpaNBIkqTT6eQArhjn7Uql0mDQa7VaeZREWo3GYDCoVCpk9WUBrwU8cKsCUvipfThRkfh/TK/T6fUGHoV983rn9pMDAACAEEIKGhwREREnT57s0qVLXFycXq//6quvVqxYwUlUYmJiSkoK/5m/5ZZboqKijEbju+++m5GRERYWlpycHBsbW1RU9OCDD/LbTSbTs88+m52dHRkZyZN4zLFjx1566SWek4d79+5dUlKSkJCQlJTEhWzdunXUqFFcfnR09M033+zxeKpWrcrL4kUvXLhwypQpPMA1ady4MdetYcOGgVp99913f/zxBw9wOdWqVfN6vTfeeGNMTAyXM3r06M2bN3PJXD5PtVqtd999N9eElz548OCjR4+Gh4dzrfgj5ObmPv3001xbHtO/f//CwkL+FDyJ59yzZ8/QoUO5EJ7ttttuczqdlSpV4lpx+atWrRo/fjwvmmdu1aoV5zO1a9eOj4/nMbNmzfrll18MBuNdd90VyEKNYcZHH3uMx/BbAs3IteKiXC5Xt27dAs34zjvv7N27l6vBi+aPcPr06QEDBnCVeMxTTz3F64Jn40k85siRIy+//DJXjz8OL4I/Glcp0Iz8kT/66CMun0vgpuAG4Wbhj8+1mj9//rRp03iAm65BgwZcK27MQDN+++23f/75Jw9wOdzs3PgdO3bkFcHljBw5kldNoBn501kslnvvvZdXHy/9xRdf5BXKw1wrrgmvaF7dXFse069fv+LiYi480Iy7d+8eNmxYoBl5s+FPXbly5UAzLl++fMKECbxobsbmzZtzrerWrRtoxpkzZ86ZM4cHuP5paWncwm3btg2s3M8//3zt2rWBZuRFOByOHj16BJrxrbfeOnDgQKAZ+SMUFBQ8+uij3Gjs8ccfz8/Pj46OSkpMyMnOTkyMfmXwi/wWrvwdd9xht9u5NMZj1q9f/+mnnwaasX379qIo1qhRI9CMc+fO/eGHH3iAK1mvXj2ucLNmzQLNOHny5CVLlvC7+KOlpqZyM/LuE2jG999/f+fOndwUXCue2Ww29+3bN9CMAwcOzMrKOruP8PDzzz/P43m4T58+PCcvKNCMO3bs+OCDD7g0LrNz5868D/JSAs3Iy/3666+5Dlx406ZNuVb169cPNCPXdt68eTzA9a9evTp/lg4dOgSa8ZNPPtmwYUNg5XI53AJ33nlnYB957bXXDh06xI0WaMa8vLwnnngisI888sgj3KpcAk/iMfv37+c2D6zc22+/ndcFj+cCufw1a9aMHTuWB3jmNm3a8BqsWbNmoBnT09N/+uknHuBK1qlThye1aNGCtwEec1UPNTxm06ZNI0eOeOON13mSUqWy2WwtW7biDZIXfd0dambPnv3zzz/zAIe1atXiSa1bt+bZ+F1ffPEFv5EHuFbl7FBz4sSJSx5quMJ8nHn99dd5iQAAACGGkxvBwT0z7mt2796d/9Jzt5I7iPz3fvHixWq1WqFQcHeEe72nTp3ingd3MqpUqfL777/zJO7g9urVi/u13JPmFcEdd+7DcSKhUqm4t9GzZ0/uaXGGIAgC9zO4c8+pGg9z94h7XTk5Odu3b1cqldwB6tq1K0/iwrkDyhkpd445K+BCuKfCycZvv/3GY7hA7tfqdLply5bxovmNXCvuRHLHlN/YpEkT7g8tWLBAo9FwTXgSd8i4C8jD3FfjPhznElwgz8npBy+XO1tcE+6JtmzZkvvH/Bl50fzxuQfJGRQXzh077i1xh49L4EmcXfCCuDvLhXAniefkj8kfhCe1a9eOi12yaGGhQ7mqqKZCkDySok3E4QSdo22HG7m3FGhGXhx3VZcuXcodep6fcwbukwWakUNuRi78+PHjvDju23Ef7tdff+Vq8KfmFti3bx93/bkE7slxRnG2GW+99VbuQW7bto3n5L4a9935s/BbuFY33XQTz8CZG1eYG40/NbcAr2Weyt1Wbliuydlm5G4i94+5Go0aNeK+HXe+A83IteISuK/Pw5xOcLrI6yKwcjl74SyL8xauCXd5ucyzzch9X+5B7tq1iwvnDmunTp24wryp8CROpTjL2rhxIxfCvU/OYbgZuf/NBfLmwW9fuXIl14rxorlryzNzrTjr43K4kjyeF8cV5lSW0yQuk9NCTrQ46eJJgWbkvnJmZiZv0ty8nJ75t0bl19uMnzx7s/Pknl0Z+7gE3lS4G80rl2fjWnG7cbLKHWKuMG/23Kpnm5Fn4wFOrs42Iy+Lu+Y8ktMD3hJ4v+BFB/YRXtHcv+dq8F7AmxbXnydxJXnSunXruCfNzcjZNa96XrmBZuQCeXs7ePAg14pbnrNubqtAM/I+wrsVNzLXKpCFnm1GblLOsni/40IC+wgXyLstF8hbIy+U24f/5ancILxTcK+da8WtwVsj7zKBlctbI+d+vP3wMO8gvH55Cwk0I69cbg3eF7h9eGdv3rw5NwhXgxfNq+zw4cOcGXIlOXPgzYxrxSXwJN6L+eNz+/OcnB7wZsDv4vHshhtu4JqvXr2aq6TVarn8s814VQ81vGnx8STz8P5ZqzL3uaqpBFEleG+O2h9hMpIg8E7Njcar5mwzlvFDDe/7vEZ4cVwrxg3CjcNbAleY1xEfSBctWsTjeXHl6VDDBfLB5OJDDZfJjdanTx9uIm4WAACAUEIKGhzc6eEeDPcg+V95FFwx7h8rSNx+IPuN7/erVQq7S3y7d/X2DStLClyIWybcN3z5m30aNK4eI8dQYXB25HXZft2QM2lRll6jMGiVHz9cNykhTlDgCprrHmeqDz744JtvvinHAAAAoYJuRDBZLBZ5CK6YJEkej6fYXGyz2cifcPI/Nrudx3D3F1+RlAWiJAkCjhUVjiiKXq/X6XQ6HA7fbin47gYtKSmxWMxutxv75vWOVy6+4wMAgGsC3crgUKvVd955p8FgkGMAAIAy7Pbbb69bt64cAAAAhBBS0ODg5HPChAnR0dFyDAAAUIYNGTLk1ltvlQMAAIAQQgoaHMXFxQkJCVlZWXIMAABQhnXo0OGzzz6TAwAAgBBCChpMuK8GAACuC1qtVqVSyQEAAEAIIQUNJjyfA8o/8ej+OaPvrvPuMiKPPOpSin4b1qtNWlhYeERERGRkuCksJql6z2k5Nn6PfdFnj3SuY5QnRYSHR8UkPreYLKL/je6Nv7479OGeE7b5I5ntj9H3vfbKm/MOyjEA/FslJSVOp1MOAAAAQggpaHCYTKaMjIykpCQ5BiivJLer5FTW4QKbHF+GeDpzV3zzPu988efvv87+Zc5vP373VT/tq2/N3GOX3JacvRG1ugwas2g+T/plzsyffnzy9IBGI3/JOs4JqsJeUlCQfbzIIRfkJ1pPncg7mV/ilmMA+LcWLlz49NNPywEAAEAIIQUNDpfLNW7cuJKSEjkGKLcEQaHSaFT/37FDICExrflNt7Zqf1Pnjh1v7tG9552tdT+sO2ArciiUQnyVBh1uadmOJ3XqeFuXrs+9/N8aW+au2HnQRUqNUqVSa5TnXdTOi1Sr1arzRwLAvzBjxoxt28672gAAACA0kIIGh8Ph4BQUvwsKcI7vx0SVSjkgOpVz2Kokpe8HJknwelx2qzyBxTV57ZGkDX/u2nrIIqlVSDQBrr5JkyatXbtWDgAAAEIIKWhw4EFEULFddBe0oFTrsnYunjH5px+mTflu6uTPvvp88q7KL3Wsa4rUeb2B2z7P4benNlAcKiwsOmlT4lwnQAioVCplqe+IAAAAQgYpaHDw3/K2bdvqdDo5BqhYBE9JXlbGytVr1q5dt37NoWJyC3rj0c3zJn/y+lvv/O+dt9/96JM5J7tP+l/vWhpSeD2XeG5XVHSKTh8mkBiYdtGXOpKfHADAv9W6desqVarIAQAAQAghBQ0Oo9G4ePHiuLg4OQYoX85lhJc5RVmcMXfaoBs73NCxc9dbbxi5Mt9sdZlvGDB6/vaDhw4dPnw0M3PvtrWvNybfORfxkmXs2bGLbBaVVqsQFKQQPV55fIBAaqUCp2wAgmfChAn33XefHAAAAIQQUtDgKC4uNhgMWVlZcgxQvpw7/3iZE5ExrR59bb4keR02S5F3Qo+4aK3T43Y7S9/weXmSSEvnzajZPrFhpcqauMh4dXzJwYOn5Yk+brc3rVJ0tYRkOQaAf6t169affPKJHAAAAIQQUlAAuJDV4dl66PSsVZnpa4/NWXfc4xVX7T45d0PW7DXZq3cWnrAYFAq1jugf/6q9JClVGp1BjoiElW/1Gtu8S/cO9ZOIkms3igqvOe+trw7IU8m19O23N5stMa2bhcljAAAAAOB6hRQ0OAI3qYnihU9ZAbgeGXUqm9Pzw/LDM1YcmbH8CKegy3bmTl92eNrSw5v358cacrIso3qlpqakpqZWrlw5ISr8lhdfnXv+JQCSy2q22h3uS+wSkqBULZ/2wR2Nq1VJrZxaOSU5tcrduwevGPpw82YxvumJnV96dvDb96+ol5zCxaemJMb+J+/BPs8MHNhO738/AASBxWJxOp1yAAAAEEICHvARFB6PZ+3ata1atdJqtfIouDK8BbrdbrvNknEk/730E2qlwGnLoO5Jreok6AwmjUaDpw1fE4dyLOPm7t1xpFCpEFRKwStKbq8YF2Ho3Tb2jrriyuW7Clxe+XZN0e2KrlWvQaNWqcbACB/X8a0rCjTVKlerEXvubGeAJ3ffpl37juSVcHrK61YiQaGu2eXeZnG+r8R4e/CtcWdx1pZflx3mhZPk9UQ0vKVdvcRoje8qYGwNISOKIqcoTpt5zvrsaatP6TWCXqMc1rtyYnyM3mBUqVTYN69rW7dujYuLS0lJkWMAAIBQQQoaHA6HY/To0QMHDgwPD5dHwZVBClo2Od3elbvyPpy9U6WUr5WwOTxdmiU/ekvtpKhLf8/Cx5Kz6+pcrlh6rN8VpJGXngX5Z4ghBS3fJk6c2KBBg7Zt28oxAABAqOBC3OCw2+1DhgwpLCyUY4DrnFatbFQtKi1Z/kpFFKWYCG2jqlGXyz9Z6Xzk3OBFWcoVZC2XnuUK3ggAV2r48OGLFy+WAwAAgBBCChocgbMBCgXas5yrUFcNxEfq7rkhTatR84f2iNS+fqVWdfFIWoByQq/Xq1T/+JliAAAA/xwuxA0Oi8XSvHnz5cuXJyUlyaPgylx3F+IWFhaePlWgqACXICoEMts8//tpv03SO+y2R25Kurl+jFesQIcMSVCkpqZW2G46LsQt3+7we/zxx+UYAAAgVJCCBg1313AW9B+47lLQ1157deTIURXjCgKRlJpqHfrU7vBAfua2jEWT7bkHK9KlE3xslA4ePFijRg15RAWDFLR84/XLaxArEQAAQg8paHAUFxcnJyfv27cPTxf8u667FPTNF/77weK9NGoelVSIW3/VJHTYv29PcqXcMJMvKa0gFEqyW+mh6ocO7KueVlMeWcEgBS3f2rRp07dv3xdeeEGOAQAAQgVn7YKD8yibzYZ8vqJQqUmvJV1YRXi5tYYdVaudiogineGCSeX5peeXEY9AgnKM/2a5XC45AAAACCGkoMERSD5FscKcI6rgeHXzqha9FeIliaeNJrdSeeH48v3y+l8A5VdJSYnT6ZQDAACAEEIKGhxhYWGzZs2Kj4+XY/jbcLrpykkkKEkTTqYI3yvM/69W4xt/HolUBjJGkMFIylLNK6nIwCMNpFSc9w6lgcKMpFL6EuzzKCRDpLwU/vfsgFYtT78kQUNG06VqBQBlwsSJE/v06SMHAAAAIYQUNDgkSSoqKsJZ0H9AEASVUlArzsuSODnyjVTiXrOLcEKnDiOy0Y5P6cuX6ctX6KtB9MVI2nGUNJGkLJXvKXSU+yf98g79PodOCb7n2waoj9Nvo2n+UipwkiZwBOBJIp38g374mbLySV06t+R0t4iWfUxTX6OveFmv0IRX6MvBNHkobcz2zcmr6hIEcm6hH8fRuh0kavH1AkAZZDabr+As6PlfIV3zL5Qud7fLNa8YAAD8HUhBg8NqtT7++OMFBQVyDFes0OLIPFmSdcqRb3EHUhXOO09ZPCdO2TPzrKeKHf5xcIZGReYDtHISzZ9Ju1fT7lW0Zz0tGU8/f0SbtpLTcC7f0xBtGUs/v0vfT6d1B0l35pdF1IfphyH02au0YRt5/fNzoi+JdOInmvwtHcnxLULmL0s4TXNfpjlTaeNK2rOadvFCV9D2X+nnT2nDHnK6zyW3Z3GBnjw6uJNOFpCklEcCQFkyaNCg9PR035Bkt+XuXDJ75ozpZ02bOvWXhWsPFvoOAh6p5NDqOVuPmh3yMfqfkeyOk7sW/rDxuPvvX+PuOLpx/tZ9WUWO876VlMh+ZN3cLQdPWpz/pmIAABBySEGDI3C2Dj/K8rcEbqDdf8L86/oT6Rty1+y3KPzJjEpBm46UpG84OWf9iZ1HfU+dxXOeZIKGXMdozYc0dSwZX6exa+izNTR2FQ17iWzf05S3aY/zzNlkgZy7aGs21e1EkWpaPps8Ov94bk0VmRLIu422L6X9LlIHLscVfFftasP8F+IG5jtLQWoddRpJQ1fTuNX0Gf+7gYZPprDp9NnHdPQUCWpfzqlQklJJCpXvWU1ch7Du9PYE6tWZ1E4SVIFkVibwnCo5cRUUpFT73uJ7KX3l+Mf6x/tL8009Ox4AgsZoNGo0Gt+QmJe9ZvwTvfs8/eqrr7z22muvvvrq66+98szzbwwZ+81mq93rko7NfKHXqN8OFVj8b/yHJIvl0JIvXkvf5fS45VFXSKLTv71z54ipSw6c9y2v5KW89Dd6jvxxfWaFeDo5AEA5gpQpODj5jI2NVXKnGa6YP7EUBRKPF1gX7zy147gjkJUoFcKebOfinacP5nCHx8v9DKSgMp2e1n1Kf/5BLSbRoNvIXEwlxVRURGkD6bERlKai9Qt8uRzjNG/3RNrbgGreRs1zyLyCdnPLnknkXHbqMoD0Jlozy/+rK/Lov+K2kq2ISiy+JRZbSKhKr39Pnum07RgVKUjhJnsJmc3kOEWnc+l0MbmL6GQWmS3kLKGS0+Q+uwYFcpupuJDsLl8W6nWSmecPvIrJ4/Vnmx5yWamYSztNRbl0qog8HmShAMHFf7PCwsL8gxIJ8Ym6QbOOH886duzY8ePHM7Nyc6cNrrf77V5P/HDSICh14SqDVnnpy+6vlCI+rt3A9Mz3u4Vpz3wfdsUU2rBIo05zUQV4vMmoVZe+jQMAAK4DSEGDIzw8PD8/Pzk5WY7h/xPIKl0ud80EbYPKRqUglO5ccG6iEITaSfoGKQaH08UzIwv15Yqq7bTvINma0G3dyWaXR3NS5yimqg/Tf76hx7uSwyWfRdyaTpEiVb6RqtQjbS5tX0tnz9JLTjL1oBoFZP+KVpwm1d/tv4m+y2tdbejBGyhnB50qJNpBs0bTcy/Qr92pf03q/yod+ZbeHEBzfqVlo2hET1pvkRNglZ62vkIDH6SZKylKSyfm0qs1qH/g9RhtO0jGcBL305JP6bHB9EcvergGDfgP7T1OOv/pGgAIkqVLlz777LNy4Lv4we3wiud+pCWsbbNb2r9Qb8feQ/j+BwAAggwpaHCYzWbOP7Ozs+UYrgBnlV6vKEie5HChWpzKW+pZTh5OnaKVlSMF8ro9HpwF9eMEsjCLinVkqEkx/l+FOY8/7fT1FPk/L6lW0fJCSmpO8Y0opR5F6WjVKlKXOkvvdlKzHmSoTT99T/q/fU7C11/lbmlyHTqVT1YLCVpfFlq8mZzv0tR99O0oioskp53cUVS5AcUZaNMa3/W0TJVLG1dRvZZ0Q2taN4a+HEINvqcp+2nqUXpcoHnf0bI9vqf10lFy/kl5L9GEvfTNOKpd2Z9aA0DQdO3adfz48XJwCWqVWqFRuN0ef6QwJu795L7b6gqC0LTvazNyiQoPpD8TGfvKnyeK5H1T2v3j2GGPNB25w3cIWvtqzZQYrVYlCHV6v5O+3Tf9ZN6qT25PenVeCR8a2Lqvn+laXRCUalVS3TbvbvMfVVjmlOfubCgIKoNWo6vWsuGHXJr/aPN37R59a4sqSpXGoFGpG/e687sscp38/bnIuEFz9+fJD2GS9v825YMH67y7yR9tGt2galWur9D54Q+W5/AIz6niHWN73Pn6y90iYtV3vDp710n/fAAA8O8hBQ0OURRzcnK8+CHBv8/tkRJNVDdB6RXP5ZmcjqbFKlIiyVM6Ma3oBBJd5E0gY1WK88rdtXMkzunlzFDy0v4llH8DtW1JKXqKr0fVY6lgNh3Q+2YM9OVEO5luppbNqPZqWm2mf3YJuUpDhw/7rr9VKEmyU5ie6t9GsZUoLsr3pFyuiShSSn1Kqky7/qQijW/ZxWtoVzhVakVhB2jtNiq5l559gKrWpCpV6P4XybWU1i+mk2GkdJFGovrdKK4yxcdwZ9j36QAgePhvlpl3XplCEHRhSsW5iw2kzTuX7J104LYuN/m+LtQovx/wQ1jP56YcSn/7ZseB4S+l749KaHP7vVHjl2yy2gJPjTu4a9WJnYdaNqsrWRZ98NCWbsNm/LJy694p3RT7F73x8VYvqSWnOT+30C4KWsqc2/+5JSca9P9p745VP4x7tO5v3YYt9vDRfuc3/d/YL3Z7Z87ebfPGfdpVu+vzMTOy+EjiuzTmivEf4pWjer7lavrG2Pm7ds56d2DVvEVffLXQHNXmjr6xE1dsLTIHriHJ3L/u8OZdLZu1IPHwnGfu3nX3mI8XZaz4uIZz+zf/nbhb4uObLS9vwbhjN/349R8fPd+perT/XQAA8O8hBQ2OwGk6/CjLlRPOUCiVYXp1SpQq0SQGsgxOReOM3pRIRbhexZMVCu4b/f2vwMslX/tYyW0huyBnkmdJCtIYyGjwJX5egbb+SI1vo3qNKIoouTU1bEeRh2nbbnlmxm3N/bT6LalBCk3+kKzaM7np36FUU2QUaTS+pFeMJkMtSjWQ2+W7pTOAc+bwWlS5CikX075CfgPt/4OU9ahqbRKP0ckNlPkLvduFnruJ/nszvfom7dpF2Ycpt5CECFLXpaph5HWT24P8EyDobDabyxU4galUqEps9qnPd+rcsUvnLp07d+7apVOTJ8dsiewz+s1OCgfvfl4xrFnrLp27tqp+563Nk2O0GQeKKDyhXd9e0VM37Lbn+c6UZuxY787MbX1XV7XDfnzboWVCtS7dWjWs3f/9Ue8880rXFCV5SFCqFCo+pCty//gms4ruhjue7F27fut7ez362vDRt9TyXauf2OLl8SM/GjL0jrRaXR594OGet5w4coIT3L93AOByqnccMX3sB0/9p2utGnc8+WC31jceO3KcNNHt+/WKm741ozjbV+H9ezZb9h5t3/s2ch9Z8f13NVs/dufdN9e94cVn76qmph/nrXZplHyMc0antLz55s41k6MMahyHAACCBClocBiNxnHjxsXExMgxXBnuiqjVao1WlxCpqZ+o8Pr/wHtFqh1HyVE8QcdTlUrfz4MiC/X9bkpYJGnyyHKACpXnJ4wKMlho1zyaPoOcClIeopVHKfsXmvICvf8UffgizZ1P+TZavdx3tjPQkvwP54n6WpTSjnS/07qjvjOWV97GXIikouNrKSGGTOEkcYfOQIoo0gYu2juDU1OKptQm1CSGNmwmZRFt+pNSGlClVHIWkUJDVZpQtYZUowmlNaaUG+jeQdS9G0U5yashIYa03n+QFwPAlRgxYkTPnj39gxJJSiUlpjVv1qx5i+asaeNGHe+65/H+L/SK1/v2YsHrbX5nx2rxGt9xQ6MPS1D7Og9CWIPbb7Onr9t/spDo2OojZKT2991IpDa1fOT9e8wjnn7q0Wee+M+r8w/bazaM46NEIIMTFIqSzesOaKtFVEtO8o9RxNTu0q91ZYUgUVzDHjeI274Z8vgTz7z45LMfLy4MM/zte9V9HZtKLe9rk/3j/1598ulnBw8aNn2zPdyg5nIMDXp0c83fcuB4HlH2hkyH5Lqhf2eVzVt84kRJ0W/vPPbE888Pem305J83nCzIybIoBEFN1LJWlTOPU8PhCAAgSJCCBgcnSKmpqXgi7t/CjcYtFkhBo8P1NRM0kTrfaeRwrZgWr46LNGh1eo1GE0hBA2+p0LgjqK1J1RJJk0W7ckivlcdz91FtIvsuWjSJ0pcRuejobDpcnSqHk7uATh6jnBzfScUq1WjfHCpQnruJlPt7Lj0lNKG729KKaWTjUVd4QPCfg+VkePl6iq1CETG+rw18zyjyXnSHqkSckyY2oOY30cZ5VLSLNmqpQWNKivTd2qpKoMRu9N9P6L9jfK+BH9Pzo6l7V0pQke+adv/FxjjtAHB1JCYmmkwm/6AoevVa/a0DP/zwo5EjR45iH3366VvP9mlTiSf690FJijWGke8ng0WJ/+cV/KOVMS369xP/2JhbWHhsw157uLHRAy2NvoeONe72xpi7U822vKycLbO/GfP1Jz8VegV/2urn9XqIi/HfOlCa4Dm+/fvPps5Yuu5Qbk5W9sn8Eus/OfqLZN2/5ouPvp+/dfuREznHc/MKbXZetm9hUc0f6qdYtj33ZP6JrQfMCnWjh1uHkUfiQ5pgOX0iK+vYkf27LMbG7Ts/3a2h1umV+G1x0VGKs7+VDAAAQYEUNDhKSkp69uyZl5cnx3AFuGvBOMPUarUGgzE+0tAwibMiqsuJSZTeaDTqdL6zoAr82qrMS45K1PouqmeghZ/Q4dOk1vpeGiM5M2nxVDqcRy16kCqL/vyRTHfS4Jk0ci6NnO/794Mf6eHbSb2IthVyd+vcd/leJ4WlUMMnSP0Hbcskh/eyd1wp1KTyL863RC0JZto7gTKSqFZzig3zZ4yXwUmpIYEqNSbbb7RwJpl7Uv3avsuDo/hfPR34gVafJKeDnE46vZfWLKN9x8hzwTleAAi+hx9+ePr06XLAmaVkt5R+Iu6FvF7vRRfEKxRh7Z9+PGdl9tHl321QKVwpNzfgsW5P8dFNS0/dMGH6tLm/zl38yU3O4z9PmrWPdIHvaDn3jGjcMlUqsOYWnPaPEc3Hty3bcsxGlPXTy//5s6jdq98t/e2Xn3748pX2Nez+SyEuf0CQSKHS8CGpNBcd/O7xZ9clvzhxzp+//Txj3HsPNUouCZyDlXStn36kYNPpo0u+20TOkpQujXikQIa4GF3dJ75dMP+XX3+bmz5rwntP3NqmTpjT/4AC3wf3vRUAAIIHnfvgCHxRi2Tp7wqkoBqNRqc3REWENatqiDEKTSrrYiONWu25U6CB5gXylFBqN2rThRxT6fOvKPsgnThAJ4/TkiGUPoviOtJDvSh/M20/Rjfd7LsPs9hClmL/j3NqKaYlVVPRhnlkd/rOBvg6k4LvRCjne5okuvNGWrqAqMh3cvISjS1RSQ7lHqCsA3TiIOXsoUOL6cvx1GgQNYono8eXZ0rieXds8rDIY3jIS95oMtan9sfou6+pVXMKjySH1VefVp0pbi9994Xvg2Qfoc2f0scv06L15NX7log7qwGuJpPJpNXKuZskSeLFGeY5kijfqu8b9gXyzPwnr37XJ7btXTrt572VhOptmvHRQ7TY9s9887aHhszavvnYqZJNRyza8MrVEo2+LJff6juHKlXp9qBxY/GS379fZS06tmr1zGH/1955gEdRtXv8bO9phBqKBBIgQIAQkKKgAioargXEglIVUTBI8ZNLKEG4IoJeG/B98qBGihVRePQTFREpAgKK0hEILRBDAqTtJtvuf/YMy4LyXcuyYvj/Hp5wznvOvOc978zOnH9mMjs4Y8qyo35RWF4eU9PjOX7MWb5zxeLXZs1aZfdUQBYHtrxIfMUFhw/sO3n8aG5u7sGDh44e//m0RxSVl1jr+Ep37y8t37p4ds7C1zc4hEeR14ivSbfBO3I3LlyyrVplYpd2ykXbbmjY9e7/+nrN2+tWbS8s3rdo1vCsx0d9CM2sVU5DIS/KI4QQEiYomcIDNBKu5VRKfwAkTapQm81Wu5rj7nR7/ZpRdrvDbLHwFugv8Ilyn2g5Uox7R8Q8JR5KFUNbicGNxCtfio6viydniOg94thmkW8TrTsJk/msivMJr1nYkkSbFmJTjsirEFpL4CtSAisrv0foo0TKZNEzSrnV6ZcP2IWiEZY4sX6imJgmhrQUD6eKIW3Ef48RN6wXEx4S1aNEpRd7UeiMwmA4J181OmEwBt6Li/HdwhIlWt8j9HrRqoOwOYTPI5xa0WqIGPmsKHtKPJgqHmwmpq8UfWaKB+4SxjKh0StvOSKEXDJwzcI5Vikpr4XTG82h39oUigafR5PZoFcvcFqd8tcT+uCpOfWmId8sWOqsYW6T0Ur50GrjotIeW/FJxyVDO6Y3iHdc/8qhVr1mzOnVQDi9OsWPTuNziaR73pvdxfHV09faYxtc22vq+h6ffzQ8SSPaDp/Y+8ju6XemW23XTFq++5b5M9K3HDyEMxnCM+pDvzxaojHGVF/98uAb29dIqJ+Y2DAxsUn6dYOWFvuvz5yVse7tfl2aO2wZ77t1vSb8o8nWvbnqRs17DNr6/mdF5sq0PumBL6TS6I1J9739UeLsO+9pGR+dPPaT6HYjP+ifIpw+5Q4rAuaVnRBCwoxGvsqV/Hm8Xi+klFohvxkcgUid2+12Op1lZWWVlW69Xgc5arVaL88/BM16fMTTX/0knv9UucH41xD42hVPufJnlipa5flYCDyoTei9SrfydO4FqzV80r0uZRNIOzdUqFHooRhDPv6essAdUaNyI/Q8/KLSqajZ0FMFdorBKpQ3WEp8wuNW3m9kNKs+oWwrPUKnV0ZRtsTolcq7bc/bCmZvwLmsaJXNlQ+RV3g9wu1TVPRftfO1OuEsFXcn7N+3O7Fxkmq8wvD5fBWgvPijjXkL1xVajBqLUTe1T71aNapZrDa9XvkKRbUr+RuCEy/2YODXfH6fx11R4TfaTL9+DfO5neU+vdWo12KXez0VHo9Pa7CclaxFbw5u+3ncyCGPPn5dorQAb0WZ0x24canVQ+xiU5yDvG6X02+wmQJvGEIF53vlm1iggI0Wq1E58fi9Fc4Kt/Loq0an1xsMOk+FD2Fp3a5ynxaSGREE3Kv44bDSo/SWVT9OXzqj1WIQHld5hcfng8GghK31eXwGqzq9M2+P6PSJpu+9j03umRwwBPBWlrncynvtFd1pNGF2wYCNfCEBIYSEl1/8TpH8IUpKSlJTU0+cOKHWyW9G3gXFctZsNtvt9pjoKGCxWGDhLdCLoKzOhClGeUGu+s+hfHOmovQ0QmcWtuhf+Z5PDWSqXdjsWF8Ji0OYztefwBAtbLaAArwAjTA7hC10uBhhixLnvadSJwwWYbGc86kxCItNuS+qKleN0FuUwC54u6UGwQTdOs7em9UJPWZh+8v0JyFXAH379s3JyQkUNVBdlovpTwC9aTcZFP0JdJCU5qD+BJv+va5tcs2mjc7pT6Az2ex2h4LNouhPgHO9EX7OngN0BrPFFuhht0n9CTQ6k9Ua2M5utZgNeoMMS2Mw2xQZe+EpAXarze7ApSOA4spmUV59q9GbbWgANjMEsBH9zk1v84r1LRpEt2waoj+BTnkUJ7CFRdGfIBgw9SchhIQZLvHDg9fr3blz59nvWCO/D6lCDQaD1Wq14J9F+StQeY+Fl/6L4FeeZfUG/3mVX/+rLT7Fcr66DOBXbjkq7w3Ctt5f+fsm//l+QkH/c2PJf4HX1Z4Dzn1nn/uVBEYJ9fbrgYVOJNg/4E0JlRByqdi1a1d+fr5a+QP4yir2vTGsY/tmd+RdfUe3nt3qqfbLFr/Ll7sws2vHlFv3Nel+w50ZDVU7IYSQiMMHccPDqVOn4uLicnNzGzRooJrI7wHHYRBUtVrtZas/s0YOf3r9ETFnmShWLaQKohOi3CVute3fuzsxiQ/i8kHcKkijRo0GDRo0YcIEtf578Vd6Cra8l/N1bmXqLUO7tqhu1eHkfTkfEX63v+i793K++qks5cbBXVsnOPSXecCEEFJ1oQQNDy6Xa/r06aNHj46OjlZN5HdywaF42a5ux2YOf27OW+Le0aJC+SZNUjXRaJW/mF06a9/ePY2Tzn9e74qBErRqM3fu3NTU1M6dO6v1PwlO4H+v4+FvFzAhhFQhKEHDg9fr/fbbb9PS0ox8jWdV580FC+bPne3QK99lrppIVQRnRo/ZnpPzZq1atVTTFQYlaNXmxx9/jI+Pr127tlonhBBCIgUlaHiQD+IeOnSofv36qolURfB54bL7SuOK3emUoFWbP/sgLiGEEPJH4euIwoNcinFBVuXhLr4C4U4nVRKHw2EymdQKIYQQEkEoQQkhhJArDp/Px8egCCGE/CVQgoaH6OjokpKSunXrqnVCCCHkEvD/ysbfKCs3bNgwatQotUIIIYREEErQ8FBWVpaRkVFQUKDWCSGEkEuARpO/7b2nH0lJTe94Hu1aN79p5EuL9yjfM/JbVGhmZuaSJUvUCiGEEBJBKEHDg8fjWb16tcvlUuuEEELIJcF1+siuLbt+3LLhPDZv2/nZ7KmznpmxeKf3t/z58tq1aw8ePKhWCCGEkAhCCRoe+Bc1hBBCIoJWZzAYhdDHpvYaPXXS5Ozs7MlTpk3PGnB9m9iT3y1d/K/lOz1qz7P41P9D8Xg8Xq9XrRBCCCERhBI0PJjN5qFDhzocDrVOCCGEXCr80I72au3unTphSvbkyZOzJ2WNm/bMsH7dG4gzRUfXbj6ALkfWLFq0aP6yHw4WVeBS78zfvXXpvMVvv7v+mPAFfmU6YMCA9u3bKyVCCCEkslCChgeTyTR27FhKUEIIIZHB7/dUlKllhajqcXE1LcLpKSwtFl7/gRVTh93/YN8xr6495hGufSteGNFnaL+RM1cdQZvSvX///u3atQtsSQghhEQUStDwUFxcnJycnJeXp9YJIYSQS4ZGCK+7tPBo4bG84yeOH88vKs399N+rN33rNNau0TGlkdBpuk57f1LjZN8Xyz//fs3KzzZ88cU35jZpExdldRCGwJW/R48ec+fODTgjhBBCIgolaNjQBFArhBBCyKVCZxCi9PCSsWnxdRPq1K5Tp1Y1R8PeM3M2+6/q0LLfoG6xgU4tnnhzaNOEEx/NffKp8TkrnMnpQ+eNSA60KNhsNqPRqFYIIYSQCEIJGjb8AdQKIYRUSfh7tsuWGrcPmb12y+qFI1JUgxAdB2b1SLVt+vbrHfktbhr+4rA01a7gcrncbrdaIYQQQiIIJWh4iIqKysvLS0hIUOuEEFLV0Ai/P/DLNr4D/C/HC+1oq9vrqVX7tu/cvXZqx3rRQvz8/c/HC/OFVq89t3fKz+zzFhejsP/o6a/3FkqjZM2aNZmZmWqFEEIIiSCUoOHB5XLhWn769Gm1TgghVQzITo3GYtBYTVqjUce/O/gPuD2eNdtPrN+Zv3bHiTLXJbnTCJWpN1VrkNq4ebMmnR97/bWx3ZtVO7R81r/+d+a3RcFb1Yfenfjmtq+r9e3WvX1P7dLVr01Z9rPaAmbMmLFy5Uq1QgghhEQQDX+ZHRYgPmNjYw8dOlS/fn3VRAghf2d8Pl8FKC/+cGPeonWFVqNWr9N0aGy3Wsx6vV6r5W8wfx2tVlPm8vyUV6LTaio9vvF9WyRUtwX0e7hE+5G1L096IvONnYkPPLfmzcG1hRaOT698KfPRyQv2liY+MPKVabN64kpUvmdK1y7Z2w2PvffPu4pPzR/5YI65/SPvvD+nU43A89RJSUkDBw7MyspSvRJCCCGRghI0PFCCEkKqGEEJumxj3sJ1J60mHYzllT6/D5eNwIWDV4+LALFp0GuRH6fb+89H2zapF+vzB15YFx4Vemj1c09mjn3nxxp9Zm957+GEgAQV4uTKp556Ivvl7/zaVo/Oe+t/7iidN+i2f3xUcvOkxXOn9Kq7Y9GY4fe/tFpcO+DLRa92rWvUapKTkyFBx48fH/BJCCGERA5ddna2WiR/Aq/Xu2PHjt69e1utVtVECCF/Z/x+P85sHnfF8cLSwyedTrfG5xd6rUan0+rlPz3/XeSfTgu1qddpasUYr2kaG2MzCo1iCZMEdZcWFJza66vVqUu3jM5JVuWWpl8IW2JdhyHaeaysduNYTc0OaQVLl+bFxPQdPTajRZ0ok81mjLdtP2KrWWxOu//q2ojtwIED6enpzZo1U70SQgghkYJ3QcMD0lhQUBAfH8+H0wghVQOfz1dZWVlWWnLw6M8bdp/8/qjb7dWEvhE3LHKqihG8oEJtWozaTkmOa5rXrBEfYzKZdbrw/AFt4JletRzCRcwBcIX65dBFRUVms5m/NiWEEBJ5KEHDAx/EJYRUMXB1cLvdpaWlp06dKioqLC0udrsrYddqlRt6So8w3dSrMihXU3lJVW6B6kxmc1RUdHRMDH5aLJZwSdBwkZKS0r9//3Hjxql1QgghJFJQgoYHKUEPHz5cr1491UQIIX9ncHXwer0ul6ukpOTMmTPQopWVlT6fT20mFwdSE4LTbDbb7faoqCiHw2E0Gs9J98uDNm3a9OvXb+zYsWqdEEIIiRSUoOHh1KlTcXFxRUVFEKKqiRBCqgpOp7OsrOz06dPQVKhCSqEKTWWxWHARAZCpEFqwA3SGUrXZbMEmbCUFGAStx+NBFXb4QRM86PV6NFVUVEDiSv8AitdkMkG5oSc2gU/4hx09sRXsaEUTRDIigcyTTaFRIQY4CUZVXl6OPlarFU0gNKrQgNGnuLgYZXnTUkYFJ7IpNGDYMR0ZFcBYoVGhqVq1alChAM4xkOx2+dCsWTNI0AkTJqh1QgghJGIol2Lyp8EKaf369R06dEhKSqpTp84bb7yxbt06FJo0adK8eXOsVO68886GDRsmJCQ8++yzu3fvrlu3Li7/jRs3xpJu6NCh9evXr1ev3hNPPHH8+PGrrroKTQ0aNDhy5EhWVhZ6ojxgwACsb5KTk5s2bQonP/zww4svvgj/iYmJGRkZbrc7NTUVY8Hy5ZdfvvXWW7Vr14bza6+9FrF17twZUcHyzjvvfPHFFzKqVq1aIeZbbrkFHmB5+eWXv/vuO3iGf7RiGffAAw8gEow+ceJE+YAxosIUTpw4MXr0aEQLy7Bhw6C9GzVqhCZY9uzZ88wzz8AJuvXp0wdLt5SUFDiE/2+++ea1115DAZ27deuGBVm7du0wHUS1bNmy5cuXo4Bqeno6mrp3745u6Dx//vwNGzagACdwBYd33XWXTOP06dP37t2LQTE0OkP8P/LIIzKNo0aNys/PRzc0wZKbmztp0iRMBNO5//77MTVMUKYRU37llVfgH0lAKpCQ1q1byzR+/vnn7777LqJC6jp16oQ0IplIKSyLFy9etWoV+qAn0o6tevXqJdP4wgsvYNfAM4bGdLBaHThwIHYfRh8/fjx2KMpoQiTY0djdiBaWhx566MyZM3COJvTctWvXzJkzZRpx2ODgadGihYxq7dq1OTk5KKDzddddh6iuvvpquXOXLl36ySefyDS2bdsWabzxxhtlGl999dVNmzbBIWaNIbDavueeexADLNOmTfvpp59kGjGFwsLCESNGyDRmZmYWFBTINKJ64MCBKVOmyDTed999cAJvMo2bN2+eO3cuBsJwN998MxbfaWlpcueuWLFiyZIlMo34dCDgrl27Inh0XrBgwerVq1HA1Fq2bIlj+Pbbb5c797nnntuxYwfGwtDYEHpgyJAhSBTCePLJJ48dOybTiJ8ojxs3Dj1RHjx4MHqiP5pg2b59+/PPPy/TeNttt8E/RpFpxLgLFy5EAZF06dIFUXXs2FGmEdEiZpnGNm3aYC49e/aUaZwzZ86WLVtkGgH0DJbv8jOSnZ198ODB4GcEeRs5ciSihWX48OHIKnIr04hsI+dwgg3vvvtuqBTY4Q3+N27cOG/ePBQwXI8ePbAH8XGQafz4448//PBDmcb27dsj4Ouvv16m8VKfarZt24ajulatWtgQUWFqGAgbQlzhkMOhhQKa8HHGNHHgoQwLJvLBBx+ggJ7wg61uuOEGeIuPj8cn96uvvqpevTqCROvRo0dxrsDUatSogRMLhsNY8tOE4B9++OGaNWvC0r9/fxyBiBBN6IlcQTjBCbrdeuutmAuSBofw/+mnn+LciKExTZz6EBU+pJgXLNjpixYtQgFVHAwnT5685ppr0A1bYY7Y7yjACVzBIc6rcI4hkBl8fDAohkYA+/fvR4oQEgJDPhEkuqEJlu+//37MmDHYBNPp3bs3Dk7YkXlUt27dinOs7BnhU01eXt6vnmrQhI8tTuAYkRBCCIkwfCNueNBqtbjGGwwGSDuoAqxosSKJiorCkgJLRqzPNBoNhARW4WhCT6vVigLssOh0OqwwZBNWP0ajEWVshZ8mkwlLIthRxkoOPeEcTbDY7XasP2QTllPwD2+yKTY2FgsmDI3OWEYjPPxEGRbYY2JiQqPCtrIJ3uATm6MJYCyMKKNCDIhENsGCaWIRgwLA6kev1wejslgsWIOiAAsWxMGo4B/ZQE5kVFh+ISoIFTk0FoVAbgUjmmQa0STTKIcGyDPcYlxYsKLCcLIJnREV1nCoAoQn04jRUUXwWG/JJqy9MDXpDVWHw4H1HArojEUehsa6H00YOphGVGVUCBsDoTNWn8E0on9w58ISTCOGRmckR6YRTTKNMir8RITY3XJoHABy58qAcXjgIEEBlgvSGB0djdFl0wVpxAI6mEZEFUwjLJgjZooCnACkEZIe48KCzMg0yqgQsEwjyiggqyhgE/xEN+RcNmFzOJHeYJFpRAwYTqYRakRGFRcXh0U5CugZmkZYMBFMRzZh9GAa4TD4GUETOod+RrAEl2lEE36iDIuMCn3k0QhvcBtMI5rgOTSN2H3YubLpgjQiWsQso5I7FzNCEzpj5wbTCAsygMMJHmBBGs1ms2yCJfgZgQVpRFQoy6ZfphFRSf841CE8MDSqF6QRexb7V0YFY+jOjcCpBsIGcg4gV+gpQ4JSQq6QEwg5VJErOMRP2YTjARlGk/SJJpyFZBOmjwzLJoC84SwE57AgV8gwyrDjJ4ZGMMrAnTsjVzabDR7QhJ44cjAFFNCEVMjkyyYkChPHQOiMXGFoTEQOjVwB2YRZoAkdUMZWUjyjSfrBNLEL4BxNGAgZRgF2WJBS7Hc5NAqICgXZhG6YgmzCpOSBKtMVesaO5KkGHTDNX55qMPF+/fphaKwD4BaDEkIIIRGDD+ISQgj5TfwHufLHmi41l2dUlw9MAiGEkL8ESlBCCCGEEEIIIRGCX2JJCCGEEEIIISRCUIISQgghhBBCCIkQlKCEEEIIIYQQQiIEJSghhBBCCCGEkAhBCUoIIYQQQgghJEJQghJCCCGEEEIIiRCUoIQQQgghhBBCIgQlKCGEEEIIIYSQCEEJSgghhBBCCCEkQlCCEkIIIYQQQgiJCEL8HxP+IrHR3K1iAAAAAElFTkSuQmCC;" vertex="1" parent="1">
          <mxGeometry x="-220" y="130" width="241.65" height="130" as="geometry" />
        </mxCell>
        <mxCell id="PL6XIXsii-Dk_IEH5D_P-2" value="&lt;div style=&quot;color: rgb(51, 51, 51); background-color: rgb(245, 245, 245); font-family: Consolas, &amp;quot;Courier New&amp;quot;, monospace; font-weight: normal; font-size: 14px; line-height: 19px;&quot;&gt;&lt;div&gt;&lt;span style=&quot;color: #aa3731;font-weight: bold;&quot;&gt;CanMgr_ABS3_Rx_Timeout&lt;/span&gt;&lt;/div&gt;&lt;/div&gt;" style="text;whiteSpace=wrap;html=1;" vertex="1" parent="1">
          <mxGeometry x="58.35" y="40" width="200" height="40" as="geometry" />
        </mxCell>
        <mxCell id="PL6XIXsii-Dk_IEH5D_P-3" value="&lt;div style=&quot;color: rgb(51, 51, 51); background-color: rgb(245, 245, 245); font-family: Consolas, &amp;quot;Courier New&amp;quot;, monospace; font-weight: normal; font-size: 14px; line-height: 19px;&quot;&gt;&lt;div&gt;&lt;span style=&quot;color: #aa3731;font-weight: bold;&quot;&gt;CanMgr_ACC1_Rx_Notification&lt;/span&gt;&lt;/div&gt;&lt;/div&gt;" style="text;whiteSpace=wrap;html=1;" vertex="1" parent="1">
          <mxGeometry x="58.35" y="60" width="240" height="40" as="geometry" />
        </mxCell>
        <mxCell id="PL6XIXsii-Dk_IEH5D_P-4" value="&lt;div style=&quot;color: rgb(51, 51, 51); background-color: rgb(245, 245, 245); font-family: Consolas, &amp;quot;Courier New&amp;quot;, monospace; font-weight: normal; font-size: 14px; line-height: 19px;&quot;&gt;&lt;div&gt;&lt;span style=&quot;color: #aa3731;font-weight: bold;&quot;&gt;Com_ReceiveSignal&lt;/span&gt;&lt;/div&gt;&lt;/div&gt;" style="text;whiteSpace=wrap;html=1;" vertex="1" parent="1">
          <mxGeometry x="60" y="150" width="160" height="40" as="geometry" />
        </mxCell>
        <mxCell id="PL6XIXsii-Dk_IEH5D_P-5" value="&lt;div style=&quot;color: rgb(51, 51, 51); background-color: rgb(245, 245, 245); font-family: Consolas, &amp;quot;Courier New&amp;quot;, monospace; font-weight: normal; font-size: 14px; line-height: 19px;&quot;&gt;&lt;div&gt;&lt;span style=&quot;color: #aa3731;font-weight: bold;&quot;&gt;Com_ReceiveSignalGroup&lt;/span&gt;&lt;/div&gt;&lt;/div&gt;" style="text;whiteSpace=wrap;html=1;" vertex="1" parent="1">
          <mxGeometry x="58.35" y="120" width="200" height="40" as="geometry" />
        </mxCell>
        <mxCell id="PL6XIXsii-Dk_IEH5D_P-6" value="&lt;div style=&quot;color: rgb(51, 51, 51); background-color: rgb(245, 245, 245); font-family: Consolas, &amp;quot;Courier New&amp;quot;, monospace; font-weight: normal; font-size: 14px; line-height: 19px;&quot;&gt;&lt;div&gt;&lt;span style=&quot;color: #aa3731;font-weight: bold;&quot;&gt;CanMgr_SRS1_Tx_Callout&lt;/span&gt;&lt;/div&gt;&lt;/div&gt;" style="text;whiteSpace=wrap;html=1;" vertex="1" parent="1">
          <mxGeometry x="78.35" y="250" width="200" height="40" as="geometry" />
        </mxCell>
        <mxCell id="PL6XIXsii-Dk_IEH5D_P-7" value="&lt;div style=&quot;color: rgb(51, 51, 51); background-color: rgb(245, 245, 245); font-family: Consolas, &amp;quot;Courier New&amp;quot;, monospace; font-weight: normal; font-size: 14px; line-height: 19px;&quot;&gt;&lt;div&gt;&lt;span style=&quot;color: #aa3731;font-weight: bold;&quot;&gt;ComSgPoolMgr_SRS1TransferGroupPackage&lt;/span&gt;&lt;/div&gt;&lt;/div&gt;" style="text;whiteSpace=wrap;html=1;" vertex="1" parent="1">
          <mxGeometry x="78.35" y="270" width="320" height="40" as="geometry" />
        </mxCell>
        <mxCell id="PL6XIXsii-Dk_IEH5D_P-8" value="&lt;div style=&quot;color: rgb(51, 51, 51); background-color: rgb(245, 245, 245); font-family: Consolas, &amp;quot;Courier New&amp;quot;, monospace; font-weight: normal; font-size: 14px; line-height: 19px;&quot;&gt;&lt;div&gt;&lt;span style=&quot;color: #aa3731;font-weight: bold;&quot;&gt;Rte_ComSendSignalProxyPeriodic&lt;/span&gt;&lt;/div&gt;&lt;/div&gt;" style="text;whiteSpace=wrap;html=1;" vertex="1" parent="1">
          <mxGeometry x="108.35" y="290" width="260" height="40" as="geometry" />
        </mxCell>
        <mxCell id="PL6XIXsii-Dk_IEH5D_P-9" value="&lt;div style=&quot;color: rgb(51, 51, 51); background-color: rgb(245, 245, 245); font-family: Consolas, &amp;quot;Courier New&amp;quot;, monospace; font-weight: normal; font-size: 14px; line-height: 19px;&quot;&gt;&lt;div&gt;&lt;span style=&quot;color: #aa3731;font-weight: bold;&quot;&gt;Com_SendSignal&lt;/span&gt;&lt;/div&gt;&lt;/div&gt;" style="text;whiteSpace=wrap;html=1;" vertex="1" parent="1">
          <mxGeometry x="138.35" y="310" width="140" height="40" as="geometry" />
        </mxCell>
        <mxCell id="PL6XIXsii-Dk_IEH5D_P-10" value="&lt;div style=&quot;color: rgb(51, 51, 51); background-color: rgb(245, 245, 245); font-family: Consolas, &amp;quot;Courier New&amp;quot;, monospace; font-weight: normal; font-size: 14px; line-height: 19px;&quot;&gt;&lt;div&gt;&lt;span style=&quot;color: #aa3731;font-weight: bold;&quot;&gt;Com_SendSignalGroup&lt;/span&gt;&lt;/div&gt;&lt;/div&gt;" style="text;whiteSpace=wrap;html=1;" vertex="1" parent="1">
          <mxGeometry x="138.35" y="330" width="180" height="40" as="geometry" />
        </mxCell>
        <mxCell id="PL6XIXsii-Dk_IEH5D_P-11" value="&lt;div style=&quot;color: rgb(51, 51, 51); background-color: rgb(245, 245, 245); font-family: Consolas, &amp;quot;Courier New&amp;quot;, monospace; font-weight: normal; font-size: 14px; line-height: 19px;&quot;&gt;&lt;div&gt;&lt;span style=&quot;color: #7a3e9d;&quot;&gt;Com_TxPduCalloutFuncPtr&lt;/span&gt;&lt;/div&gt;&lt;/div&gt;" style="text;whiteSpace=wrap;html=1;" vertex="1" parent="1">
          <mxGeometry x="48.35000000000001" y="230" width="210" height="40" as="geometry" />
        </mxCell>
        <mxCell id="PL6XIXsii-Dk_IEH5D_P-12" value="&lt;div style=&quot;color: rgb(51, 51, 51); background-color: rgb(245, 245, 245); font-family: Consolas, &amp;quot;Courier New&amp;quot;, monospace; font-weight: normal; font-size: 14px; line-height: 19px;&quot;&gt;&lt;div&gt;&lt;span style=&quot;color: #aa3731;font-weight: bold;&quot;&gt;Com_TxLLIf_Transmit&lt;/span&gt;&lt;/div&gt;&lt;/div&gt;" style="text;whiteSpace=wrap;html=1;" vertex="1" parent="1">
          <mxGeometry x="30" y="210" width="180" height="40" as="geometry" />
        </mxCell>
        <mxCell id="PL6XIXsii-Dk_IEH5D_P-14" value="&lt;div style=&quot;color: rgb(51, 51, 51); background-color: rgb(245, 245, 245); font-family: Consolas, &amp;quot;Courier New&amp;quot;, monospace; font-weight: normal; font-size: 14px; line-height: 19px;&quot;&gt;&lt;div&gt;&lt;span style=&quot;color: #aa3731;font-weight: bold;&quot;&gt;Com_MainFunctionTx_ComMainFunctionTx&lt;/span&gt;&lt;/div&gt;&lt;/div&gt;" style="text;whiteSpace=wrap;html=1;" vertex="1" parent="1">
          <mxGeometry x="10" y="190" width="310" height="40" as="geometry" />
        </mxCell>
        <mxCell id="PL6XIXsii-Dk_IEH5D_P-19" value="&lt;div style=&quot;color: rgb(51, 51, 51); background-color: rgb(245, 245, 245); font-family: Consolas, &amp;quot;Courier New&amp;quot;, monospace; font-weight: normal; font-size: 14px; line-height: 19px;&quot;&gt;&lt;div&gt;&lt;span style=&quot;color: #aa3731;font-weight: bold;&quot;&gt;Can_MainFunction_Read&lt;/span&gt;&lt;/div&gt;&lt;/div&gt;" style="text;whiteSpace=wrap;html=1;" vertex="1" parent="1">
          <mxGeometry x="10" y="410" width="200" height="40" as="geometry" />
        </mxCell>
        <mxCell id="PL6XIXsii-Dk_IEH5D_P-20" value="&lt;div style=&quot;color: rgb(51, 51, 51); background-color: rgb(245, 245, 245); font-family: Consolas, &amp;quot;Courier New&amp;quot;, monospace; font-weight: normal; font-size: 14px; line-height: 19px;&quot;&gt;&lt;div&gt;&lt;span style=&quot;color: #aa3731;font-weight: bold;&quot;&gt;Com_MainFunctionRx_ComMainFunctionRx&lt;/span&gt;&lt;/div&gt;&lt;/div&gt;" style="text;whiteSpace=wrap;html=1;" vertex="1" parent="1">
          <mxGeometry x="10.000000000000002" y="540" width="310" height="40" as="geometry" />
        </mxCell>
        <mxCell id="PL6XIXsii-Dk_IEH5D_P-21" value="&lt;div style=&quot;color: rgb(51, 51, 51); background-color: rgb(245, 245, 245); font-family: Consolas, &amp;quot;Courier New&amp;quot;, monospace; font-weight: normal; font-size: 14px; line-height: 19px;&quot;&gt;&lt;div&gt;&lt;span style=&quot;color: #aa3731;font-weight: bold;&quot;&gt;CanHL_RxFullCanPolling&lt;/span&gt;&lt;/div&gt;&lt;/div&gt;" style="text;whiteSpace=wrap;html=1;" vertex="1" parent="1">
          <mxGeometry x="30" y="430" width="200" height="40" as="geometry" />
        </mxCell>
        <mxCell id="PL6XIXsii-Dk_IEH5D_P-22" value="&lt;div style=&quot;color: rgb(51, 51, 51); background-color: rgb(245, 245, 245); font-family: Consolas, &amp;quot;Courier New&amp;quot;, monospace; font-weight: normal; font-size: 14px; line-height: 19px;&quot;&gt;&lt;div&gt;&lt;span style=&quot;color: #aa3731;font-weight: bold;&quot;&gt;CanHL_RxBasicCanPolling&lt;/span&gt;&lt;/div&gt;&lt;/div&gt;" style="text;whiteSpace=wrap;html=1;" vertex="1" parent="1">
          <mxGeometry x="30" y="460" width="210" height="40" as="geometry" />
        </mxCell>
      </root>
    </mxGraphModel>
  </diagram>
</mxfile>
